<svg xmlns="http://www.w3.org/2000/svg" width="31" height="31" viewBox="0 0 31 31" fill="none">
<path d="M17.7032 7.40025C17.5745 7.36444 17.4459 7.33411 17.3173 7.30379C17.1504 7.26798 16.9835 7.23216 16.8139 7.20464C16.7262 7.18811 16.6387 7.17157 16.5484 7.16333C16.5128 7.16064 16.469 7.15509 16.4417 7.15514C16.0832 7.11943 15.722 7.10305 15.3607 7.10881C15.1883 7.11166 15.0187 7.11726 14.8517 7.1312C14.7587 7.13674 14.6628 7.14509 14.5698 7.15618C14.5452 7.15898 14.4959 7.16453 14.4604 7.16732C14.4549 7.16732 14.4494 7.16732 14.4467 7.17007C14.4439 7.16732 14.4412 7.17007 14.4384 7.17287C14.058 7.21449 13.6776 7.29483 13.3026 7.39725C13.1687 7.1625 13.0046 6.94165 12.8131 6.73184C12.7721 6.68489 12.7283 6.64073 12.6846 6.59657C12.526 6.43646 12.3673 6.2763 12.2087 6.1162C11.7683 5.67175 11.3225 5.2328 10.8822 4.78835L8.51629 2.40041C8.35767 2.24031 8.20449 2.0802 8.04858 1.9173C9.70477 1.00208 11.536 0.390579 13.4079 0.140911C15.3949 -0.119849 17.4117 -0.0243247 19.3572 0.474493C20.3395 0.725301 21.2971 1.08386 22.2137 1.52251C22.4654 1.64389 22.7171 1.77083 22.9633 1.9088C22.8647 2.00826 22.7689 2.11607 22.6703 2.21559L18.4809 6.44408C18.3878 6.53805 18.2947 6.63202 18.2043 6.73428C18.0154 6.936 17.8428 7.15431 17.7032 7.40025Z" fill="white"/>
<path d="M29.0926 23.1628C29.0899 23.16 29.0899 23.16 29.0926 23.1628L28.5155 22.5802C28.3268 22.3898 28.1381 22.1993 27.9494 22.0088C27.7798 21.8377 27.6129 21.6693 27.4434 21.4981L25.0474 19.0798C25.0091 19.0411 24.9736 19.0053 24.9353 18.9666C24.7712 18.801 24.6126 18.6298 24.4457 18.4614C24.4074 18.4228 24.3664 18.3813 24.3254 18.3455C24.1175 18.1522 23.8959 17.9894 23.6606 17.8514C23.7429 17.5365 23.8142 17.216 23.8637 16.8956C23.8719 16.8431 23.8802 16.7851 23.8884 16.7326C23.8884 16.7326 23.8911 16.7298 23.8884 16.7271C23.8967 16.6414 23.9049 16.5558 23.9132 16.4702C23.9297 16.2989 23.9407 16.1276 23.9436 15.9536C23.9547 15.6111 23.9467 15.2659 23.9222 14.9206C23.9169 14.8157 23.906 14.7107 23.8951 14.6057C23.8924 14.5919 23.8924 14.5753 23.8896 14.556C23.8896 14.556 23.8896 14.556 23.8869 14.5532C23.8841 14.5339 23.8814 14.509 23.8787 14.4897C23.8569 14.3185 23.8242 14.1472 23.7914 13.9815C23.7532 13.7937 23.7123 13.6087 23.6604 13.4236C23.8958 13.2854 24.1176 13.1167 24.3257 12.9233C24.3612 12.8929 24.3968 12.857 24.4297 12.8238C24.5995 12.6525 24.7665 12.4728 24.9363 12.3015L29.0846 8.11437C29.0901 8.10888 29.0983 8.10608 29.1038 8.10059C29.8993 9.56133 30.4649 11.1603 30.7514 12.7981C31.1033 14.7894 31.083 16.8252 30.6823 18.8086C30.3777 20.3252 29.835 21.8005 29.0954 23.16C29.0926 23.1572 29.0926 23.1572 29.0926 23.1628Z" fill="white"/>
<path d="M6.53705 18.3404C6.58634 18.2907 6.63287 18.2437 6.68489 18.1967C6.89301 18.0032 7.11475 17.8401 7.35019 17.7019C7.29556 17.4975 7.24919 17.2904 7.20821 17.0832C7.1755 16.912 7.14546 16.7435 7.12368 16.5723C7.12096 16.5529 7.11824 16.5391 7.11824 16.5281C7.11552 16.5032 7.11552 16.4811 7.11008 16.459C7.09919 16.3541 7.0883 16.2491 7.08286 16.1441C7.05842 15.7989 7.05318 15.4564 7.06704 15.1111C7.07259 14.9399 7.08363 14.7686 7.10016 14.5973C7.10566 14.5586 7.10843 14.5227 7.11115 14.4813C7.11115 14.4813 7.11393 14.4675 7.11393 14.4509C7.11665 14.4316 7.12769 14.3487 7.12769 14.3432C7.13591 14.2852 7.14417 14.2272 7.15511 14.1719C7.20456 13.8736 7.26495 13.5752 7.34722 13.2824C7.11192 13.1389 6.89306 12.9678 6.68519 12.7801C6.47188 12.5923 6.26945 12.3881 6.06708 12.1838C5.94399 12.0595 5.82362 11.9325 5.70331 11.8111C4.82258 10.9222 3.92547 10.0443 3.04202 9.15261C2.8533 8.96213 2.66187 8.77445 2.47038 8.58117L2.46493 8.57568C2.2735 8.3824 2.09022 8.18089 1.90151 7.98486C1.87958 8.02358 1.86315 8.06225 1.84122 8.10091C1.3618 9.00442 0.969942 9.96313 0.671077 10.9439C0.10082 12.8225 -0.111004 14.8307 0.0548091 16.789C0.226066 18.8302 0.775012 20.8158 1.69898 22.6439C1.7646 22.7709 1.83023 22.8979 1.89858 23.0222C2.0875 22.8315 2.27914 22.638 2.46812 22.4473C2.65976 22.2539 2.85418 22.0631 3.04587 21.8697C3.18 21.7343 3.31418 21.5988 3.44836 21.4634L5.89356 18.9954C5.9538 18.9346 6.01403 18.8738 6.07427 18.813C6.23037 18.6555 6.38099 18.4979 6.53705 18.3404Z" fill="white"/>
<path fill-rule="evenodd" clip-rule="evenodd" d="M22.2451 28.3305L21.813 27.8943C21.4765 27.5566 21.1395 27.2195 20.8025 26.8824C20.1284 26.2082 19.4544 25.534 18.7852 24.8549C18.699 24.768 18.6136 24.6803 18.5281 24.5926C18.4426 24.505 18.3572 24.4173 18.271 24.3304C18.2559 24.3152 18.2416 24.2993 18.2272 24.2835C18.2129 24.2676 18.1985 24.2517 18.1835 24.2365C17.9866 24.0378 17.8279 23.8058 17.6912 23.5684C17.6666 23.5767 17.6365 23.5849 17.6091 23.5905C17.2697 23.6791 16.9221 23.7484 16.5718 23.7983C16.5597 23.8013 16.5491 23.8027 16.5408 23.8038C16.5342 23.8047 16.5289 23.8053 16.5253 23.8066L16.5226 23.8093H16.5171C16.4952 23.8094 16.4761 23.8121 16.4569 23.8149L16.2024 23.8399C16.0245 23.8538 15.8411 23.8622 15.6632 23.8651C15.3129 23.8708 14.9599 23.8572 14.6124 23.827C14.5741 23.8215 14.5385 23.8188 14.4974 23.816C14.4962 23.8147 14.4881 23.814 14.4772 23.8131C14.4649 23.8121 14.449 23.8107 14.4345 23.8078C14.4154 23.805 14.3962 23.8023 14.3852 23.8023C14.362 23.7981 14.338 23.7947 14.3141 23.7913C14.2901 23.7878 14.2662 23.7844 14.2429 23.7802C14.0651 23.75 13.8872 23.7197 13.7093 23.6783C13.5698 23.6481 13.433 23.615 13.2989 23.5791C13.1619 23.8168 13.0004 24.0406 12.8087 24.2507C12.794 24.2655 12.7799 24.281 12.7655 24.2969C12.7505 24.3135 12.7351 24.3304 12.7183 24.3474C12.6827 24.3833 12.6444 24.4165 12.6061 24.4441L8.34 28.75C8.23319 28.8578 8.12915 28.9684 8.02783 29.0761C8.75281 29.4763 9.51065 29.8156 10.2877 30.0968C12.1182 30.7615 14.0993 31.0642 16.0451 30.9885C18.0703 30.91 20.0519 30.4338 21.8996 29.5958C22.2582 29.4326 22.6058 29.2584 22.948 29.0676L22.2314 28.3443L22.2451 28.3305ZM13.6955 29.3793C13.7335 29.3803 13.7647 29.3812 13.7923 29.3855C13.7923 29.3855 13.7346 29.3883 13.6008 29.3754C13.6369 29.3777 13.668 29.3786 13.6955 29.3793Z" fill="white"/>
<path fill-rule="evenodd" clip-rule="evenodd" d="M24.1542 10.8828C24.2747 10.7557 24.3979 10.6313 24.5211 10.5069L28.0917 6.903C28.1245 6.86982 28.1574 6.8422 28.193 6.81732C28.2149 6.79524 28.2368 6.77311 28.256 6.74823C28.2834 6.71506 28.3135 6.67914 28.3436 6.64877C28.3513 6.64094 28.3582 6.62881 28.3642 6.61819C28.3688 6.61 28.3729 6.60264 28.3765 6.59901C28.3929 6.56864 28.4107 6.53961 28.4285 6.51064C28.4463 6.48161 28.4641 6.45259 28.4806 6.42216C28.4967 6.3907 28.5108 6.35795 28.5248 6.32509C28.5466 6.27434 28.5685 6.22324 28.5984 6.17628C28.5874 6.19287 28.5765 6.20945 28.571 6.22049C28.5751 6.2108 28.5799 6.20043 28.5847 6.19007C28.5895 6.17975 28.5943 6.16939 28.5984 6.15969C28.6052 6.13896 28.6114 6.11756 28.6176 6.09615C28.6237 6.07474 28.6299 6.05334 28.6368 6.03261C28.667 5.91936 28.6916 5.80611 28.7109 5.6928C28.7136 5.67347 28.7164 5.65968 28.7191 5.65139C28.7191 5.61822 28.7191 5.5851 28.7164 5.57126C28.7219 5.48289 28.7192 5.39172 28.7165 5.3061C28.7148 5.29729 28.7153 5.28386 28.7159 5.2681C28.7162 5.25929 28.7166 5.24976 28.7166 5.23981L28.7221 5.22877C28.7221 5.22877 28.7001 5.24535 28.7276 5.21773C28.7221 5.21218 28.7166 5.20114 28.7166 5.18461C28.7157 5.18181 28.7145 5.17937 28.7133 5.17694C28.7108 5.17201 28.7084 5.16709 28.7084 5.15973C28.6893 5.04648 28.662 4.93603 28.6292 4.82552C28.6183 4.7924 28.6074 4.75928 28.5937 4.72337C28.588 4.706 28.5815 4.68781 28.5746 4.67014C28.5803 4.68351 28.5859 4.69683 28.591 4.70958C28.591 4.66122 28.5339 4.56917 28.4954 4.50713C28.4855 4.49122 28.4769 4.47727 28.4707 4.46654C28.4367 4.40202 28.3992 4.34417 28.3611 4.28519C28.3503 4.26845 28.3394 4.25166 28.3286 4.2346C28.3231 4.22356 28.3176 4.21807 28.3121 4.21252C28.308 4.20838 28.3039 4.20288 28.2998 4.19734C28.2958 4.19184 28.2916 4.1863 28.2875 4.18215C28.2574 4.14628 28.2274 4.11037 28.1945 4.07725L28.1207 4.00271L27.9894 3.87018L27.4424 3.31808L27.0322 2.90401C27.0021 2.87363 26.9692 2.84046 26.9364 2.81289L26.8133 2.70524C26.812 2.70384 26.8092 2.70249 26.8065 2.70109C26.8037 2.69969 26.801 2.69834 26.7996 2.69694C26.723 2.64729 26.6465 2.59759 26.5698 2.55343C26.5592 2.54726 26.5454 2.5385 26.5296 2.52855C26.4682 2.48967 26.377 2.43204 26.3291 2.43204C26.3523 2.44168 26.3715 2.44997 26.3858 2.45619C26.4002 2.46241 26.4098 2.46656 26.4139 2.46791L26.4091 2.4664C26.4005 2.46386 26.3877 2.45998 26.3674 2.44862C26.351 2.44308 26.3339 2.43686 26.3168 2.43069C26.2997 2.42447 26.2826 2.41825 26.2661 2.41276C26.2333 2.40172 26.2005 2.39068 26.1649 2.38244C26.0719 2.35486 25.9761 2.33558 25.8831 2.31905C25.8694 2.3163 25.8564 2.31423 25.8434 2.31215C25.8304 2.31013 25.8174 2.30806 25.8037 2.30531C25.7939 2.30531 25.7844 2.30568 25.7757 2.30599C25.7601 2.30661 25.7468 2.30708 25.738 2.30531C25.6504 2.29987 25.5629 2.29992 25.4753 2.30547C25.4663 2.30547 25.4249 2.30635 25.3877 2.30713C25.3573 2.30775 25.3297 2.30832 25.3248 2.30832C25.3265 2.30998 25.332 2.30967 25.3409 2.3091C25.3469 2.30873 25.3543 2.30832 25.3631 2.30832C25.4349 2.30827 25.4075 2.31024 25.369 2.31304C25.3429 2.3149 25.3117 2.31713 25.3029 2.31941C25.2071 2.3388 25.1113 2.35818 25.0183 2.38586C24.9745 2.3969 24.9334 2.41074 24.8923 2.42457C24.8759 2.43012 24.854 2.44116 24.8321 2.45225C24.8431 2.44671 24.8595 2.43567 24.8759 2.42457C24.8361 2.44992 24.7908 2.46962 24.7454 2.48931C24.7066 2.50621 24.6677 2.5231 24.6323 2.54353C24.5913 2.56576 24.5531 2.5908 24.5155 2.61542C24.4877 2.63356 24.4604 2.65149 24.4324 2.66792C24.4311 2.66932 24.429 2.66999 24.427 2.67067C24.4249 2.67139 24.4229 2.67207 24.4215 2.67347L24.4078 2.68725C24.3914 2.70109 24.3756 2.7156 24.3599 2.73012C24.3442 2.74463 24.3284 2.75914 24.312 2.77293C24.2572 2.82269 24.2024 2.87244 24.1504 2.92495C24.1463 2.92909 24.1429 2.93397 24.1395 2.93879C24.136 2.94361 24.1326 2.94843 24.1285 2.95257C24.0984 2.983 24.069 3.0155 24.0395 3.04794C24.0101 3.08044 23.9806 3.11288 23.9506 3.14331L20.8892 6.23314C20.6675 6.457 20.4457 6.6809 20.2211 6.90196C20.1294 6.99458 20.037 7.08648 19.9446 7.17837C19.8522 7.27027 19.7597 7.36216 19.668 7.45473L19.3997 7.7256C19.3884 7.7369 19.3767 7.74685 19.3653 7.75654C19.349 7.77049 19.3332 7.78391 19.3203 7.80018C19.2898 7.83097 19.264 7.86176 19.2363 7.89478L19.2299 7.90245C19.2272 7.90525 19.2244 7.90939 19.2217 7.91354C19.2189 7.91768 19.2162 7.92178 19.2134 7.92458C19.1641 8.0215 19.169 7.99921 19.193 7.95894C19.1774 7.98392 19.1598 8.00673 19.1423 8.02959C19.1321 8.04498 19.1213 8.05975 19.1108 8.07427C19.0986 8.09095 19.0868 8.10723 19.0765 8.1235C19.0434 8.18161 19.0136 8.2408 18.9835 8.30035C18.9664 8.33435 18.9492 8.36851 18.9313 8.40256C18.9286 8.40536 18.9286 8.41085 18.9286 8.41085C18.9241 8.42438 18.9192 8.43749 18.9144 8.45029C18.9074 8.46885 18.9006 8.48684 18.8957 8.50482C18.8628 8.60428 18.8354 8.70369 18.8161 8.8059C18.8134 8.82249 18.81 8.83975 18.8065 8.85706C18.8031 8.87432 18.7997 8.89158 18.7969 8.90817L18.7959 8.91465C18.7728 8.93813 18.7768 9.06905 18.7794 9.15498C18.7803 9.18577 18.7811 9.21081 18.7803 9.22304C18.7803 9.29094 18.7851 9.35723 18.7898 9.42191C18.7912 9.4414 18.7926 9.46073 18.7939 9.47991C18.7952 9.48131 18.7952 9.48266 18.7952 9.48406C18.7952 9.48546 18.7952 9.4868 18.7966 9.4882C18.8021 9.51308 18.8068 9.53863 18.8116 9.56413C18.8164 9.58969 18.8212 9.61524 18.8266 9.64012C18.8458 9.72574 18.8676 9.80857 18.8949 9.89145C18.8962 9.89637 18.8979 9.90311 18.8998 9.91099C18.9095 9.95141 18.9267 10.0221 18.9495 10.0406C18.9277 9.98531 18.9168 9.95768 18.914 9.94939C18.9155 9.9509 18.9178 9.95644 18.9217 9.96598C18.9251 9.97411 18.9296 9.98516 18.9359 9.9991C18.9386 10.0074 18.9427 10.0157 18.9468 10.024C18.9509 10.0323 18.955 10.0406 18.9578 10.0489C18.9933 10.1289 19.0371 10.2062 19.0808 10.2835C19.0955 10.3074 19.112 10.3314 19.1287 10.3557C19.1429 10.3763 19.1572 10.3973 19.171 10.4188C19.1717 10.4196 19.1733 10.4216 19.1756 10.4245C19.1817 10.4322 19.1927 10.4462 19.2066 10.4602C19.2367 10.4906 19.2749 10.5569 19.2749 10.5569C19.319 10.6118 19.3655 10.6643 19.4099 10.7143L19.4172 10.7225C19.7727 11.1145 20.1638 11.4817 20.5495 11.8433C20.5526 11.8465 20.5636 11.8553 20.5779 11.8667C20.613 11.8947 20.6683 11.9389 20.678 11.9565C20.6808 11.9593 20.6842 11.9614 20.6876 11.9634C20.691 11.9655 20.6945 11.9676 20.6972 11.9703C20.7765 12.0228 20.8559 12.0752 20.9379 12.1193C20.9768 12.1412 21.0157 12.1595 21.056 12.1785L21.0884 12.1938C21.2088 12.2545 21.0857 12.2021 21.0583 12.1856C21.1252 12.2269 21.2208 12.2493 21.3053 12.2691C21.328 12.2744 21.3499 12.2795 21.3703 12.2848C21.4222 12.2986 21.477 12.3096 21.5317 12.3206C21.5371 12.3206 21.5426 12.322 21.5481 12.3234C21.5536 12.3248 21.559 12.3261 21.5645 12.3261C21.6122 12.3192 21.6737 12.3284 21.7312 12.3369C21.766 12.3421 21.7993 12.3471 21.8272 12.3481C21.9175 12.3508 22.0106 12.3452 22.1036 12.3397C22.1266 12.3379 22.1496 12.336 22.1732 12.3335L22.1693 12.3341C22.155 12.3361 22.1406 12.3383 22.1255 12.3396C22.1479 12.3425 22.1789 12.3366 22.2093 12.3291L22.2131 12.3285L22.2105 12.3288C22.2221 12.3259 22.2337 12.3228 22.2446 12.3198C22.2606 12.3155 22.2753 12.3115 22.287 12.3091C22.3965 12.287 22.5005 12.2538 22.6045 12.2206C22.614 12.2186 22.6223 12.2154 22.6291 12.2126C22.6321 12.2114 22.6348 12.2103 22.6373 12.2095C22.6866 12.1874 22.7386 12.1625 22.7851 12.1376C22.8782 12.0878 22.9686 12.0298 23.0562 11.969C23.0594 11.9657 23.0635 11.9634 23.067 11.9616C23.0694 11.9602 23.0715 11.9591 23.0726 11.9579C23.0774 11.9555 23.0812 11.9531 23.0846 11.9509C23.0889 11.9481 23.0926 11.9456 23.0972 11.9441L23.1246 11.9165C23.1465 11.8971 23.1677 11.8771 23.1889 11.8571C23.2101 11.8371 23.2314 11.817 23.2533 11.7976C23.3793 11.6815 23.4997 11.5599 23.6202 11.4383C23.7955 11.2559 23.9735 11.0707 24.1542 10.8828ZM28.5206 6.37127C28.5257 6.36619 28.5332 6.35349 28.5445 6.33442C28.5559 6.31534 28.571 6.28984 28.5912 6.25931C28.5609 6.31021 28.5307 6.36111 28.5206 6.37127ZM24.7899 2.54472C24.8088 2.53326 24.8341 2.51797 24.8643 2.49766C24.8139 2.52818 24.7634 2.55871 24.7534 2.56892C24.7584 2.56384 24.771 2.55617 24.7899 2.54472Z" fill="#B5C2D7"/>
<path d="M6.88189 28.1736C6.87367 28.1819 6.86273 28.1985 6.85452 28.2068C6.79977 28.2621 6.74226 28.3146 6.68475 28.3671C6.65738 28.3947 6.62729 28.4196 6.59714 28.4445C6.58893 28.4528 6.58343 28.4583 6.57249 28.4639C6.56428 28.4666 6.55606 28.4749 6.54512 28.4805C6.48489 28.5136 6.43015 28.5523 6.36991 28.5855C6.32339 28.6104 6.27409 28.638 6.22484 28.6601C6.21663 28.6629 6.21391 28.6657 6.20569 28.6684C6.1318 28.6712 6.02776 28.7321 5.95936 28.7515C5.85532 28.7791 5.75406 28.7985 5.6473 28.8179C5.62542 28.8235 5.61176 28.8262 5.60899 28.829C5.55974 28.829 5.50228 28.8263 5.47491 28.8263C5.38458 28.8291 5.29975 28.8264 5.2122 28.8209C5.19576 28.8209 5.17389 28.821 5.15746 28.821C5.11915 28.8155 5.07812 28.8017 5.04525 28.7962C4.9577 28.7797 4.87564 28.7576 4.78809 28.73C4.73607 28.7162 4.68682 28.6942 4.63485 28.6804C4.63485 28.6804 4.63213 28.6776 4.62936 28.6804C4.6102 28.6721 4.59105 28.6638 4.57467 28.6528C4.49256 28.6142 4.41599 28.57 4.33666 28.5231C4.29013 28.4928 4.24361 28.4624 4.19986 28.4348C4.19436 28.4293 4.18892 28.4293 4.1862 28.4265C4.10414 28.3548 4.02752 28.283 3.95096 28.2112C3.79233 28.0511 3.63366 27.891 3.47503 27.7309L2.9417 27.1926C2.90339 27.1539 2.86236 27.1125 2.8241 27.0738C2.7803 27.0297 2.71195 26.9662 2.67092 26.9082C2.6627 26.8889 2.64904 26.864 2.63811 26.8475C2.59985 26.7867 2.55882 26.7232 2.52328 26.6597C2.49047 26.5989 2.40569 26.4858 2.40302 26.4167C2.41396 26.4443 2.42762 26.4747 2.43856 26.5023C2.42762 26.4692 2.41396 26.4332 2.40302 26.4001C2.38936 26.3587 2.3757 26.3172 2.36476 26.2731C2.33744 26.1792 2.31562 26.0853 2.29924 25.9858C2.29924 25.9803 2.29652 25.9721 2.29652 25.9665C2.30201 25.9278 2.28563 25.8505 2.28296 25.8146C2.27752 25.7096 2.28034 25.6019 2.28584 25.4969C2.28861 25.4886 2.28589 25.4362 2.28589 25.4086C2.28589 25.4141 2.28589 25.4251 2.28589 25.4362C2.28584 25.5577 2.29138 25.3975 2.29688 25.3754C2.31608 25.2677 2.34078 25.1655 2.37093 25.0633C2.38191 25.0301 2.39013 24.9942 2.40107 24.961C2.40934 24.9362 2.41755 24.9113 2.42577 24.8864C2.46962 24.7925 2.51343 24.6985 2.5655 24.6129C2.58465 24.577 2.60658 24.5438 2.63123 24.5134C2.62573 24.5189 2.62301 24.5272 2.62029 24.53C2.63123 24.5189 2.68874 24.4333 2.70245 24.4195C2.71339 24.4084 2.72433 24.3918 2.73526 24.3808C2.79006 24.32 2.85029 24.2647 2.91053 24.2039C2.96532 24.1486 3.02555 24.0988 3.08301 24.0408L3.83603 23.2808L3.83875 23.2836C3.83875 23.2836 3.84697 23.2753 3.84425 23.2725L3.87983 23.2366C4.87107 22.2361 5.85681 21.2246 6.84805 20.2241C7.03152 20.0389 7.21223 19.8565 7.39843 19.6741C7.49153 19.5802 7.58191 19.4889 7.67773 19.3978C7.69688 19.3784 7.71059 19.359 7.72703 19.3425C7.77627 19.2927 7.83106 19.2485 7.88308 19.2015C7.89402 19.1904 7.90224 19.1821 7.91045 19.1739C7.91867 19.1711 7.92689 19.1628 7.93782 19.1573C7.94876 19.1517 7.95698 19.1435 7.96519 19.1407C8.0528 19.0854 8.13496 19.0301 8.22801 18.9803C8.26909 18.961 8.31012 18.9361 8.35392 18.9195C8.35665 18.9223 8.49355 18.8725 8.51815 18.8642C8.60575 18.8365 8.69608 18.8171 8.78641 18.7977C8.80006 18.7949 8.82199 18.7894 8.84387 18.7839C8.87673 18.7783 8.91227 18.7811 8.94241 18.7783C9.04368 18.7699 9.14217 18.7699 9.24343 18.7726C9.29817 18.7726 9.35291 18.7781 9.4076 18.7836C9.4131 18.7835 9.42131 18.7863 9.42953 18.7891C9.53624 18.8138 9.64295 18.8331 9.75238 18.8662C9.79618 18.8772 9.83993 18.8938 9.88373 18.9103C9.90561 18.9158 9.92748 18.9213 9.94392 18.9213C10.026 18.9545 10.1163 19.0234 10.1792 19.0593C10.2093 19.0786 10.2448 19.098 10.2749 19.1173C10.3078 19.1393 10.3379 19.1587 10.3707 19.1807C10.3899 19.1945 10.4035 19.2028 10.4117 19.2111C10.4035 19.2028 10.3789 19.1835 10.3433 19.1587C10.4337 19.189 10.5212 19.316 10.5895 19.385C10.6551 19.4513 10.7208 19.5175 10.7892 19.5865C11.0982 19.8985 11.4155 20.2077 11.7191 20.5252C11.7601 20.5666 11.7957 20.6135 11.8367 20.6549C11.8422 20.6605 11.8449 20.6632 11.8504 20.6687L11.8531 20.6715C11.9051 20.7516 11.9598 20.8289 12.0035 20.9117C12.0308 20.9614 12.0582 21.0111 12.08 21.0608C12.0882 21.0746 12.1019 21.0995 12.1156 21.1243C12.1538 21.2072 12.1729 21.3149 12.1948 21.3977C12.2139 21.4668 12.2658 21.5966 12.2494 21.6684C12.2467 21.638 12.2412 21.6104 12.2385 21.58C12.2412 21.6159 12.2467 21.6546 12.2493 21.6905C12.2548 21.7457 12.2548 21.801 12.2574 21.859C12.2602 21.9502 12.2546 22.0441 12.2491 22.138C12.2464 22.1573 12.2464 22.1739 12.2436 22.1932C12.2436 22.2043 12.2409 22.2126 12.2409 22.2181C12.2436 22.2043 12.2464 22.185 12.2491 22.1601C12.26 22.2208 12.2217 22.3203 12.2079 22.3783C12.1887 22.4694 12.1531 22.5496 12.1284 22.6407C12.1257 22.6546 12.1202 22.6656 12.1147 22.6711C12.1092 22.6767 12.112 22.6905 12.1065 22.7015C12.0736 22.7623 12.049 22.8259 12.0188 22.8839C11.9777 22.9585 11.9339 23.0303 11.8873 23.0994C11.8819 23.1049 11.8819 23.1105 11.8764 23.116C11.8819 23.1049 11.8024 23.2127 11.7888 23.2265C11.7696 23.2459 11.7504 23.2707 11.7313 23.2901C11.6984 23.3122 11.6655 23.3398 11.6327 23.373L7.07907 27.9691C7.00513 28.0382 6.94762 28.1073 6.88189 28.1736Z" fill="#B5C2D7"/>
<path fill-rule="evenodd" clip-rule="evenodd" d="M11.793 10.3684C11.7546 10.4127 11.7135 10.4541 11.6725 10.4956C11.6369 10.5315 11.6067 10.5674 11.5903 10.6061L10.7607 11.4435C10.7333 11.4712 10.7045 11.4974 10.6758 11.5237C10.647 11.5499 10.6183 11.5762 10.5909 11.6038C10.5868 11.608 10.5827 11.6108 10.5786 11.6135C10.5745 11.6163 10.5704 11.6191 10.5663 11.6232C10.5252 11.6646 10.4814 11.7033 10.4376 11.7421C10.4266 11.7504 10.417 11.7586 10.4074 11.7669C10.3979 11.7752 10.3883 11.7835 10.3773 11.7918L10.3746 11.7946C10.2952 11.8471 10.2186 11.8968 10.1364 11.9466C10.1256 11.9524 10.1147 11.9583 10.1036 11.9643C10.0669 11.9842 10.0286 12.0049 9.9886 12.024C9.9886 12.024 9.98039 12.0268 9.96945 12.0323C9.96534 12.0337 9.94208 12.0434 9.91882 12.0531C9.8955 12.0627 9.87224 12.0724 9.86813 12.0738C9.81617 12.0932 9.76143 12.1098 9.70941 12.1236C9.69333 12.1279 9.66026 12.1325 9.62113 12.1378C9.53363 12.1499 9.41568 12.1661 9.38918 12.1929C9.38507 12.1942 9.38096 12.1943 9.37686 12.1943C9.37275 12.1943 9.36864 12.1943 9.36453 12.1956C9.33716 12.1957 9.30979 12.1971 9.28242 12.1985C9.25505 12.1999 9.22768 12.2012 9.20036 12.2013C9.10731 12.2013 9.01426 12.2014 8.92394 12.1931C8.91438 12.1917 8.90545 12.1911 8.89657 12.1904C8.88768 12.1897 8.8788 12.189 8.8692 12.1877C8.86319 12.1865 8.85774 12.1858 8.85281 12.1852C8.84645 12.1844 8.841 12.1837 8.83638 12.1822C8.83366 12.1822 8.83161 12.1814 8.82955 12.1808C8.8275 12.1801 8.82544 12.1794 8.82267 12.1794C8.81995 12.1822 8.81723 12.1794 8.81723 12.1794C8.80388 12.1767 8.79058 12.1727 8.7782 12.169C8.76516 12.1651 8.75319 12.1615 8.74333 12.1601C8.66739 12.1448 8.59539 12.1229 8.52278 12.1007C8.49074 12.091 8.45859 12.0812 8.42593 12.0719C8.41227 12.0691 8.40133 12.0636 8.39584 12.0581C8.39301 12.0552 8.38793 12.0546 8.38223 12.0539C8.37689 12.0532 8.37099 12.0525 8.36575 12.0498C8.34418 12.0395 8.32215 12.0307 8.30027 12.0218C8.26931 12.0094 8.2386 11.997 8.20979 11.9808C8.12773 11.9367 8.0484 11.8843 7.96906 11.8318C7.96634 11.8291 7.96289 11.827 7.95951 11.8249C7.95607 11.8229 7.95262 11.8208 7.9499 11.818C7.95617 11.8228 7.95124 11.8189 7.94071 11.8107C7.91442 11.7902 7.853 11.7423 7.84325 11.7325C7.80771 11.7021 7.77213 11.6717 7.73931 11.6386C7.72971 11.629 7.72149 11.6179 7.71333 11.6069C7.70511 11.5958 7.6969 11.5848 7.68734 11.5751C7.63912 11.5264 7.59229 11.4778 7.54582 11.4295C7.50001 11.3819 7.45452 11.3346 7.40835 11.288C7.35094 11.2245 7.28804 11.161 7.22785 11.1003L3.90716 7.74862C3.92622 7.71643 3.94075 7.68533 3.95045 7.66455C3.95682 7.65092 3.96114 7.64164 3.96329 7.63946C3.96329 7.63946 3.93746 7.66553 3.90357 7.74499L3.09237 6.92622C3.06639 6.9 3.03902 6.87517 3.0117 6.85034C2.98433 6.82546 2.95696 6.80064 2.93098 6.77441C2.87629 6.71921 2.82432 6.66676 2.77235 6.60876C2.75869 6.59218 2.74431 6.57631 2.72999 6.56045C2.71561 6.54459 2.70128 6.52868 2.68757 6.51215L2.67119 6.49556C2.67391 6.49282 2.67119 6.49007 2.66847 6.48727C2.65476 6.46244 2.63838 6.43896 2.62194 6.41549C2.60556 6.39201 2.58913 6.36858 2.57547 6.3437C2.57054 6.33473 2.56551 6.32566 2.56048 6.31654C2.53747 6.27508 2.51364 6.23206 2.49346 6.18909C2.48525 6.1725 2.47842 6.15592 2.47159 6.13938C2.46476 6.1228 2.45793 6.10621 2.44971 6.08968C2.44345 6.07568 2.43893 6.06464 2.43554 6.05651C2.43163 6.04697 2.42932 6.04142 2.42789 6.03997C2.42789 6.0449 2.43882 6.06977 2.45685 6.11067C2.45895 6.11544 2.46111 6.12036 2.46342 6.12554C2.42922 6.09921 2.40991 6.00431 2.39553 5.93387C2.39035 5.90843 2.38578 5.88614 2.38146 5.87147C2.37797 5.85649 2.37438 5.84141 2.37083 5.82627C2.35204 5.74666 2.33283 5.66544 2.32138 5.58428C2.31866 5.56489 2.31594 5.55111 2.3105 5.54007C2.30906 5.51825 2.30988 5.49565 2.3106 5.47637C2.31127 5.459 2.31183 5.44423 2.31055 5.43511C2.3051 5.33015 2.30793 5.2224 2.31342 5.11744C2.3162 5.10365 2.3162 5.08152 2.31348 5.06219C2.31512 5.04104 2.32149 5.01704 2.32755 4.99408C2.33181 4.97807 2.33592 4.96257 2.33818 4.94894C2.35738 4.86331 2.37931 4.77489 2.40401 4.68927C2.41433 4.64977 2.42773 4.61028 2.44078 4.57192C2.44504 4.55933 2.44925 4.54684 2.45336 4.53455L2.45608 4.53181C2.45336 4.52901 2.45608 4.52626 2.4588 4.52351C2.50265 4.42405 2.55472 4.32733 2.60952 4.23337C2.62641 4.20113 2.64726 4.17018 2.66836 4.13872C2.67802 4.12437 2.68772 4.10996 2.69717 4.09524C2.6944 4.09244 2.69717 4.08969 2.69989 4.08694C2.76013 4.01511 2.82036 3.94322 2.88882 3.87413L2.99835 3.76357L3.54052 3.21635L3.98414 2.76863C4.00216 2.75044 4.02132 2.72971 4.04135 2.70809C4.09126 2.65419 4.14651 2.59448 4.20315 2.55307C4.22231 2.54478 4.25245 2.53094 4.26888 2.5199C4.31541 2.48947 4.36193 2.45905 4.40846 2.43417C4.42283 2.42546 4.44024 2.41396 4.4595 2.40121C4.53196 2.35321 4.63106 2.28764 4.69592 2.28759C4.68221 2.29314 4.66783 2.29936 4.65351 2.30558C4.63913 2.3118 4.62475 2.31802 4.61104 2.32356C4.64662 2.30973 4.67949 2.29868 4.71235 2.28759C4.73397 2.2792 4.75559 2.27282 4.77659 2.26665C4.79015 2.26266 4.80345 2.25872 4.81634 2.25442C4.91761 2.22395 5.01887 2.19907 5.12563 2.17963C5.13585 2.17963 5.14612 2.17751 5.15701 2.17517C5.16358 2.17383 5.17041 2.17237 5.17765 2.17134C5.18581 2.16854 5.19403 2.16579 5.19952 2.16579C5.20995 2.16579 5.22145 2.16688 5.22987 2.16771C5.23475 2.16818 5.23855 2.16854 5.24055 2.16854C5.36375 2.16019 5.48689 2.15734 5.61003 2.16553C5.61275 2.16279 5.63462 2.16279 5.65927 2.16553C5.66297 2.16605 5.66687 2.16657 5.67088 2.16714C5.68782 2.16942 5.70729 2.17212 5.72495 2.17652C5.82894 2.1986 5.93292 2.22063 6.03414 2.25095C6.07245 2.26199 6.10531 2.27298 6.13812 2.28402C6.15456 2.28956 6.18465 2.2978 6.20925 2.30055C6.28427 2.33082 6.36607 2.38177 6.43391 2.42401C6.44033 2.42805 6.44659 2.43194 6.45275 2.43578C6.49173 2.4576 6.53065 2.48289 6.56829 2.50756C6.57405 2.51202 6.58606 2.52078 6.60008 2.53104C6.62884 2.55203 6.66597 2.57909 6.67434 2.58759C6.68086 2.59417 6.68861 2.60075 6.69678 2.60765C6.70566 2.61516 6.71501 2.62309 6.72358 2.63175C6.77555 2.67865 6.82752 2.73111 6.87676 2.78081C6.88221 2.78631 6.88631 2.7932 6.89042 2.80015C6.89453 2.80704 6.89859 2.81393 6.90408 2.81948C6.93792 2.85364 6.9711 2.88981 7.00463 2.92641C7.03878 2.96367 7.07328 3.0013 7.10923 3.03753L11.2747 7.24197L11.3432 7.31096C11.3879 7.35616 11.434 7.40094 11.4802 7.44577C11.5496 7.5132 11.6193 7.5809 11.685 7.65056C11.7342 7.70021 11.7808 7.75266 11.8272 7.80511L11.8546 7.83274C11.8561 7.83741 11.8585 7.84119 11.8613 7.84554C11.8634 7.84896 11.8659 7.85275 11.8683 7.85762C11.871 7.86037 11.873 7.86379 11.8751 7.86726C11.8772 7.87073 11.8792 7.87415 11.8819 7.8769C11.9393 7.96252 11.9967 8.05364 12.046 8.14751C12.0632 8.17793 12.077 8.20836 12.0914 8.24013C12.0953 8.24873 12.0993 8.25744 12.1034 8.26625C12.1061 8.28009 12.1362 8.36566 12.1444 8.385C12.1799 8.4927 12.2045 8.60045 12.2263 8.71091L12.2345 8.75232C12.24 8.77994 12.2481 8.82136 12.2481 8.84349C12.2535 8.95399 12.2589 9.06444 12.2534 9.17495C12.2534 9.2302 12.2479 9.28545 12.2424 9.3407C12.2423 9.36827 12.2451 9.38211 12.2478 9.39041C12.2365 9.47033 12.2026 9.56912 12.1773 9.64313C12.172 9.65863 12.1671 9.67304 12.1628 9.68599C12.1566 9.71305 12.1473 9.74011 12.1384 9.76602C12.1355 9.77447 12.1326 9.78281 12.1299 9.79095C12.1274 9.79842 12.1244 9.8064 12.1214 9.81443C12.1152 9.8843 12.057 9.97438 12.01 10.0473C11.994 10.0721 11.9792 10.0949 11.9683 10.1142C11.9633 10.123 11.9583 10.132 11.9533 10.1411C11.9219 10.1975 11.8882 10.258 11.8505 10.3104L11.793 10.3684ZM6.56829 2.50756C6.57112 2.50943 6.57394 2.51124 6.57682 2.51311C6.58385 2.51772 6.59084 2.52233 6.59772 2.52684C6.57584 2.51026 6.56491 2.50476 6.56491 2.50476C6.56542 2.50523 6.56655 2.50621 6.56829 2.50756ZM3.90357 7.74499C3.90003 7.75334 3.89638 7.76225 3.89268 7.77179C3.89777 7.76407 3.90259 7.75629 3.90716 7.74862L3.90357 7.74499Z" fill="#B5C2D7"/>
<path d="M28.1213 26.9436C28.1186 26.9464 28.1131 26.9464 28.1131 26.9519L27.0041 28.0712C26.9631 28.1127 26.9247 28.1513 26.8809 28.19C26.8508 28.2149 26.8261 28.2398 26.7961 28.2647C26.7248 28.3199 26.7385 28.3116 26.8316 28.2398C26.8124 28.2923 26.6482 28.3642 26.6016 28.3891C26.5195 28.4388 26.4319 28.4776 26.3471 28.519C26.2978 28.5357 26.2485 28.5522 26.1993 28.5688C26.098 28.5993 25.9967 28.6242 25.89 28.6436C25.8709 28.6464 25.8626 28.6547 25.8462 28.6602C25.8271 28.6629 25.8188 28.6657 25.8133 28.6712C25.7805 28.6492 25.7915 28.6657 25.7915 28.6657C25.7641 28.6657 25.7367 28.6603 25.7231 28.6631C25.6355 28.6686 25.5452 28.6659 25.4576 28.6604C25.4439 28.6577 25.4138 28.6605 25.3865 28.6605C25.3536 28.655 25.3208 28.6495 25.2852 28.6467C25.1785 28.6274 25.0772 28.6026 24.976 28.5723C24.924 28.5585 24.8747 28.5364 24.8228 28.5227C24.8201 28.5199 24.8173 28.5227 24.8146 28.5199C24.727 28.4813 24.6422 28.4399 24.5574 28.3875C24.5191 28.3654 24.4836 28.3406 24.448 28.3157C24.4507 28.3185 24.4397 28.3074 24.3878 28.2771L24.3851 28.2743C24.3577 28.2467 24.3249 28.2191 24.2948 28.1888C24.2374 28.1363 24.1854 28.0838 24.1307 28.0286C24.0021 27.8989 23.879 27.7636 23.7505 27.6339C23.745 27.6284 23.7396 27.6228 23.7314 27.6145L23.2035 27.0818C23.2445 27.0513 23.3459 26.9822 23.2801 27.0154C23.2638 27.0265 23.2445 27.0347 23.2254 27.0486C23.2145 27.0541 23.2035 27.0652 23.1925 27.0707L19.5795 23.4239C19.5166 23.3604 19.4482 23.3025 19.3853 23.239C19.3634 23.2169 19.336 23.1948 19.3114 23.1699C19.2704 23.1285 19.2321 23.0844 19.1938 23.0402C19.1774 23.0181 19.1282 22.9574 19.1282 22.9574C19.1227 22.9518 19.12 22.9435 19.1146 22.9381C19.0434 22.8331 18.9778 22.7227 18.9232 22.6067C18.915 22.5874 18.9067 22.568 18.8931 22.5487C18.8958 22.5514 18.8575 22.452 18.8521 22.43C18.8221 22.3333 18.7947 22.2339 18.7756 22.1317C18.7702 22.1151 18.7675 22.0958 18.762 22.0737C18.7565 22.0406 18.7538 22.0046 18.7538 21.9715C18.7429 21.861 18.743 21.7505 18.7485 21.64C18.7486 21.5848 18.7541 21.5296 18.7596 21.4743C18.7596 21.4688 18.7623 21.4605 18.7623 21.455C18.7815 21.3638 18.798 21.2754 18.8227 21.1842C18.8364 21.1318 18.8583 21.082 18.8775 21.0295C18.8802 21.0212 18.8857 21.0157 18.8912 21.0102C18.8776 20.9688 18.9186 20.9218 18.9296 20.9052C18.9625 20.8389 18.9953 20.767 19.031 20.7035C19.0583 20.6538 19.0885 20.6068 19.1213 20.5571C19.1268 20.546 19.209 20.4465 19.1871 20.4686C19.198 20.4575 19.2035 20.4465 19.2035 20.4465C19.2419 20.4023 19.2774 20.3553 19.3158 20.3111C19.3514 20.2752 19.3843 20.2309 19.4198 20.195L19.962 19.6478C20.1099 19.4986 20.2632 19.3548 20.4111 19.2056C20.433 19.1835 20.4549 19.1669 20.4768 19.1448C20.5041 19.1172 20.5343 19.0923 20.5644 19.0674C20.5754 19.0564 20.5972 19.0342 20.6164 19.0149C20.6876 18.9541 20.7861 18.9043 20.8655 18.8628C20.8984 18.8462 20.9285 18.8269 20.9641 18.8075C20.9778 18.7992 21.0243 18.7743 21.0572 18.7522C21.0544 18.755 21.0517 18.7578 21.0462 18.7578C21.1174 18.719 21.2132 18.6997 21.2953 18.6775C21.3774 18.6554 21.5307 18.589 21.6182 18.6055C21.5882 18.6083 21.5608 18.6138 21.5307 18.6166C21.5662 18.6138 21.6046 18.6083 21.6401 18.6055C21.6757 18.6027 21.714 18.6027 21.7496 18.5999C21.881 18.5943 21.9987 18.6081 22.1272 18.6163C22.1464 18.619 22.1601 18.6218 22.1655 18.6273C22.2121 18.619 22.2367 18.6383 22.2586 18.6438C22.3681 18.6659 22.4748 18.6962 22.5815 18.7265C22.5952 18.7293 22.6225 18.7403 22.639 18.7458C22.68 18.7651 22.7237 18.7872 22.7648 18.8065C22.8578 18.8562 22.9454 18.9114 23.0329 18.9665C23.0466 18.9748 23.063 18.9859 23.0739 18.9969C23.0001 18.9445 23.1423 19.0604 23.1587 19.077C23.2107 19.1239 23.2572 19.1763 23.3064 19.2261L27.1355 23.0909C27.1273 23.1047 27.13 23.1241 27.1191 23.1351L27.1465 23.1075L27.7728 23.7397C27.9233 23.8915 28.0792 24.0378 28.2214 24.1979C28.2241 24.2007 28.2269 24.2034 28.2296 24.2062C28.2569 24.2338 28.2843 24.2669 28.3116 24.3001C28.3253 24.3139 28.3335 24.3221 28.339 24.3332C28.3445 24.3387 28.3472 24.347 28.3499 24.3553C28.3827 24.4161 28.4237 24.4685 28.4566 24.5293C28.4866 24.5873 28.5331 24.6563 28.5604 24.7225C28.5659 24.7447 28.5713 24.7722 28.5768 24.7888C28.5932 24.8385 28.6069 24.891 28.6232 24.9407C28.6506 25.0456 28.6697 25.1479 28.6888 25.2501C28.6888 25.2556 28.6887 25.2611 28.6887 25.2666C28.6914 25.3025 28.6942 25.3384 28.6942 25.3716C28.6996 25.4766 28.6968 25.5843 28.6912 25.6892C28.6885 25.7031 28.6912 25.7224 28.694 25.7362C28.6912 25.7611 28.683 25.7914 28.6775 25.808C28.6555 25.9296 28.6253 26.0539 28.587 26.1699C28.576 26.2031 28.5651 26.2362 28.5513 26.2721C28.5513 26.2721 28.5486 26.2749 28.5513 26.2777C28.5486 26.2804 28.5486 26.2804 28.5486 26.2859C28.4993 26.3854 28.4527 26.4821 28.3979 26.576C28.3788 26.6065 28.3623 26.6396 28.3404 26.6728C28.3295 26.6893 28.324 26.728 28.3075 26.7446C28.2527 26.8109 28.1761 26.8883 28.1213 26.9436Z" fill="#B5C2D7"/>
</svg>
