<svg width="125" height="94" viewBox="0 0 125 94" fill="none" xmlns="http://www.w3.org/2000/svg">
<path opacity="0.1" fill-rule="evenodd" clip-rule="evenodd" d="M20 0.00878906C8.95431 0.00878906 0 8.96311 0 20.0088V85.0345C0 96.0802 8.9543 105.035 20 105.035H130C141.046 105.035 150 96.0802 150 85.0345V20.0088C150 8.96309 141.046 0.00878906 130 0.00878906H20ZM134.67 17.3334C133.033 14.387 129.243 13.2846 126.204 14.8711L75 41.6005L23.7965 14.8711C20.7573 13.2846 16.9669 14.387 15.3304 17.3334C13.6939 20.2798 14.831 23.9545 17.8702 25.541L72.0369 53.8171C73.8867 54.7828 76.1133 54.7828 77.9631 53.8171L132.13 25.541C135.169 23.9545 136.306 20.2798 134.67 17.3334Z" fill="white"/>
</svg>
