<svg width="35" height="24" viewBox="0 0 35 24" fill="none" xmlns="http://www.w3.org/2000/svg">
<path fill-rule="evenodd" clip-rule="evenodd" d="M18.3947 22.7243C18.3947 23.2687 18.9521 23.6396 19.4656 23.459C21.5799 22.7152 26.7072 21.1503 33.7912 20.5766C34.1893 20.5444 34.5 20.2246 34.5 19.8252C34.5 16.7483 34.5 4.42195 34.5 1.24132C34.5 0.821298 34.1619 0.492315 33.7423 0.509814C31.6089 0.598775 25.2875 1.07605 18.8662 3.63667C18.5805 3.75057 18.3947 4.02654 18.3947 4.33404C18.3947 6.94913 18.3947 18.9523 18.3947 22.7243Z" fill="#09357A"/>
<path fill-rule="evenodd" clip-rule="evenodd" d="M16.6053 22.7243C16.6053 23.2687 16.0479 23.6396 15.5344 23.459C13.4201 22.7152 8.29283 21.1503 1.20878 20.5766C0.81072 20.5444 0.50001 20.2246 0.50001 19.8252C0.50001 16.7483 0.50001 4.42195 0.50001 1.24132C0.50001 0.821298 0.838051 0.492315 1.25771 0.509814C3.39112 0.598775 9.71248 1.07605 16.1338 3.63667C16.4195 3.75057 16.6053 4.02654 16.6053 4.33404C16.6053 6.94913 16.6053 18.9523 16.6053 22.7243Z" fill="#A4B6D4"/>
</svg>
