<svg width="34" height="24" viewBox="0 0 34 24" fill="none" xmlns="http://www.w3.org/2000/svg">
<g id="Tutorial Icon">
<g id="Group 6">
<path id="Combined Shape" fill-rule="evenodd" clip-rule="evenodd" d="M17.8948 22.7243C17.8948 23.2687 18.4521 23.6396 18.9657 23.459C21.0799 22.7152 26.2072 21.1503 33.2913 20.5766C33.6893 20.5444 34.0001 20.2246 34.0001 19.8252C34.0001 16.7483 34.0001 4.42195 34.0001 1.24132C34.0001 0.821298 33.662 0.492315 33.2423 0.509814C31.1089 0.598775 24.7876 1.07605 18.3662 3.63667C18.0806 3.75057 17.8948 4.02654 17.8948 4.33404C17.8948 6.94913 17.8948 18.9523 17.8948 22.7243Z" fill="#0355BD"/>
<path id="Path" fill-rule="evenodd" clip-rule="evenodd" d="M16.1052 22.7243C16.1052 23.2687 15.5479 23.6396 15.0343 23.459C12.9201 22.7152 7.79277 21.1503 0.708717 20.5766C0.310659 20.5444 -5.14984e-05 20.2246 -5.14984e-05 19.8252C-5.14984e-05 16.7483 -5.14984e-05 4.42195 -5.14984e-05 1.24132C-5.14984e-05 0.821298 0.33799 0.492315 0.757651 0.509814C2.89106 0.598775 9.21242 1.07605 15.6338 3.63667C15.9194 3.75057 16.1052 4.02654 16.1052 4.33404C16.1052 6.94913 16.1052 18.9523 16.1052 22.7243Z" fill="#A4B6D4"/>
</g>
</g>
</svg>
