<svg width="18" height="18" viewBox="0 0 18 18" fill="none" xmlns="http://www.w3.org/2000/svg">
<path fill-rule="evenodd" clip-rule="evenodd" d="M10.3368 8.1001C10.8339 8.1001 11.2368 8.50304 11.2368 9.0001C11.2368 9.49715 10.8339 9.9001 10.3368 9.9001L1.39997 9.9001C0.902917 9.9001 0.499974 9.49715 0.499974 9.0001C0.499974 8.50304 0.902918 8.1001 1.39997 8.1001L10.3368 8.1001Z" fill="#002F6C"/>
<path d="M6.7686 4.5C6.7686 4.99706 6.36819 5.4 5.87425 5.4C5.38032 5.4 4.9799 4.99706 4.9799 4.5V3.6C4.9799 1.61177 6.58156 0 8.5573 0H13.9226C15.8984 0 17.5 1.61177 17.5 3.6V14.4C17.5 16.3882 15.8984 18 13.9226 18L8.55109 18C6.57535 18 4.97369 16.3882 4.97369 14.4L4.97369 13.5C4.97369 13.0029 5.37411 12.6 5.86804 12.6C6.36198 12.6 6.76239 13.0029 6.76239 13.5V14.4C6.76239 15.3941 7.56322 16.2 8.55109 16.2H13.9226C14.9105 16.2 15.7113 15.3941 15.7113 14.4V3.6C15.7113 2.60589 14.9105 1.8 13.9226 1.8H8.5573C7.56943 1.8 6.7686 2.60589 6.7686 3.6V4.5Z" fill="#002F6C"/>
<path d="M8.81467 6.93649C8.46526 6.58502 8.46526 6.01517 8.81467 5.6637C9.16409 5.31223 9.73061 5.31223 10.08 5.6637L12.7642 8.3637C13.1137 8.71517 13.1137 9.28502 12.7642 9.63649L10.08 12.3365C9.73061 12.688 9.16409 12.688 8.81467 12.3365C8.46526 11.985 8.46526 11.4152 8.81467 11.0637L10.8662 9.0001L8.81467 6.93649Z" fill="#002F6C"/>
</svg>
