<svg width="10" height="5" viewBox="0 0 10 5" fill="none" xmlns="http://www.w3.org/2000/svg">
<path id="Mask" fill-rule="evenodd" clip-rule="evenodd" d="M7.16141 0.839024L7.80236 1.581C7.93944 1.74071 7.83686 1.99905 7.63758 1.99905H0.875399C0.624831 1.99905 0.5 2.22385 0.5 2.50022V2.49621C0.5 2.77258 0.624831 3.00038 0.875399 3.00038H7.63077C7.83096 3.00038 7.93309 3.27023 7.79419 3.42894L7.15687 4.15891C6.98438 4.35817 6.99209 4.67609 7.17503 4.86434L7.17594 4.86634C7.3566 5.05259 7.63985 5.04307 7.81007 4.84481L9.25221 3.1736C9.58403 2.78609 9.58221 2.18029 9.24903 1.79479L7.81961 0.153619C7.64984 -0.0426396 7.36886 -0.0521522 7.18865 0.132592L7.18411 0.137598C7.00163 0.324345 6.99164 0.63876 7.16141 0.839024Z" fill="#09357A"/>
</svg>
