<svg width="34" height="39" viewBox="0 0 34 39" fill="none" xmlns="http://www.w3.org/2000/svg">
<path opacity="0.3" fill-rule="evenodd" clip-rule="evenodd" d="M6.88095 2.22363H16.5649C17.1045 2.22363 17.6239 2.4289 18.0177 2.79779L24.8278 9.17715C25.2566 9.57891 25.5 10.1403 25.5 10.728V30.5954C25.5 33.4047 25.471 33.6026 22.869 33.6026H6.88095C4.27897 33.6026 4.25 33.4047 4.25 30.5954V5.23078C4.25 2.42152 4.27897 2.22363 6.88095 2.22363ZM9.91667 20.8987C9.91667 20.1163 10.5509 19.482 11.3333 19.482H21.25C22.0324 19.482 22.6667 20.1163 22.6667 20.8987V21.2033C22.6667 21.9857 22.0324 22.6199 21.25 22.6199H11.3333C10.5509 22.6199 9.91667 21.9857 9.91667 21.2033V20.8987ZM11.3333 25.7578C10.5509 25.7578 9.91667 26.3921 9.91667 27.1745V27.4791C9.91667 28.2615 10.5509 28.8957 11.3333 28.8957H15.5833C16.3657 28.8957 17 28.2615 17 27.4791V27.1745C17 26.3921 16.3657 25.7578 15.5833 25.7578H11.3333Z" fill="#09357A"/>
<path fill-rule="evenodd" clip-rule="evenodd" d="M9.71427 5.36182H20.8149C21.3545 5.36182 21.8739 5.56708 22.2677 5.93597L29.0777 12.3153C29.5066 12.7171 29.75 13.2785 29.75 13.8662V33.7336C29.75 36.5429 29.721 36.7408 27.119 36.7408H9.71427C7.11228 36.7408 7.08331 36.5429 7.08331 33.7336V8.36896C7.08331 5.5597 7.11228 5.36182 9.71427 5.36182ZM9.91665 20.899C9.91665 20.1166 10.5509 19.4823 11.3333 19.4823H21.25C22.0324 19.4823 22.6666 20.1166 22.6666 20.899V21.2036C22.6666 21.986 22.0324 22.6202 21.25 22.6202H11.3333C10.5509 22.6202 9.91665 21.986 9.91665 21.2036V20.899ZM11.3333 25.7581C10.5509 25.7581 9.91665 26.3924 9.91665 27.1748V27.4794C9.91665 28.2618 10.5509 28.896 11.3333 28.896H15.5833C16.3657 28.896 17 28.2618 17 27.4794V27.1748C17 26.3924 16.3657 25.7581 15.5833 25.7581H11.3333Z" fill="#09357A"/>
</svg>
