<svg width="26" height="35" viewBox="0 0 26 35" fill="none" xmlns="http://www.w3.org/2000/svg">
<path fill-rule="evenodd" clip-rule="evenodd" d="M2.88095 0.827637H12.5649C13.1045 0.827637 13.6239 1.0329 14.0177 1.40179L20.8278 7.78115C21.2566 8.18291 21.5 8.74434 21.5 9.332V29.1994C21.5 32.0087 21.471 32.2066 18.869 32.2066H2.88095C0.278968 32.2066 0.25 32.0087 0.25 29.1994V3.83478C0.25 1.02552 0.278968 0.827637 2.88095 0.827637ZM5.25 18.2443C5.25 17.4619 5.88426 16.8276 6.66667 16.8276H17.8333C18.6157 16.8276 19.25 17.4619 19.25 18.2443V27.411C19.25 28.1934 18.6157 28.8276 17.8333 28.8276H6.66667C5.88426 28.8276 5.25 28.1934 5.25 27.411V18.2443Z" fill="#A4B6D4"/>
<path fill-rule="evenodd" clip-rule="evenodd" d="M5.80357 3.82764H16.553C17.0926 3.82764 17.612 4.0329 18.0058 4.40179L24.5778 10.5581C25.0066 10.9599 25.25 11.5213 25.25 12.109V31.365C25.25 34.0916 25.2219 34.2837 22.6964 34.2837H5.80357C3.27812 34.2837 3.25 34.0916 3.25 31.365V6.74634C3.25 4.0197 3.27812 3.82764 5.80357 3.82764ZM6 18.9496C6 18.1672 6.63426 17.5329 7.41666 17.5329H16.9583C17.7407 17.5329 18.375 18.1672 18.375 18.9496V19.1619C18.375 19.9443 17.7407 20.5785 16.9583 20.5785H7.41666C6.63426 20.5785 6 19.9443 6 19.1619V18.9496ZM7.41666 23.6242C6.63426 23.6242 6 24.2585 6 25.0409V25.2532C6 26.0356 6.63426 26.6698 7.41666 26.6698H11.4583C12.2407 26.6698 12.875 26.0356 12.875 25.2532V25.0409C12.875 24.2585 12.2407 23.6242 11.4583 23.6242H7.41666Z" fill="#0355BD"/>
</svg>
