<svg width="42" height="42" viewBox="0 0 42 42" fill="none" xmlns="http://www.w3.org/2000/svg">
<path fill-rule="evenodd" clip-rule="evenodd" d="M1.54303 13.152C5.86882 2.3756 18.1141 -2.81179 28.8621 1.53892C39.61 5.88964 44.801 18.1386 40.4752 28.848C36.1494 39.6244 23.904 44.8118 13.1561 40.4611C2.37491 36.1438 -2.81604 23.8949 1.54303 13.152ZM15.0861 35.6084C23.172 38.8547 32.3227 34.9725 35.5837 26.9069C37.8131 21.4183 36.6818 15.3608 33.2211 11.077L30.6922 17.3019C31.5907 19.6781 31.6572 22.3889 30.6257 24.9324C28.496 30.2536 22.4399 32.7971 17.1159 30.6552C11.8251 28.5133 9.22963 22.4558 11.3925 17.1346C13.1894 12.6834 17.6816 10.1399 22.2403 10.7089L17.4154 22.6232L22.4399 24.6646L27.2649 12.7504L29.3279 7.66339C28.5626 7.19485 27.764 6.75978 26.8988 6.42511C26.0337 6.09044 25.1685 5.85617 24.3034 5.65537C16.9495 4.08242 9.32945 7.93113 6.40123 15.1265C3.14024 23.1921 7.03346 32.3621 15.0861 35.6084Z" fill="white"/>
</svg>
