<svg width="7" height="8" viewBox="0 0 7 8" fill="none" xmlns="http://www.w3.org/2000/svg">
<path fill-rule="evenodd" clip-rule="evenodd" d="M3.50629 7.49992C1.58666 7.50908 0.00601053 5.93545 1.71976e-05 4.00943C-0.00597614 2.0834 1.55529 0.513474 3.49554 0.500083C5.41306 0.486868 6.9893 2.0568 6.99988 3.99058C7.01028 5.91695 5.4432 7.49076 3.50629 7.49992ZM3.49677 6.79505C5.02789 6.80421 6.28579 5.55302 6.29548 4.01111C6.30518 2.4692 5.05063 1.20955 3.50136 1.2048C1.9727 1.20057 0.712163 2.45299 0.704583 3.9845C0.696827 5.52871 1.9452 6.78571 3.49607 6.79505H3.49677ZM3.21619 4.26997C3.19004 4.26997 3.16539 4.27017 3.14174 4.27037C3.09718 4.27074 3.05613 4.27108 3.01507 4.26997C2.9169 4.26675 2.85979 4.22114 2.85559 4.13433C2.85063 4.03581 2.85063 3.93662 2.85559 3.83811C2.85999 3.75146 2.91671 3.70399 3.01622 3.70348C3.34028 3.70144 3.66453 3.70144 3.98897 3.70348C4.09134 3.70433 4.1475 3.75672 4.1475 3.84828C4.14839 4.48887 4.14839 5.12957 4.1475 5.77039C4.1475 5.91943 4.01819 6.02879 3.84859 6.03337C3.74697 6.03625 3.64517 6.03557 3.54299 6.03337C3.3369 6.03015 3.2183 5.92112 3.21696 5.7319C3.21607 5.42895 3.21636 5.12601 3.21666 4.82307L3.21696 4.36865L3.21619 4.26997ZM3.82652 2.96314C4.02058 2.88349 4.14753 2.69476 4.14816 2.48499C4.14901 2.19885 3.9179 1.96611 3.63176 1.96495C3.42199 1.96409 3.23237 2.08971 3.15136 2.28321C3.07035 2.47671 3.11391 2.69995 3.26172 2.8488C3.40952 2.99765 3.63245 3.04278 3.82652 2.96314Z" fill="#9EA0A5"/>
</svg>
