<svg width="140" height="42" viewBox="0 0 140 42" fill="none" xmlns="http://www.w3.org/2000/svg">
<g clip-path="url(#clip0_1264_3992)">
<path d="M43.1442 28.0896L45.1635 24.7968L45.0288 24.7296C42.1346 23.7216 40.3173 23.7888 40.3173 23.7888C39.7115 23.7216 38.9038 23.9904 38.4327 24.2592C38.5 23.6544 38.5 23.3184 38.5 23.3184V18.3456V10.3488V0.268799L6.73077 0.470399V23.4528C6.73077 23.4528 6.73077 23.7888 6.79808 24.3936C6.32692 24.0576 5.51923 23.856 4.91346 23.9232C4.91346 23.9232 3.09615 23.856 0.201923 24.864H0.0673077L2.08654 28.1568L0 32.256L0.201923 32.1888C2.69231 31.3152 4.375 31.248 4.77885 31.248V34.1376V34.2048C11.375 41.7984 21.2692 42.0672 22.4135 42C22.4808 42 22.5481 42 22.6154 42C22.6154 42 22.6827 42 22.8173 42C23.8942 42 33.8558 41.7984 40.3846 34.1376V34.0704V31.1808C40.6538 31.1808 42.4038 31.1808 45.0288 32.1216L45.2308 32.1888L43.1442 28.0896ZM7.20192 23.4528V20.0928H38.0288V23.52C38.0288 23.52 38.0288 24.1248 37.9615 24.9984C37.9615 25.0656 37.8942 25.2 37.9615 25.2C37.7596 26.4096 37.3558 28.0896 36.3462 29.6352C35.6731 30.6432 34.5288 32.1216 32.7788 33.6672C27.7981 36.1536 23.4231 36.288 22.75 36.288H22.6827H22.6154C21.9423 36.288 17.5673 36.1536 12.6538 33.7344C10.9038 32.1888 9.69231 30.7104 9.08654 29.7024C8.07692 28.0896 7.60577 26.4096 7.40385 25.2V25.0656C7.20192 24.0576 7.20192 23.4528 7.20192 23.4528ZM7.80769 28.3584C8.00962 28.8288 8.27885 29.232 8.54808 29.7024C9.22115 30.7104 10.1635 31.8528 11.3077 32.928C10.1635 32.256 9.01923 31.4496 7.80769 30.5088V28.3584ZM36.6827 29.7024C36.9519 29.2992 37.2212 28.8288 37.4231 28.3584V30.5088C36.2788 31.4496 35.1346 32.256 34.0577 32.928C35.1346 31.7856 36.0096 30.7104 36.6827 29.7024ZM38.0288 19.2864H7.20192V18.4128H38.0288V19.2864ZM38.0288 0.873599V10.4832H33.1827V12.5664H29.5481V10.4832H24.5V12.5664L20.9327 12.6336V10.5504H15.6154V12.6336H12.25V10.5504H7.13462V0.940799L38.0288 0.873599ZM0.807692 31.5168L2.49038 28.0896L0.740385 25.0656C3.56731 24.1248 4.77885 24.2592 4.84615 24.2592C5.72115 24.2592 6.59615 24.4608 6.79808 24.864C6.79808 24.9312 6.79808 25.0656 6.86538 25.1328C6.86538 25.2672 6.73077 25.4016 6.25962 25.4688C5.65385 25.536 5.18269 25.8048 4.98077 26.208C4.64423 26.7456 4.84615 27.6864 4.84615 27.6864V30.7104C4.50962 30.7776 3.23077 30.7104 0.807692 31.5168ZM22.75 41.5968C22.6827 41.5968 22.6154 41.5968 22.5481 41.5968C22.5481 41.5968 22.4808 41.5968 22.4135 41.5968C21.3365 41.5968 11.7788 41.664 5.25 34.1376V28.6272C12.3846 36.7584 21.4712 36.6912 22.5481 36.6912H22.6154H22.6827C23.7596 36.6912 32.7788 36.6912 39.9135 28.56V34.0704C33.4519 41.5968 23.8942 41.5968 22.75 41.5968ZM40.3846 30.7776V27.7536C40.4519 27.6192 40.5865 26.88 40.25 26.2752C39.9808 25.872 39.5769 25.6032 38.9712 25.536C38.5673 25.4688 38.4327 25.3344 38.3654 25.2C38.3654 25.0656 38.4327 24.9312 38.4327 24.864C38.6346 24.4608 39.4423 24.192 40.3173 24.2592C40.3173 24.2592 41.8654 24.1248 44.6923 25.1328L42.7404 28.1568L44.5577 31.7184C41.9327 30.7776 40.5865 30.7776 40.3846 30.7776Z" fill="white"/>
<path d="M16.0192 32.7264C15.6827 33.0624 15.0769 32.928 14.5385 32.9952C14.4712 33.0624 14.1346 33.1296 14.3365 33.3312C14.6058 33.4656 14.9423 33.4656 15.2115 33.3984C16.3558 32.928 17.9038 32.928 19.1827 33.1968C19.3846 33.264 19.5192 33.3312 19.7212 33.3984C19.9904 33.4656 20.3269 33.5328 20.5962 33.5328C21.3365 33.5328 22.0096 33.3984 22.75 33.3984C22.8173 33.3984 22.8846 33.3984 23.0192 33.3984C23.4904 33.5328 23.8942 33.6 24.3654 33.6C25.375 33.6 26.4519 33.3312 27.4615 33.1968C27.7981 33.264 28.2019 32.9952 28.3365 33.3312C28.8077 33.4656 29.3462 33.3312 29.75 33.264C30.4231 33.0624 31.0288 33.4656 31.6346 33.1968C31.7692 33.0624 31.7692 32.928 31.5673 32.8608C31.1635 32.7936 30.625 32.7936 30.1538 32.8608C29.8173 32.8608 29.3462 32.928 29.1442 32.7936L29.2115 32.7264C29.75 32.3904 30.5577 32.928 30.9615 32.3904C30.625 32.0544 30.0192 32.3232 29.5481 32.3232L29.0769 32.3904C29.2115 32.3232 29.2788 32.256 29.3462 32.1888C29.75 31.7184 30.0192 31.1808 30.4231 30.7104C31.2308 30.4416 31.8365 29.7024 32.4423 29.1648L32.1731 28.896C30.4904 29.7696 28.9423 28.4928 27.5962 27.8208C26.1154 26.7456 24.0288 27.4848 22.2115 27.2832C21.3365 27.3504 20.6635 27.9552 20.125 28.6272C19.7885 29.0304 19.3846 29.6352 18.8462 29.8368C18.6442 29.568 18.5769 29.232 18.6442 28.896C18.9135 27.888 19.3173 26.9472 19.5865 25.9392C19.7885 24.864 20.1923 23.6544 19.7212 22.6464C19.25 21.7056 18.2404 21.3696 17.2308 21.4368C16.0865 21.6384 15.6154 23.0496 14.4038 23.0496C14.2692 23.1168 14.3365 23.184 14.3365 23.3184C14.4712 23.52 14.6731 23.52 14.875 23.52C15.6827 23.3856 16.5577 23.3184 17.3654 23.3856C17.6346 23.3856 17.9712 23.184 18.2404 23.3856C19.1154 24.192 18.5096 25.4688 18.1731 26.3424C17.4327 27.4848 16.8269 28.6944 16.4231 29.9712C16.3558 30.7104 16.8269 31.248 17.0962 31.8528C17.0962 31.8528 17.1635 31.92 17.2308 31.9872C16.9615 31.9872 15.0096 32.256 14.0673 32.256C13.8654 32.256 13.5288 32.0544 13.3942 32.3232C13.3942 32.3904 13.3269 32.4576 13.3942 32.5248C14.2019 33.0624 15.2115 32.7264 16.0192 32.7264ZM20.6635 29.0976C20.5288 29.1648 20.4615 29.232 20.3269 29.232C20.7308 28.4928 21.5385 28.0224 22.2115 27.6864C23.0192 27.552 24.0288 27.6864 24.9038 27.552C26.7212 27.552 28 28.6272 29.5481 29.4336L30.1538 29.6352C30.1538 29.8368 29.9519 29.8368 29.8173 29.9712C29.6827 30.0384 29.5481 30.0384 29.4135 30.0384C29.4135 29.9712 29.4135 29.904 29.3462 29.904C29.0096 29.8368 28.7404 29.5008 28.4038 29.5008C28.4712 29.7696 28.7404 29.904 28.9423 30.1056C28.875 30.1056 28.875 30.1056 28.8077 30.1728C28.8077 30.5088 29.6827 30.3744 29.0769 30.7104C28.5385 31.0464 28 30.9792 27.5289 30.7776C27.7981 30.8448 28 30.7776 28.2019 30.7104C28.2692 30.3744 28.6731 30.7104 28.6731 30.3744C28.1346 30.0384 27.6635 29.568 26.9904 29.5008C27.125 29.4336 27.2596 29.3664 27.4615 29.3664C27.5962 29.4336 27.7308 29.5008 27.8654 29.5008C27.9327 29.5008 28 29.4336 27.9327 29.3664C27.5288 28.9632 26.9904 28.6272 26.3846 28.56C25.9135 28.2912 25.375 28.0896 24.7019 28.1568C24.6346 28.1568 24.5673 28.224 24.6346 28.2912C24.9712 28.4256 25.5096 28.4256 25.6442 28.8288C25.3077 29.232 24.8365 28.6944 24.4327 29.0304C24.3654 29.4336 24.8365 29.232 25.1058 29.3664C25.375 29.5008 25.8462 29.568 25.9135 29.904C25.6442 30.1728 25.3077 30.1056 24.9712 30.1728V30.24C25.0385 30.3072 25.1058 30.3744 25.2404 30.3744C25.1731 30.3744 25.1731 30.4416 25.1058 30.5088C25.1058 30.576 25.1731 30.6432 25.2404 30.6432C25.7115 30.7104 26.3173 30.576 26.6538 30.8448C27.1923 31.0464 27.7308 31.248 28.2692 31.3824C28.2692 31.4496 28.3365 31.4496 28.3365 31.5168C28 31.6512 27.5962 31.7184 27.3269 31.92C26.9904 31.6512 26.5865 31.584 26.1827 31.4496C25.9135 31.4496 25.6442 31.3152 25.4423 31.4496C25.5096 31.6512 25.7788 31.5168 25.9808 31.584C26.1827 31.6512 26.4519 31.7184 26.5865 31.92C26.1827 32.3232 25.5769 32.0544 24.9712 32.0544L24.9038 32.1216C24.9712 32.1888 25.0385 32.1888 25.1058 32.1888C25.375 32.1888 25.7115 32.256 26.0481 32.256C25.8462 32.256 25.6442 32.256 25.4423 32.256C24.9712 32.3232 24.5673 32.256 24.0962 32.256C24.2308 32.256 24.4327 32.256 24.5673 32.1216C24.5673 32.0544 24.5673 31.9872 24.5 31.9872C24.4327 31.92 24.3654 31.92 24.2308 31.92L23.2885 31.9872L23.2212 32.0544C23.4231 32.1216 23.6923 32.256 23.9615 32.256C22.9519 32.1888 21.9423 32.1216 20.9327 32.0544C20.5288 31.92 20.0577 31.8528 19.8558 31.4496C19.7212 30.5088 20.2596 29.7696 20.8654 29.0976C21.0673 28.896 20.8654 29.0304 20.6635 29.0976ZM26.4519 29.7696C26.6538 29.6352 26.7885 29.8368 26.9904 29.7696C27.1923 29.5008 27.5288 29.7696 27.7308 29.7696C27.8654 29.904 28.0673 29.9712 28 30.1728C27.7981 30.576 27.3269 30.24 27.125 30.3072C27.0577 30.4416 27.125 30.5088 27.2596 30.576C26.9231 30.4416 26.5192 30.3072 26.1827 30.24C26.25 30.0384 26.4519 29.9712 26.4519 29.7696ZM26.0481 29.0304C26.1154 28.896 26.1827 28.7616 26.25 28.6272C26.3846 28.6272 26.5865 28.7616 26.7212 28.6944C26.9231 28.6272 27.1923 28.7616 27.3269 28.9632C27.1923 29.2992 26.7885 28.9632 26.5865 29.232C26.3846 29.232 26.25 29.0976 26.0481 29.0304ZM17.2308 30.0384C17.0962 29.9712 17.0962 29.8368 17.0962 29.7024C17.7019 27.4848 20.2596 25.2672 18.4423 22.848C18.3077 22.848 18.2404 22.848 18.1731 22.848C17.9038 23.3184 17.2981 23.2512 16.8269 23.184C16.625 23.1168 16.3558 23.0496 16.3558 22.848C16.6923 22.512 17.2981 23.0496 17.5673 22.6464C17.5 22.2432 17.0288 22.4448 16.7596 22.2432C16.8269 22.0416 17.0288 21.9744 17.2308 21.9072C18.1058 21.7728 18.9135 22.1088 19.3173 22.848L19.5192 23.52C19.5865 25.0656 18.9135 26.2752 18.5769 27.6192C18.2404 28.4928 17.8365 29.5008 18.2404 30.4416C18.375 30.576 18.5096 30.7104 18.7115 30.7776C18.9808 30.8448 19.1154 30.5088 19.25 30.6432C19.3173 31.3824 19.9904 32.0544 20.6635 32.256C22.75 32.8608 25.2404 32.7264 27.3942 32.256C28 31.9872 28.7404 31.92 29.0769 31.248C29.0769 30.8448 29.5481 30.8448 29.75 30.4416C29.8173 30.0384 30.3558 29.9712 30.625 29.6352C30.6923 29.6352 30.7596 29.6352 30.7596 29.7024C30.6923 30.1728 30.0192 30.1056 29.8846 30.576C29.4135 31.3824 28.7404 32.256 27.7308 32.3904C27.3269 32.592 26.8558 32.592 26.3846 32.6592C24.6346 33.3312 22.6827 32.3232 20.8654 32.928C20.1923 32.928 19.5865 32.7936 19.1154 32.3232C19.0481 32.1888 19.25 32.1216 19.25 32.0544C18.7115 31.7856 17.9712 31.9872 17.6346 31.3152C17.4327 31.0464 17.3654 30.6432 17.5 30.3072C17.5673 30.1728 17.6346 30.1056 17.6346 29.904C17.5673 29.7696 17.4327 29.8368 17.3654 29.8368L17.2308 30.0384Z" fill="white"/>
<path d="M6.46155 32.8608C6.52885 32.928 6.59616 32.8608 6.59616 32.6592C6.59616 32.3904 6.46155 32.1216 6.39424 32.0544C6.25962 32.1216 6.32693 32.6592 6.46155 32.8608Z" fill="white"/>
<path d="M7.20194 31.5839C7.13463 31.5167 7.06732 31.4495 7.06732 31.3823V31.4495C7.13463 31.5839 7.20194 31.5839 7.20194 31.7183C7.26924 31.9871 7.26924 34.2047 7.26924 34.2719C7.26924 34.6079 7.26925 34.6751 7.13463 34.6079V34.6751C7.20194 34.7423 7.26924 34.8095 7.33655 34.8767C7.33655 34.9439 7.40386 34.9439 7.40386 35.0111C7.47117 35.0783 7.60578 35.2127 7.67309 35.2799C7.67309 35.2127 7.67309 35.2127 7.67309 35.2127C7.60578 35.0783 7.53848 35.0111 7.47117 34.8767C7.40386 34.2719 7.47117 33.8687 7.40386 33.4655C8.14424 34.0703 8.07694 34.1375 8.07694 34.4735C8.07694 34.4735 8.14425 34.4735 8.14425 34.5407C8.14425 34.2719 8.14425 34.0031 8.14425 33.7343C8.14425 33.7343 8.07694 33.7343 8.07694 33.6671V33.7343C8.00963 34.0703 7.60578 33.5327 7.33655 33.2639C7.33655 33.1295 7.33655 32.9951 7.33655 32.8607C7.33655 32.8607 7.33655 32.2559 7.33655 31.9871C7.67309 32.1887 8.07694 32.5247 8.14425 33.1967L8.21155 33.2639C8.21155 33.2639 8.21155 32.9279 8.21155 32.6591C7.80771 32.3231 7.47117 31.9199 7.20194 31.5839Z" fill="white"/>
<path d="M8.88462 34.3391C8.61539 34.3391 8.48077 34.4735 8.48077 34.9439C8.54808 36.0191 9.15385 36.8255 9.625 36.4895C10.0962 35.9519 9.625 34.6079 8.88462 34.3391ZM9.28847 36.4223C8.95193 36.2879 8.6827 35.5487 8.6827 34.9439C8.6827 34.4063 8.88462 34.2719 9.15385 34.6079C9.625 35.2799 9.75962 36.4223 9.28847 36.4223Z" fill="white"/>
<path d="M10.7692 35.6832C10.7019 35.6832 10.6346 35.6832 10.5673 35.7504C10.5673 35.616 10.5673 35.4816 10.5673 35.28C10.4327 35.28 10.2308 35.3472 10.0962 35.3472V35.4144C10.2308 35.4816 10.2981 35.5488 10.2981 35.5488C10.3654 35.7504 10.3654 36.8256 10.3654 36.8256C10.3654 37.0944 10.2981 37.0272 10.1635 37.0272V37.0944C10.4327 37.296 10.7692 37.4304 11.0385 37.5648C11.0385 37.4976 11.0385 37.4976 11.0385 37.4304C10.9712 37.3632 10.9039 37.3632 10.8365 37.296C10.8365 37.296 10.8365 37.296 10.7692 37.296C10.7019 37.296 10.7019 37.2288 10.6346 37.1616C10.5673 36.8928 10.6346 36.0192 10.6346 36.0192C10.6346 35.952 10.7019 35.8848 10.7019 35.7504C10.7692 35.6832 11.0385 35.616 11.1058 36.0192C11.1731 36.0192 11.3077 36.0864 11.3077 35.8848C11.2404 35.7504 11.1731 35.6832 11.1058 35.5488C10.9712 35.616 10.9039 35.616 10.7692 35.6832Z" fill="white"/>
<path d="M11.9808 37.4304C11.9808 37.1616 11.9808 36.8928 11.9808 36.624C11.9808 36.3552 11.9808 36.3552 12.0481 36.3552C12.1827 36.4224 12.25 36.4896 12.3846 36.4896C12.5192 36.5568 12.5866 36.5568 12.5866 36.5568C12.5866 36.5568 12.5866 36.5568 12.6539 36.5568C12.6539 36.4896 12.6539 36.4224 12.6539 36.4224C12.25 36.288 12.0481 36.1536 11.9808 36.0864C11.9808 35.952 11.9808 35.8176 11.9808 35.616C11.7789 35.8176 11.7116 35.8848 11.4423 35.952V36.0192C11.5096 36.0864 11.5769 36.0864 11.6442 36.1536C11.6442 36.4896 11.6442 36.8256 11.6442 37.1616C11.6442 37.2288 11.6442 37.3632 11.6442 37.4304C11.7116 38.5056 12.5192 38.1696 12.6539 38.1024V38.0352C12.1827 38.1696 11.9808 38.1024 11.9808 37.4304Z" fill="white"/>
<path d="M13.4616 35.8175C13.5962 35.6831 13.4616 35.4815 13.3269 35.4143C13.2596 35.4143 13.1923 35.4143 13.1923 35.5487C13.1923 35.7503 13.3269 35.8847 13.4616 35.8175Z" fill="white"/>
<path d="M13.3942 38.5056C13.3269 38.1024 13.3942 37.0944 13.4615 36.6912C13.4615 36.6912 13.4615 36.6912 13.3942 36.6912C13.3269 36.7584 13.125 36.8256 12.8558 36.8256C12.8558 36.8928 12.8558 36.8928 12.9231 36.96C12.9904 37.0272 12.9904 37.0944 13.0577 37.1616C13.0577 37.3632 13.0577 38.304 13.0577 38.5728C13.0577 38.64 13.0577 38.64 12.8558 38.5728V38.64C13.1923 38.7744 13.4615 38.8416 13.7981 38.976V38.9088C13.5962 38.7072 13.4615 38.64 13.3942 38.5056Z" fill="white"/>
<path d="M14.4711 38.4384C14.4711 38.1696 14.4711 37.9008 14.4711 37.5648C14.4711 37.296 14.4711 37.296 14.5384 37.296C14.6058 37.296 14.6731 37.3632 14.7404 37.3632C14.9423 37.4304 15.0769 37.4976 15.2788 37.4976C15.2788 37.4304 15.2788 37.3632 15.2788 37.3632C14.9423 37.296 14.6731 37.1616 14.5384 37.0944C14.5384 36.96 14.5384 36.8256 14.5384 36.624C14.3365 36.8256 14.2692 36.8928 13.9327 37.0272V37.0944C14 37.1616 14.0673 37.1616 14.2019 37.2288C14.2019 37.5648 14.2019 37.9008 14.2019 38.304C14.2019 38.3712 14.2019 38.5056 14.2019 38.5728C14.2692 39.648 15.1442 39.312 15.3461 39.1776V39.1104C14.8077 39.1776 14.4711 39.2448 14.4711 38.4384Z" fill="white"/>
<path d="M17.0962 38.3711C17.0288 38.3711 17.0288 38.3711 16.9615 38.3039C16.4904 37.2959 15.8173 37.4975 15.4808 38.1695C15.2788 38.9759 15.6827 40.1855 16.8942 39.7823C16.9615 39.7823 16.9615 39.7151 17.0288 39.7151C17.0288 39.7151 17.0288 39.6479 16.9615 39.6479C16.2212 39.9839 15.8173 39.5135 15.75 38.5727C16.1538 38.5727 16.625 38.5727 17.0962 38.5727C17.0962 38.4383 17.0962 38.4383 17.0962 38.3711ZM16.4231 38.3711C16.2885 38.3711 16.2212 38.3711 16.0865 38.3711C15.9519 38.3711 15.8846 38.3711 15.75 38.3711C15.8173 37.6319 16.0865 37.6319 16.4231 37.9679C16.5577 38.1023 16.625 38.3039 16.625 38.3711C16.625 38.3711 16.4904 38.3711 16.4231 38.3711Z" fill="white"/>
<path d="M18.7115 38.1025C18.5769 38.1697 18.4423 38.2369 18.375 38.2369C18.2404 38.3041 18.1731 38.3041 18.0385 38.3713C18.0385 38.2369 18.0385 38.0353 18.0385 37.9009C17.7692 37.9681 17.5673 38.1025 17.3654 38.1697V38.2369C17.5673 38.2369 17.6346 38.3041 17.6346 38.3041C17.7692 38.5057 17.7019 39.6481 17.7019 39.7153C17.6346 39.9841 17.5673 39.9841 17.3654 39.9841V40.0513C17.8365 40.1185 18.2404 40.1857 18.6442 40.2529C18.6442 40.1857 18.6442 40.1857 18.6442 40.1185C18.5096 40.1185 18.4423 40.1185 18.3077 40.0513H18.2404C18.1058 40.0513 18.1058 40.0513 18.0385 39.8497C17.9712 39.3793 18.0385 38.7073 18.0385 38.7073C18.0385 38.6401 18.1058 38.5057 18.1058 38.4385C18.2404 38.3713 18.5769 38.1697 18.6442 38.5729C18.7788 38.5729 18.9135 38.5729 18.9135 38.3713C18.9135 38.3713 18.9135 38.3041 18.8462 38.2369C18.8462 38.1697 18.7788 38.1697 18.7115 38.1025Z" fill="white"/>
<path d="M22.3462 38.976C22.2789 38.976 22.2789 38.976 22.2115 38.9088C21.6731 37.968 21 38.4384 20.7308 39.0432C20.5289 39.9168 20.9327 40.8576 21.9423 40.3872C22.0769 40.32 22.1442 40.2528 22.2789 40.1856L22.2115 40.1184C21.5385 40.5888 21.0673 40.2528 21 39.312C21.4039 39.2448 21.875 39.1776 22.2789 39.0432C22.3462 39.0432 22.3462 39.0432 22.3462 38.976ZM21.9423 39.0432L21.7404 39.1104C21.6058 39.1104 21.5385 39.1776 21.4039 39.1776C21.2692 39.1776 21.2019 39.2448 21.0673 39.2448C21.1346 38.3712 21.5385 38.5056 21.8077 38.7744C21.875 38.8416 21.9423 38.976 21.9423 39.0432Z" fill="white"/>
<path d="M23.1538 39.7824C23.1538 39.5136 23.1538 39.2448 23.1538 38.9088C23.1538 38.7072 23.1538 38.64 23.2211 38.64C23.2884 38.64 23.2885 38.64 23.3558 38.64C23.6923 38.64 23.7596 38.64 23.9615 38.64C23.9615 38.5728 23.9615 38.5056 23.9615 38.5056C23.625 38.5056 23.3558 38.5056 23.2211 38.5056C23.2211 38.3712 23.2211 38.1696 23.2211 38.0352C22.9519 38.3712 22.9519 38.4384 22.5481 38.64V38.7072C22.6154 38.7072 22.75 38.7072 22.8173 38.7072C22.8173 39.0432 22.8173 39.3792 22.8173 39.7824C22.8173 39.8496 22.8173 39.984 22.8173 40.0512C22.9519 41.1936 23.8942 40.32 23.9615 40.2528V40.1856C23.5577 40.3872 23.1538 40.5888 23.1538 39.7824Z" fill="white"/>
<path d="M26.8558 38.1023C25.7115 37.8335 25.9808 37.3631 26.1827 37.0271C26.5192 36.6911 27.4615 36.3551 27.6635 37.2287H27.7308C27.7308 37.0943 27.7308 37.0271 27.7308 36.8927C27.7308 36.7583 27.7981 36.6239 27.7308 36.4895C27.5962 36.4895 27.5288 36.5567 27.3942 36.6239C26.9231 36.6239 26.5865 36.6911 26.25 36.8927C25.8462 37.1615 24.9711 38.1023 26.6538 38.5727C27.125 38.7071 27.3269 38.7071 27.4615 39.0431C27.6635 39.9167 26.9231 40.4543 25.9135 40.0511C25.7788 39.8495 25.6442 39.6479 25.5769 39.4463H25.5096C25.5769 39.8495 25.6442 39.9839 25.6442 40.4543C25.7115 40.4543 25.7115 40.4543 25.7788 40.4543C25.7788 40.3199 25.8462 40.3199 25.9135 40.3199C27.125 40.4543 27.5962 39.9167 27.7308 39.5135C27.9327 39.2447 28.3365 38.5055 26.8558 38.1023Z" fill="white"/>
<path d="M30.0192 37.2288C29.8173 37.3632 29.6154 37.4976 29.3462 37.5648V37.632C29.6827 37.5648 29.6827 37.5648 29.6827 38.1024C29.6827 38.304 29.6827 38.5056 29.6827 38.7072C29.6827 38.7744 29.6827 38.976 29.6827 38.976C28.5385 39.984 28.6058 39.2448 28.6731 38.0352C28.6731 37.9008 28.6731 37.6992 28.6731 37.5648C28.6731 37.4976 28.6058 37.4976 28.6058 37.5648C28.4039 37.6992 28.2019 37.9008 28.0673 38.0352C28.0673 38.1024 28.0673 38.1024 28.0673 38.1696C28.4039 37.968 28.3366 37.968 28.4039 38.3712C28.4039 38.5728 28.4039 38.7744 28.4039 39.0432C28.4712 40.4544 29.1442 39.648 29.75 39.1776C29.75 39.3792 29.8173 39.5136 29.8173 39.5808C29.9519 39.5136 30.2212 39.312 30.3558 39.1776C30.3558 39.1104 30.3558 39.1104 30.3558 39.0432C30.2885 39.1104 30.2212 39.1776 30.0866 39.1776C29.9519 38.976 29.9519 38.304 30.0192 37.2288Z" fill="white"/>
<path d="M31.8365 38.0352C31.8365 37.968 31.8365 37.9008 31.8365 37.9008C31.8365 37.8336 31.8365 37.7664 31.8365 37.6992C31.7692 37.4304 31.7692 37.0944 31.7019 36.8256C31.4327 36.6912 31.4327 36.6912 31.1635 36.8928C30.5577 37.3632 30.625 37.4976 30.625 37.632C30.625 37.632 30.625 37.632 30.625 37.6992C30.6923 37.632 30.8269 37.4976 30.8942 37.4304C30.8269 37.1616 31.0288 37.0272 31.2981 37.0272C31.5 37.0944 31.5 37.1616 31.5 37.4976C31.5 37.632 31.5 37.6992 31.5 37.8336C31.2308 37.968 30.9615 38.1024 30.6923 38.3712C30.4231 38.64 30.4231 39.1776 30.6923 39.1776C30.9615 39.1104 31.2981 38.7744 31.4327 38.5728C31.5 38.9088 31.7019 38.7744 31.7692 38.7072C31.9039 38.5728 31.9712 38.5056 32.1058 38.3712C32.1058 38.304 32.1058 38.304 32.1058 38.2368C31.9712 38.4384 31.7692 38.7072 31.8365 38.0352ZM31.5 38.4384C31.2981 38.64 31.0962 38.8416 31.0288 38.8416C30.8942 38.8416 30.8269 38.64 30.8269 38.5728C30.8269 38.5056 30.8269 38.1696 31.5 37.9008C31.5 37.9008 31.5 38.304 31.5 38.4384Z" fill="white"/>
<path d="M33.25 36.0192V36.0864C33.4519 36.0192 33.5192 36.0192 33.4519 36.288C33.4519 36.288 33.3846 36.7584 33.0481 37.632C32.9134 37.3632 32.7115 36.6912 32.7115 36.4896C32.7115 36.3552 32.7115 36.3552 32.9808 36.2208V36.1536C32.8461 36.2208 32.5769 36.3552 32.1731 36.5568V36.624C32.2404 36.6912 32.3077 36.6912 32.375 36.7584C32.375 36.7584 32.7115 37.4976 32.9135 38.3712H32.9808C33.0481 38.2368 33.0481 38.1024 33.1154 37.968C33.25 37.4976 33.3846 37.0944 33.5192 36.6912C33.6538 36.1536 33.7211 36.0192 33.8558 35.8848V35.8176C33.6538 35.952 33.5192 36.0192 33.3846 36.0864C33.3173 35.952 33.25 35.952 33.25 36.0192Z" fill="white"/>
<path d="M34.6635 37.0945C34.5288 37.1617 34.5288 37.1617 34.5288 37.0945C34.5288 37.0273 34.5288 37.0273 34.5288 36.9601C34.5288 36.6913 34.5288 36.4225 34.5288 36.2881C34.5288 35.8849 34.5962 35.5489 34.5962 35.2129L34.5288 35.2801C34.3942 35.5489 34.2596 35.6833 34.0577 35.8177C34.0577 35.8177 34.0577 35.8849 33.9904 35.8849C34.0577 35.8849 34.125 35.8177 34.1923 35.8177C34.2596 35.9521 34.1923 37.2289 34.1923 37.2289C34.1923 37.2961 34.1923 37.3633 33.9904 37.4977V37.5649C34.2596 37.3633 34.5288 37.2289 34.7981 37.0273V36.9601C34.7308 37.0945 34.6635 37.0945 34.6635 37.0945Z" fill="white"/>
<path d="M34.5288 34.272C34.5962 34.0704 34.5288 34.0032 34.3942 34.0032C34.3269 34.0704 34.2596 34.272 34.3269 34.4064C34.3269 34.4736 34.4615 34.4064 34.5288 34.272Z" fill="white"/>
<path d="M35.7404 36.288C35.2692 36.7584 35.3365 36.2208 35.3365 36.0192C35.3365 35.7504 35.3365 35.4816 35.3365 35.2128C35.3365 35.0112 35.3365 34.944 35.4038 34.8768C35.4711 34.8768 35.4711 34.8096 35.5384 34.8096C35.7404 34.6752 35.8077 34.6752 35.9423 34.5408C35.9423 34.4736 35.9423 34.4064 35.9423 34.4064C35.6058 34.6752 35.4038 34.7424 35.4038 34.7424C35.4038 34.608 35.4038 34.4064 35.4038 34.272C35.2019 34.6752 35.2019 34.8096 34.9327 35.2128V35.28C35 35.2128 35.0673 35.2128 35.1346 35.1456C35.1346 35.4816 35.1346 35.8176 35.1346 36.1536C35.1346 36.2208 35.1346 36.3552 35.1346 36.4224C35.1346 36.4896 35.1346 36.5568 35.1346 36.6912C35.3365 37.1616 35.8077 36.3552 35.9423 36.0864C35.9423 36.0864 35.9423 36.0864 35.9423 36.0192C35.9423 36.0864 35.875 36.2208 35.7404 36.288Z" fill="white"/>
<path d="M37.1539 33.936C37.0865 33.936 37.0865 34.0032 37.0865 33.936C36.8846 33.5328 36.6154 33.6672 36.2789 34.4064C35.9423 35.3472 36.0096 36.1536 36.5481 35.952C36.8173 35.7504 37.0192 35.3472 37.1539 35.1456C37.1539 35.1456 37.1539 35.1456 37.1539 35.0784C36.6154 36.0864 36.4135 35.4816 36.4135 35.4144C36.3462 35.28 36.3462 35.2128 36.3462 34.944C36.6154 34.608 36.9519 34.272 37.2212 34.0032C37.2212 33.936 37.2212 33.936 37.1539 33.936ZM36.8173 34.3392C36.75 34.4064 36.6827 34.4736 36.6154 34.608C36.5481 34.6752 36.4808 34.7424 36.4135 34.8768C36.4808 33.8688 36.8173 33.936 36.8846 34.0032C36.9519 34.0704 37.0192 34.1376 36.9519 34.2048C36.8846 34.2048 36.8173 34.3392 36.8173 34.3392Z" fill="white"/>
<path d="M37.8942 32.8607C37.8269 32.9951 37.7596 33.1295 37.6923 33.1967C37.6923 33.0623 37.6923 32.9279 37.6923 32.7263C37.5577 32.9951 37.4231 33.2639 37.2885 33.4655C37.2885 33.5327 37.2885 33.5327 37.2885 33.5327C37.3558 33.4655 37.4231 33.3983 37.4231 33.3983C37.4904 33.4655 37.4904 34.6079 37.4904 34.6751C37.4904 34.9439 37.4231 35.0111 37.2885 35.1455V35.2127C37.5577 35.0111 37.7596 34.7423 37.9615 34.5407C37.9615 34.4735 37.9615 34.4735 37.9615 34.4063C37.8942 34.4735 37.8269 34.5407 37.7596 34.6079C37.7596 34.6079 37.7596 34.6079 37.6923 34.6751C37.7596 34.7423 37.6923 34.9439 37.6923 33.5999C37.6923 33.4655 37.6923 33.3983 37.7596 33.2639C37.7596 33.1967 37.8942 32.9951 37.8942 32.9279C38.0288 32.7935 38.0288 32.9279 38.0288 32.9951C38.1635 32.7935 38.1635 32.6591 38.1635 32.5919C38.0961 32.5247 38.0961 32.4575 38.0288 32.4575C38.0288 32.5919 37.9615 32.7263 37.8942 32.8607Z" fill="white"/>
<path d="M39.1058 32.0545C38.9712 32.1889 38.8365 32.7265 38.9712 32.8609C39.1058 32.9281 39.1731 32.5921 39.2404 32.2561C39.2404 32.1217 39.1731 31.9873 39.1058 32.0545Z" fill="white"/>
<path d="M10.0289 5.37612C10.0962 4.83852 10.7019 4.50252 11.2404 4.36812C11.3077 4.16652 11.2404 3.76332 11.4423 3.62892C12.1154 3.36012 11.6442 3.15852 12.0481 2.95692C12.5865 3.22572 13.3942 2.95692 13.5962 3.49452C13.6635 3.15852 13.7981 3.02412 14.2692 2.82252C13.7308 2.08332 11.9808 2.55372 11.375 2.21772C11.0385 2.01612 10.9712 2.82252 10.6346 2.95692C10.5673 3.15852 10.8365 3.36012 10.6346 3.42732C9.89424 3.36012 9.15386 5.37612 10.0289 5.37612Z" fill="white"/>
<path d="M13.7981 4.50233C13.9327 5.03993 14.7404 5.17433 14.875 5.84633C14.8077 4.56953 16.4231 3.89753 15.6154 2.75513C14.6731 3.09113 13.4615 3.35993 13.7981 4.50233Z" fill="white"/>
<path d="M13.125 4.36794C13.5962 4.16634 13.2596 3.56154 12.9904 3.49434C12.8558 3.42714 12.6539 3.42714 12.5865 3.56154C12.9231 3.69594 13.1923 3.89754 13.125 4.36794Z" fill="white"/>
<path d="M12.0481 3.83044C12.0481 3.96484 11.7788 3.96484 11.9135 4.09924C12.1154 4.30084 12.5192 4.30084 12.8558 4.36804C12.9231 3.96484 12.6538 3.83044 12.4519 3.69604C12.4519 3.89764 12.5865 3.89764 12.5192 4.16644C12.3173 4.03204 12.25 3.83044 12.0481 3.83044Z" fill="white"/>
<path d="M11.6442 4.36792C11.6442 4.50232 11.5769 4.63672 11.6442 4.77112C11.9135 5.30872 13.125 5.30872 12.9231 6.85432C13.1923 7.05592 13.2596 6.98872 13.5962 7.32472C13.6635 6.78712 14.2019 6.71992 14.2019 6.24952C14.2019 4.83832 12.4519 4.83832 11.6442 4.36792Z" fill="white"/>
<path d="M12.3173 6.58566C12.3173 5.30886 10.7692 4.43526 10.1635 5.98086C10.0962 6.24966 9.69232 6.04806 9.69232 6.24966C9.69232 6.58566 10.0289 6.72006 10.3654 6.85446C10.9712 6.51846 11.8462 6.38406 12.3173 6.58566Z" fill="white"/>
<path d="M14 8.87044C15.9519 8.87044 15.5481 6.51844 17.0288 5.98084C14.9423 5.64484 14.2019 7.32484 14 8.87044Z" fill="white"/>
<path d="M15.6154 5.71192C16.3558 5.51032 16.8269 3.76312 16.2885 3.29272C16.5577 4.30072 15.4135 4.50232 15.6154 5.71192Z" fill="white"/>
<path d="M11.8462 7.5937C12.4519 7.4593 12.7885 7.5937 13.125 7.8625C12.7885 6.7201 10.3654 6.5857 9.35577 7.7281C10.6346 7.2577 11.3077 7.7281 11.8462 7.5937Z" fill="white"/>
<path d="M11.8462 7.99682C11.1058 8.06402 10.8365 7.66082 10.3654 7.86242C11.1058 7.92962 11.5096 8.73602 12.1827 8.87042C12.5192 8.93762 13.0577 8.93762 13.4615 8.87042C13.2596 8.26562 12.4519 7.99682 11.8462 7.99682Z" fill="white"/>
<path d="M19.4519 5.37594C19.5192 4.83834 20.125 4.50234 20.6635 4.36794C20.7308 4.16634 20.6635 3.76314 20.8654 3.62874C21.4712 3.35994 21.0673 3.09114 21.4712 2.88954C22.0096 3.15834 22.8173 2.88954 23.0192 3.42714C23.0865 3.09114 23.2212 2.95674 23.6923 2.75514C23.1538 2.01594 21.4038 2.48634 20.7981 2.15034C20.4615 1.94874 20.3942 2.75514 20.0577 2.88954C19.9904 3.09114 20.2596 3.29274 20.0577 3.35994C19.25 3.35994 18.5096 5.30874 19.4519 5.37594Z" fill="white"/>
<path d="M23.1538 4.50233C23.2885 5.03993 24.0962 5.17433 24.2308 5.84633C24.1635 4.56953 25.7788 3.89753 24.9712 2.75513C24.0962 3.09113 22.8173 3.35993 23.1538 4.50233Z" fill="white"/>
<path d="M22.5481 4.36794C23.0192 4.16634 22.6827 3.56154 22.4135 3.49434C22.2788 3.42714 22.0769 3.42714 22.0096 3.56154C22.3462 3.69594 22.5481 3.89754 22.5481 4.36794Z" fill="white"/>
<path d="M21.4038 3.83044C21.4038 3.96484 21.1346 3.96484 21.2692 4.09924C21.4712 4.30084 21.875 4.30084 22.2115 4.36804C22.2788 3.96484 22.0096 3.83044 21.8077 3.69604C21.8077 3.89764 21.9423 3.89764 21.875 4.09924C21.7404 4.03204 21.6731 3.83044 21.4038 3.83044Z" fill="white"/>
<path d="M21 4.36792C21 4.50232 20.9327 4.63672 21 4.77112C21.2692 5.30872 22.4808 5.30872 22.2789 6.85432C22.5481 7.05592 22.6154 6.98872 22.9519 7.32472C23.0192 6.78712 23.5577 6.71992 23.5577 6.24952C23.625 4.83832 21.875 4.83832 21 4.36792Z" fill="white"/>
<path d="M19.5865 5.98087C19.5192 6.24967 19.1154 6.04807 19.1154 6.24967C19.1154 6.58567 19.4519 6.72007 19.7885 6.85447C20.3269 6.58567 21.1346 6.45127 21.6731 6.65287C21.7404 5.30887 20.1923 4.36807 19.5865 5.98087Z" fill="white"/>
<path d="M23.3558 8.87042C25.3077 8.87042 24.9039 6.51842 26.3846 5.98082C24.2981 5.64482 23.5577 7.25762 23.3558 8.87042Z" fill="white"/>
<path d="M25.0384 5.71192C25.7788 5.51032 26.25 3.76312 25.7115 3.29272C25.9134 4.30072 24.7692 4.50232 25.0384 5.71192Z" fill="white"/>
<path d="M21.2692 7.5937C21.875 7.4593 22.2115 7.5937 22.5481 7.8625C22.2115 6.7201 19.7885 6.5857 18.7788 7.7281C20.0577 7.2577 20.6635 7.7281 21.2692 7.5937Z" fill="white"/>
<path d="M21.2019 7.99682C20.4615 8.06402 20.1923 7.66082 19.7212 7.86242C20.4615 7.92962 20.8654 8.73602 21.5385 8.87042C21.875 8.93762 22.4135 8.93762 22.8173 8.87042C22.6154 8.26562 21.8077 7.99682 21.2019 7.99682Z" fill="white"/>
<path d="M28.8077 5.37594C28.875 4.83834 29.4808 4.50234 30.0192 4.36794C30.0865 4.16634 30.0192 3.76314 30.2212 3.62874C30.8269 3.35994 30.4231 3.09114 30.8269 2.88954C31.3654 3.15834 32.1731 2.88954 32.375 3.42714C32.4423 3.09114 32.5769 2.95674 33.0481 2.75514C32.5096 2.01594 30.7596 2.48634 30.1538 2.15034C29.8173 1.94874 29.75 2.75514 29.4135 2.88954C29.3462 3.09114 29.6154 3.29274 29.4135 3.35994C28.6058 3.35994 27.8654 5.30874 28.8077 5.37594Z" fill="white"/>
<path d="M32.5769 4.50233C32.7115 5.03993 33.5192 5.17433 33.6539 5.84633C33.5865 4.56953 35.2019 3.89753 34.3942 2.75513C33.4519 3.09113 32.2404 3.35993 32.5769 4.50233Z" fill="white"/>
<path d="M31.9039 4.36805C32.375 4.16645 32.0385 3.56165 31.7692 3.49445C31.6346 3.42725 31.4327 3.36005 31.3654 3.56165C31.7019 3.62885 31.9712 3.83045 31.9039 4.36805Z" fill="white"/>
<path d="M30.7596 3.83044C30.7596 3.96484 30.4904 3.96484 30.625 4.09924C30.8269 4.30084 31.2308 4.30084 31.5673 4.36804C31.6346 3.96484 31.3654 3.83044 31.1635 3.69604C31.1635 3.89764 31.2981 3.89764 31.2308 4.16644C31.0962 4.03204 31.0288 3.83044 30.7596 3.83044Z" fill="white"/>
<path d="M30.4231 4.36792C30.4231 4.50232 30.3558 4.63672 30.4231 4.77112C30.6923 5.30872 31.9038 5.30872 31.7019 6.85432C31.9711 7.05592 32.0385 6.98872 32.375 7.32472C32.5096 6.78712 32.9808 6.71992 32.9808 6.24952C32.9808 4.77112 31.2308 4.83832 30.4231 4.36792Z" fill="white"/>
<path d="M29.0096 5.91348C28.9423 6.18228 28.5385 5.98068 28.5385 6.18228C28.5385 6.51828 28.875 6.65268 29.2115 6.78708C29.75 6.51828 30.5577 6.38388 31.0961 6.58548C31.0961 5.30868 29.5481 4.36788 29.0096 5.91348Z" fill="white"/>
<path d="M32.7788 8.87042C34.7308 8.87042 34.3269 6.51842 35.8077 5.98082C33.7211 5.64482 32.9808 7.25762 32.7788 8.87042Z" fill="white"/>
<path d="M34.3942 5.71192C35.1346 5.51032 35.6058 3.76312 35.0673 3.29272C35.2692 4.30072 34.125 4.43512 34.3942 5.71192Z" fill="white"/>
<path d="M30.625 7.5937C31.2308 7.4593 31.5673 7.5937 31.9038 7.8625C31.5673 6.7201 29.1442 6.5857 28.1346 7.7281C29.4135 7.2577 30.0865 7.7281 30.625 7.5937Z" fill="white"/>
<path d="M30.625 7.99682C29.8846 8.06402 29.6154 7.66082 29.1442 7.86242C29.8846 7.92962 30.2885 8.73602 30.9615 8.87042C31.2981 8.93762 31.8365 8.93762 32.2404 8.87042C32.0385 8.19842 31.1635 7.99682 30.625 7.99682Z" fill="white"/>
<path d="M53.9135 5.44314C54.4519 5.44314 55.0577 5.37594 55.2596 5.37594C55.5288 5.37594 55.7308 5.17434 56 4.90554C56.1346 4.70394 56.2692 4.43514 56.3365 4.16634C56.3365 4.09914 56.4039 4.03194 56.4712 4.03194H56.8077C56.875 4.03194 56.875 4.09914 56.875 4.09914C56.875 4.36794 56.875 5.51034 56.875 5.71194C56.875 6.18234 56.9423 6.85434 56.9423 7.19034C56.9423 7.25754 56.9423 7.25754 56.875 7.32474L56.5385 7.39194C56.4712 7.39194 56.4712 7.39194 56.4039 7.25754C56.4039 7.12314 56.2019 6.71994 56.1346 6.58554C56 6.31674 55.7308 6.11514 55.4615 6.04794C54.9904 5.98074 54.5192 5.98074 53.9808 5.98074V6.51834C53.9808 6.92154 53.9808 9.27354 53.9808 9.47514C53.9808 9.87834 54.1154 9.94554 54.3173 9.94554H55.125C55.1923 9.94554 55.2596 9.94554 55.2596 10.0127V10.4159C55.2596 10.4831 55.2596 10.5503 55.125 10.5503C54.9904 10.5503 54.4519 10.4831 52.9712 10.4831C51.625 10.4831 51.0865 10.5503 50.8846 10.5503C50.8173 10.5503 50.8173 10.5503 50.8173 10.4159V10.0127C50.8173 9.94554 50.8846 9.94554 50.8846 9.94554H51.3558C51.625 9.94554 51.7596 9.87834 51.7596 9.67674C51.7596 9.40794 51.8269 7.66074 51.8269 5.24154V4.30074C51.8269 3.69594 51.8269 1.74714 51.8269 1.61274C51.8269 1.34394 51.625 1.20954 51.2885 1.20954H50.75C50.6827 1.20954 50.6154 1.20954 50.6154 1.14234V0.739136C50.6154 0.671936 50.6827 0.671936 50.6827 0.671936C50.8173 0.671936 51.3558 0.739136 53.0385 0.739136C53.2404 0.739136 56.875 0.671936 57.5481 0.671936C57.8846 0.671936 58.1538 0.604736 58.2885 0.604736C58.3558 0.604736 58.4231 0.671936 58.4231 0.873536L58.9615 3.15834C58.9615 3.22554 58.9615 3.22554 58.8942 3.29274L58.625 3.42714C58.5577 3.42714 58.5577 3.42714 58.4231 3.29274C58.2212 3.02394 57.8846 2.62074 57.3462 2.01594C57.0769 1.74714 56.7404 1.47834 56.4039 1.41114C56.0673 1.34394 54.5865 1.27674 53.9808 1.27674C53.9808 1.47834 53.9808 4.23354 53.9808 5.03994V5.44314H53.9135Z" fill="white"/>
<path d="M61.7885 6.5184C61.6538 6.7872 60.9808 8.736 60.9808 9.1392C60.9808 9.4752 61.1154 9.8112 61.5192 9.744H61.9904C62.125 9.744 62.125 9.8112 62.125 9.8784V10.2144C62.125 10.3488 62.125 10.3488 61.9904 10.3488C61.7885 10.3488 61.25 10.2816 60.1058 10.2816C59.0962 10.2816 58.7596 10.3488 58.5577 10.3488C58.4904 10.3488 58.4904 10.2816 58.4904 10.1472V9.8784C58.4904 9.8112 58.4904 9.744 58.5577 9.744H58.8942C59.2308 9.744 59.5673 9.5424 59.8365 9.1392C60.0385 8.8704 61.0481 6.4512 61.4519 5.1744C61.5865 4.9056 62.6635 1.8816 62.7981 1.5456C62.8654 1.4112 62.9327 1.2096 62.7981 1.0752C62.7308 1.008 62.7308 0.9408 62.7308 0.8736C62.7308 0.8064 62.7308 0.8064 62.8654 0.7392C63.3365 0.672 64.2115 0.2688 64.4135 0.0672C64.6154 0.0672 64.6827 0 64.75 0C64.8173 0 64.8846 0.0672 64.8846 0.2688C65.1538 1.1424 66.2308 4.2336 66.5 5.1744C66.8365 6.2496 67.7115 8.8704 67.9135 9.2064C68.1827 9.6768 68.5192 9.8112 68.7212 9.8112H69.1923C69.2596 9.8112 69.2596 9.8784 69.2596 9.9456V10.2144C69.2596 10.2816 69.2596 10.416 69.125 10.416C68.8558 10.416 68.5865 10.3488 66.7692 10.3488C65.625 10.3488 65.1538 10.416 64.8173 10.416C64.6827 10.416 64.6827 10.3488 64.6827 10.2144V9.9456C64.6827 9.8784 64.6827 9.8112 64.75 9.8112H65.1538C65.5577 9.8112 65.625 9.6768 65.5577 9.3408C65.4231 8.8704 64.8846 7.056 64.75 6.5856L61.7885 6.5184ZM64.6827 5.9136C64.5481 5.5104 63.7404 2.5536 63.6058 2.2176C63.5385 2.016 63.5385 1.8816 63.4712 1.8816C63.4038 1.8816 63.3365 1.9488 63.3365 2.0832C63.2692 2.2848 62.0577 5.5104 61.9904 5.9136H64.6827Z" fill="white"/>
<path d="M72.3558 4.50246C72.3558 4.16646 72.2885 1.68006 72.2885 1.47846C72.2885 1.14246 72.1539 1.00806 71.8173 1.00806H71.1443C71.0769 1.00806 71.0096 1.00806 71.0096 0.940859V0.537659C71.0096 0.470459 71.077 0.470459 71.077 0.470459C71.2116 0.470459 71.952 0.537659 73.2981 0.537659C74.7116 0.537659 75.1827 0.470459 75.3846 0.470459C75.452 0.470459 75.452 0.537659 75.452 0.604859V0.940859C75.452 1.00806 75.3846 1.00806 75.3173 1.00806H74.9135C74.577 1.00806 74.375 1.14246 74.375 1.34406C74.375 1.47846 74.3077 4.56966 74.3077 4.70406V5.77926C74.3077 5.91366 74.375 9.13926 74.375 9.27366C74.375 9.67686 74.5769 9.74406 74.8462 9.74406H75.3846C75.452 9.74406 75.5193 9.74406 75.5193 9.81126V10.2145C75.5193 10.2817 75.452 10.2817 75.3846 10.2817C75.25 10.2817 74.6443 10.2145 73.3654 10.2145C71.8846 10.2145 71.2789 10.2817 71.1443 10.2817C71.0769 10.2817 71.0096 10.2817 71.0096 10.1473V9.74406C71.0096 9.67686 71.0769 9.67686 71.1443 9.67686H71.5481C71.8173 9.67686 72.0866 9.60966 72.1539 9.27366C72.1539 9.07206 72.2212 6.04806 72.2212 5.30886L72.3558 4.50246Z" fill="white"/>
<path d="M78.8846 3.96486C78.8846 2.95686 78.8846 2.01606 78.8846 1.68006C78.8846 1.20966 78.6827 1.00806 78.4808 1.00806H77.9423C77.875 1.00806 77.875 0.940859 77.875 0.940859V0.537659C77.875 0.470459 77.875 0.470459 77.9423 0.470459C78.0769 0.470459 78.4808 0.537659 80.0288 0.537659C80.8365 0.537659 82.0481 0.470459 82.5865 0.470459C83.6635 0.470459 84.4712 0.873659 85.0769 1.41126C85.5481 1.88166 85.8846 2.41926 85.8846 2.95686C85.8846 4.70406 84.5385 5.51046 83.3269 5.64486V5.71206C83.7308 5.84646 84 6.11526 84.2692 6.45126C84.4712 6.65286 85.2115 7.92966 85.3462 8.06406C85.4135 8.19846 86.1538 9.27366 86.4904 9.54246C86.625 9.74406 87.1635 9.81126 87.5 9.81126C87.5673 9.81126 87.6346 9.87846 87.6346 9.94566V10.2817C87.6346 10.3489 87.6346 10.4161 87.5 10.4161C87.3654 10.4161 87.0288 10.3489 85.9519 10.3489C85.5481 10.3489 85.0096 10.3489 84.6058 10.4161C84.2019 10.0801 83.3269 8.46726 83.0577 7.99686C82.5865 7.05606 81.9808 6.04806 81.375 6.04806H80.9038V6.78726C80.9038 7.59366 80.9712 9.13926 80.9712 9.34086C80.9712 9.60966 81.1058 9.87846 81.3077 9.87846H81.8462C81.9135 9.87846 81.9808 9.94566 81.9808 10.0129V10.3489C81.9808 10.4161 81.9808 10.4833 81.7788 10.4833C81.7788 10.4833 81.4423 10.4161 79.9615 10.4161C78.4808 10.4161 78.1442 10.4833 78.0096 10.4833C77.875 10.4833 77.875 10.4161 77.875 10.3489V10.0129C77.875 9.94566 77.875 9.87846 77.9423 9.87846H78.3462C78.6827 9.87846 78.8846 9.81126 78.8846 9.40806C78.8846 8.06406 78.8846 6.72006 78.8846 5.37606V3.96486ZM80.8365 5.44326C81.1058 5.44326 81.2404 5.44326 81.375 5.44326C83.1923 5.44326 83.6635 3.69606 83.6635 3.02406C83.6635 2.35206 83.4615 1.74726 83.125 1.47846C82.6538 1.00806 81.9808 0.873659 81.5769 0.873659C81.3077 0.873659 81.1731 0.873659 81.0385 1.00806C80.9712 1.07526 80.9038 1.20966 80.9038 1.41126L80.8365 5.44326Z" fill="white"/>
<path d="M92.5481 5.91366C92.5481 6.18246 92.5481 9.13926 92.6154 9.67686H93.4231C94.0961 9.67686 94.7019 9.67686 95.4423 9.60966C96.1827 9.54246 97.125 7.86246 97.3269 7.32486C97.3942 7.25766 97.3942 7.19046 97.4615 7.25766L97.7308 7.39206C97.7981 7.39206 97.7981 7.45926 97.7308 7.52646C97.6634 7.59366 97.125 9.94566 97.0577 10.2817C96.7211 10.2817 92.6827 10.2145 91.4038 10.2145C90.0577 10.2145 89.5192 10.2817 89.3173 10.2817C89.25 10.2817 89.1827 10.2817 89.1827 10.1473V9.81126C89.1827 9.74406 89.1827 9.74406 89.25 9.74406H89.6538C90.1923 9.74406 90.2596 9.54246 90.2596 9.40806C90.2596 9.13926 90.3269 5.71206 90.3269 4.83846V4.03206C90.3269 3.15846 90.3269 1.68006 90.2596 1.47846C90.2596 1.14246 90.1923 1.00806 89.8558 1.00806H89.3173C89.25 1.00806 89.25 0.940859 89.25 0.873659V0.537659C89.25 0.470459 89.25 0.470459 89.3173 0.470459C89.4519 0.470459 89.9904 0.537659 91.2692 0.537659C92.8846 0.537659 93.4904 0.470459 93.625 0.470459C93.7596 0.470459 93.7596 0.537659 93.7596 0.604859V0.940859C93.7596 1.00806 93.7596 1.07526 93.625 1.07526H92.9519C92.5481 1.07526 92.4808 1.20966 92.4808 1.61286C92.4808 1.81446 92.4134 3.89766 92.4134 4.83846L92.5481 5.91366Z" fill="white"/>
<path d="M102.779 4.97292C103.452 4.97292 104.058 4.90572 104.192 4.90572C104.462 4.83852 104.596 4.70412 104.865 4.50252C105 4.30092 105.202 3.89772 105.202 3.62892C105.202 3.56172 105.269 3.49452 105.337 3.49452L105.74 3.56172C105.808 3.56172 105.875 3.56172 105.875 3.69612C105.673 3.83052 105.673 4.56972 105.673 5.04012C105.673 5.64492 105.74 6.31692 105.74 6.65292C105.74 6.72012 105.673 6.72012 105.606 6.78732L105.269 6.85452C105.202 6.85452 105.202 6.85452 105.135 6.72012C105.067 6.51852 104.933 6.18252 104.865 5.98092C104.731 5.71212 104.394 5.51052 104.125 5.51052C103.721 5.44332 103.317 5.44332 102.712 5.44332V6.24972C102.712 6.98892 102.779 8.33292 102.779 8.60172C102.779 9.34092 102.913 9.54252 103.115 9.67692C103.317 9.74412 103.587 9.81132 104.26 9.81132C104.529 9.81132 105.067 9.81132 105.404 9.74412C105.673 9.74412 106.077 9.60972 106.481 9.27372C106.817 9.00492 107.625 8.13132 107.894 7.79532C107.962 7.72812 107.962 7.72812 108.029 7.72812L108.298 7.86252C108.365 7.86252 108.365 7.92972 108.365 7.99692L107.692 10.0801C107.625 10.2145 107.558 10.2817 107.356 10.2817C107.288 10.2817 106.952 10.2817 106.077 10.2817C105.202 10.2817 103.721 10.2817 101.298 10.2817C100.76 10.2817 100.423 10.2817 100.087 10.2817C99.8173 10.2817 99.6154 10.2817 99.4808 10.2817C99.4135 10.2817 99.3462 10.2145 99.3462 10.1473V9.87852C99.3462 9.81132 99.4135 9.74412 99.4808 9.74412H99.8846C100.558 9.74412 100.558 9.67692 100.558 9.13932V4.50252C100.558 3.36012 100.558 1.61292 100.49 1.47852C100.423 1.00812 100.288 0.94092 99.952 0.94092H99.4135C99.3462 0.94092 99.3462 0.87372 99.3462 0.80652V0.47052C99.3462 0.40332 99.3462 0.40332 99.4135 0.40332C99.75 0.40332 100.221 0.47052 101.5 0.47052H106.413C106.615 0.47052 106.885 0.47052 106.952 0.47052C107.019 0.47052 107.019 0.47052 107.087 0.53772C107.154 0.73932 107.625 2.62092 107.692 2.75532C107.692 2.82252 107.692 2.82252 107.625 2.88972L107.423 3.02412C107.356 3.02412 107.288 3.02412 107.288 2.95692C107.221 2.82252 105.942 1.61292 105.673 1.41132C105.404 1.20972 105 1.07532 104.596 1.00812L102.779 0.94092V4.97292Z" fill="white"/>
<path d="M111.327 4.43532C111.327 4.09932 111.26 1.61292 111.26 1.41132C111.26 1.07532 111.125 0.94092 110.788 0.94092H110.115C110.048 0.94092 109.981 0.94092 109.981 0.87372V0.47052C109.981 0.40332 110.048 0.40332 110.048 0.40332C110.183 0.40332 110.923 0.47052 112.269 0.47052C113.683 0.47052 114.154 0.40332 114.356 0.40332C114.423 0.40332 114.423 0.47052 114.423 0.53772V0.87372C114.423 0.94092 114.356 0.94092 114.288 0.94092H113.885C113.548 0.94092 113.346 1.07532 113.346 1.27692C113.346 1.41132 113.279 4.50252 113.279 4.63692V5.71212C113.279 5.84652 113.346 9.07212 113.346 9.20652C113.346 9.60972 113.548 9.67692 113.817 9.67692H114.356C114.423 9.67692 114.49 9.67692 114.49 9.74412V10.1473C114.49 10.2145 114.423 10.2145 114.356 10.2145C114.221 10.2145 113.615 10.1473 112.337 10.1473C110.856 10.1473 110.25 10.2145 110.115 10.2145C110.048 10.2145 109.981 10.2145 109.981 10.0801V9.67692C109.981 9.60972 110.048 9.60972 110.115 9.60972H110.519C110.788 9.60972 111.058 9.54252 111.125 9.20652C111.125 9.00492 111.192 5.98092 111.192 5.24172L111.327 4.43532Z" fill="white"/>
<path d="M126.135 8.93766C126.135 9.13926 126.202 9.27366 126.202 9.40806C126.202 9.54246 126.135 9.54246 126 9.60966C124.856 10.1473 123.712 10.4833 121.894 10.4833C120.413 10.4833 118.798 10.0129 117.856 8.87046C116.981 7.92966 116.577 6.72006 116.577 5.04006C116.577 3.76326 117.183 2.41926 118.192 1.54566C119.202 0.67206 120.481 0.20166 122.096 0.20166C123.51 0.20166 124.519 0.60486 124.99 0.87366C125.125 0.94086 125.26 0.94086 125.327 0.80646L125.462 0.60486C125.529 0.53766 125.529 0.47046 125.663 0.47046C125.798 0.47046 125.865 0.53766 125.865 0.73926L126.067 3.62886C126.067 3.76326 126.067 3.89766 126 3.89766L125.596 3.96486C125.529 3.96486 125.462 3.96486 125.462 3.83046C125.26 3.15846 124.788 2.28486 124.183 1.74726C123.644 1.20966 122.904 0.87366 121.962 0.87366C121.221 0.87366 120.548 1.14246 119.875 1.94886C119.202 2.68806 118.731 3.89766 118.798 5.10726C118.798 6.72006 119.269 8.19846 120.01 8.93766C120.683 9.60966 121.221 9.87846 122.163 9.87846C122.904 9.87846 123.308 9.81126 123.712 9.60966C123.981 9.47526 124.048 9.00486 124.048 8.33286V7.32486C124.048 6.85446 123.913 6.65286 123.577 6.65286H122.971C122.904 6.65286 122.904 6.58566 122.904 6.51846V6.11526C122.904 6.04806 122.904 6.04806 122.971 6.04806C123.106 6.04806 123.779 6.11526 125.058 6.11526C126.337 6.11526 126.875 6.04806 126.942 6.04806C127.077 6.04806 127.077 6.11526 127.077 6.18246V6.51846C127.077 6.58566 127.077 6.65286 127.01 6.65286H126.538C126.269 6.65286 126.135 6.72006 126.135 7.12326V8.93766Z" fill="white"/>
<path d="M129.971 4.7712C129.971 3.8976 129.971 2.016 129.971 1.8144C129.971 1.0752 129.904 0.940799 129.5 0.940799H128.962C128.827 0.940799 128.827 0.873599 128.827 0.806399V0.537599C128.827 0.470399 128.827 0.403199 128.962 0.403199C129.231 0.403199 129.635 0.470399 131.048 0.470399C132.394 0.470399 132.933 0.403199 133.135 0.403199C133.269 0.403199 133.269 0.470399 133.269 0.537599V0.806399C133.269 0.873599 133.269 0.940799 133.135 0.940799H132.798C132.327 0.940799 132.26 1.2096 132.192 1.68C132.192 1.8816 132.125 3.696 132.125 4.5024V4.704C132.125 4.7712 132.192 4.8384 132.327 4.8384H136.5C136.702 4.8384 136.769 4.8384 136.769 4.6368V4.5024C136.769 3.696 136.702 1.7472 136.702 1.6128C136.702 1.1424 136.635 0.873599 136.365 0.873599H135.827C135.692 0.873599 135.692 0.806399 135.692 0.739199V0.403199C135.692 0.335999 135.692 0.268799 135.827 0.268799C136.096 0.268799 136.702 0.335999 137.846 0.335999C138.99 0.335999 139.596 0.268799 139.798 0.268799C139.933 0.268799 140 0.335999 140 0.403199V0.671999C140 0.739199 140 0.806399 139.798 0.806399H139.394C138.99 0.806399 138.923 1.0752 138.923 1.5456C138.923 1.7472 138.923 4.0992 138.923 4.5696V5.04C138.923 5.5104 138.923 8.1312 138.99 8.8704C138.99 9.3408 139.125 9.5424 139.529 9.5424H140C140.135 9.5424 140.135 9.6096 140.135 9.6768V10.0128C140.135 10.08 140.135 10.1472 140 10.1472C139.798 10.1472 139.327 10.08 138.048 10.08C136.635 10.08 136.163 10.1472 135.894 10.1472C135.76 10.1472 135.692 10.08 135.692 10.0128V9.6768C135.692 9.6096 135.692 9.5424 135.827 9.5424H136.433C136.769 9.5424 136.837 9.2736 136.837 8.9376C136.837 8.2656 136.904 6.048 136.904 5.5776C136.904 5.4432 136.769 5.4432 136.567 5.4432H132.394C132.26 5.4432 132.192 5.5104 132.192 5.5776V5.7792C132.192 6.1152 132.26 8.2656 132.26 9.2064C132.26 9.5424 132.394 9.6768 132.731 9.6768H133.135C133.269 9.6768 133.269 9.6768 133.269 9.8112V10.1472C133.269 10.2144 133.269 10.2816 133.135 10.2816C132.865 10.2816 132.394 10.2144 131.25 10.2144C129.769 10.2144 129.365 10.2816 129.096 10.2816C128.962 10.2816 128.962 10.2144 128.962 10.1472V9.8784C128.962 9.8112 128.962 9.744 129.096 9.744H129.769C130.106 9.744 130.173 9.408 130.173 9.072C130.173 8.4 130.24 5.712 130.24 5.376L129.971 4.7712Z" fill="white"/>
<path d="M52.0289 19.7569C52.0289 19.4209 51.9616 17.4049 51.9616 17.2033C51.8942 16.8673 51.7596 16.8001 51.4904 16.8001H50.8173C50.75 16.8001 50.6827 16.8001 50.6827 16.7329V16.3297C50.6827 16.2625 50.75 16.2625 50.75 16.2625C50.9519 16.2625 51.5577 16.3297 52.9039 16.3297C53.2404 16.3297 54.6539 16.2625 54.9904 16.2625C56.875 16.2625 58.3558 16.3969 59.7019 17.5393C60.6442 18.2785 61.25 19.4881 61.25 21.0336C61.25 22.6465 60.7789 23.7217 59.9039 24.6625C58.5577 26.1409 56.2019 26.1409 55.3269 26.1409C55.125 26.1409 53.4423 26.0737 52.7019 26.0737C51.4904 26.0737 50.9519 26.1409 50.75 26.1409C50.6827 26.1409 50.6827 26.1409 50.6827 26.0065V25.6705C50.6827 25.6033 50.75 25.6032 50.8173 25.6032H51.5577C51.8269 25.6032 51.9616 25.4688 52.0289 25.2672C52.0962 24.9984 52.0962 21.8401 52.0962 20.7649L52.0289 19.7569ZM54.1827 21.1009C54.1827 21.3025 54.1827 23.6545 54.1827 24.5281C54.1827 24.7969 54.25 24.9984 54.4519 25.2672C54.5866 25.536 55.125 25.6032 55.5962 25.6032C56.4039 25.6032 57.4808 25.2 58.2212 24.2592C58.7596 23.52 59.2308 22.3777 59.2308 21.1009C59.2308 19.9585 58.7596 18.8161 58.0866 18.0769C57.2789 17.2705 56 16.8001 55.1923 16.8001C54.7885 16.8001 54.5866 16.8001 54.3846 16.9345C54.1827 17.0017 54.1154 17.2705 54.1154 17.5393C54.1154 18.1441 54.1154 19.9585 54.1154 20.1601L54.1827 21.1009Z" fill="white"/>
<path d="M64.0096 20.2945C64.0096 19.9585 63.9423 17.4721 63.9423 17.2705C63.9423 16.9345 63.8077 16.8001 63.4712 16.8001H62.7981C62.7308 16.8001 62.6635 16.8001 62.6635 16.7329V16.3297C62.6635 16.2625 62.7308 16.2625 62.7308 16.2625C62.8654 16.2625 63.6058 16.3297 64.9519 16.3297C66.3654 16.3297 66.8366 16.2625 67.0385 16.2625C67.1058 16.2625 67.1058 16.3297 67.1058 16.3969V16.7329C67.1058 16.8001 67.0385 16.8001 66.9712 16.8001H66.5673C66.2308 16.8001 66.0289 16.9345 66.0289 17.1361C66.0289 17.2705 65.9616 20.3617 65.9616 20.4961V21.5712C65.9616 21.7056 66.0289 24.9312 66.0289 25.0656C66.0289 25.4689 66.2308 25.5361 66.5 25.5361H67.0385C67.1058 25.5361 67.1731 25.536 67.1731 25.6032V26.0065C67.1731 26.0737 67.1058 26.0737 67.0385 26.0737C66.9039 26.0737 66.2981 26.0065 65.0193 26.0065C63.5385 26.0065 62.9327 26.0737 62.7981 26.0737C62.7308 26.0737 62.6635 26.0736 62.6635 25.9392V25.5361C62.6635 25.4689 62.7308 25.4689 62.7981 25.4689H63.2019C63.4712 25.4689 63.7404 25.4017 63.8077 25.0656C63.8077 24.864 63.875 21.8401 63.875 21.1009V20.2945H64.0096Z" fill="white"/>
<path d="M70.3365 25.0655C69.3269 24.1247 68.7885 22.5791 68.7885 21.3695C68.7885 19.9583 69.2596 18.6143 70.2019 17.6063C71.0096 16.7327 72.1538 16.1279 73.9038 16.1279C75.1827 16.1279 76.1923 16.4639 76.7308 16.7327C76.9327 16.7999 77 16.7999 77 16.7327L77.1346 16.3967C77.1346 16.3295 77.2019 16.3295 77.4038 16.3295C77.6058 16.3295 77.6731 16.3295 77.6731 16.5311C77.6731 16.7999 77.9423 19.1519 78.0096 19.5551C78.0096 19.6223 78.0096 19.6895 77.9423 19.7567L77.6058 19.8239C77.5385 19.8239 77.4711 19.8239 77.4711 19.6895C77.3365 19.1519 76.9327 18.4127 76.3269 17.8079C75.7211 17.2031 74.9808 16.7999 73.9038 16.7999C71.8846 16.7999 71.0096 18.6815 71.0096 20.6975C71.0096 21.5711 71.2788 23.2511 72.2211 24.3263C73.0961 25.2671 73.9038 25.3343 74.375 25.3343C75.9904 25.3343 77.1346 24.5951 77.6731 23.8559C77.7404 23.7215 77.8077 23.7215 77.875 23.7215L78.1442 23.9231C78.2115 23.9231 78.2115 23.9903 78.1442 24.0575C77.3365 25.1999 75.9904 26.3423 74.0385 26.3423C72.2211 26.3423 71.2115 25.8719 70.3365 25.0655Z" fill="white"/>
<path d="M82.7212 20.7649H82.9904C83.125 20.7649 83.2596 20.6977 83.3942 20.5633C83.6635 20.3617 85.8846 17.5393 86.0865 17.2705C86.3558 16.9345 86.0865 16.7329 85.8173 16.7329H85.5481C85.4808 16.7329 85.4808 16.7329 85.4808 16.6657V16.3297C85.4808 16.2625 85.4808 16.2625 85.5481 16.2625C85.6827 16.2625 86.2885 16.3297 87.3654 16.3297C88.0385 16.3297 88.5096 16.2625 88.7115 16.2625C88.7788 16.2625 88.7788 16.2625 88.7788 16.3297V16.7329C88.7788 16.8001 88.7115 16.8001 88.6442 16.8001H88.4423C88.2404 16.8001 87.9038 16.8673 87.6346 17.0689C86.8942 17.5393 85.0769 19.6225 84.6058 20.2273C85.4808 21.3697 87.7692 24.528 88.375 25.2672C88.6442 25.6032 88.9808 25.6032 89.1154 25.6032H89.25C89.3173 25.6032 89.3173 25.6705 89.3173 25.6705V26.0737C89.3173 26.1409 89.3173 26.1409 89.1827 26.1409C89.0481 26.1409 88.5769 26.0737 87.1635 26.0737C86.0192 26.0737 85.4808 26.1409 85.2788 26.1409C85.2115 26.1409 85.2115 26.1409 85.2115 26.0065V25.6705C85.2115 25.6033 85.2115 25.6032 85.2788 25.6032H85.4808C85.75 25.6032 85.75 25.3344 85.6827 25.2672C85.5481 24.9984 83.3942 21.7729 83.1923 21.5041C83.125 21.4369 82.9904 21.3025 82.7885 21.3025H82.5865V22.3105C82.5865 22.9825 82.5865 25.0656 82.6538 25.2672C82.6538 25.4688 82.7885 25.6032 82.9904 25.6032H83.3942C83.4615 25.6032 83.5288 25.6033 83.5288 25.6705V26.0737C83.5288 26.1409 83.5288 26.1409 83.4615 26.1409C83.3269 26.1409 82.8558 26.0737 81.5769 26.0737C80.2981 26.0737 79.8269 26.1409 79.6923 26.1409C79.625 26.1409 79.625 26.1409 79.625 26.0737V25.6705C79.625 25.6033 79.6923 25.6032 79.6923 25.6032H80.0962C80.3654 25.6032 80.4327 25.4689 80.5 25.3345C80.5 25.2001 80.5673 22.7137 80.5673 20.9665V20.1601C80.5673 19.8913 80.5 17.2705 80.5 17.1361C80.5 17.0017 80.4327 16.8001 80.0962 16.8001H79.7596C79.6923 16.8001 79.625 16.8001 79.625 16.7329V16.3297C79.625 16.2625 79.625 16.2625 79.7596 16.2625C79.8942 16.2625 80.3654 16.3297 81.5769 16.3297C82.7885 16.3297 83.2596 16.2625 83.4615 16.2625C83.5288 16.2625 83.5961 16.2625 83.5961 16.3969V16.7329C83.5961 16.8001 83.5962 16.8001 83.5288 16.8001H83.1923C82.9231 16.8001 82.7212 16.8673 82.7212 17.2033C82.7212 17.4049 82.6538 19.5553 82.6538 20.2273L82.7212 20.7649Z" fill="white"/>
<path d="M92.0096 20.2945C92.0096 19.9585 91.9423 17.4721 91.9423 17.2705C91.9423 16.9345 91.8077 16.8001 91.4711 16.8001H90.7981C90.7308 16.8001 90.6635 16.8001 90.6635 16.7329V16.3297C90.6635 16.2625 90.7308 16.2625 90.7308 16.2625C90.8654 16.2625 91.6058 16.3297 92.9519 16.3297C94.3654 16.3297 94.8365 16.2625 95.0385 16.2625C95.1058 16.2625 95.1058 16.3297 95.1058 16.3969V16.7329C95.1058 16.8001 95.0385 16.8001 94.9712 16.8001H94.5673C94.2308 16.8001 94.0288 16.9345 94.0288 17.1361C94.0288 17.2705 93.9615 20.3617 93.9615 20.4961V21.5712C93.9615 21.7056 94.0288 24.9312 94.0288 25.0656C94.0288 25.4689 94.2308 25.5361 94.5 25.5361H95.0385C95.1058 25.5361 95.1731 25.536 95.1731 25.6032V26.0065C95.1731 26.0737 95.1058 26.0737 95.0385 26.0737C94.9038 26.0737 94.2981 26.0065 93.0192 26.0065C91.5385 26.0065 90.9327 26.0737 90.7981 26.0737C90.7308 26.0737 90.6635 26.0736 90.6635 25.9392V25.5361C90.6635 25.4689 90.7308 25.4689 90.7981 25.4689H91.2019C91.4711 25.4689 91.7404 25.4017 91.8077 25.0656C91.8077 24.864 91.875 21.8401 91.875 21.1009V20.2945H92.0096Z" fill="white"/>
<path d="M105.808 22.0417C105.808 20.8321 105.808 20.0929 105.74 19.4209C105.74 18.8833 105.673 17.5393 105.606 17.3377C105.538 17.0017 105.202 16.8001 104.865 16.8001H104.394C104.327 16.8001 104.327 16.7329 104.327 16.6657V16.3297C104.327 16.2625 104.327 16.2625 104.462 16.2625C104.596 16.2625 105.067 16.3297 106.077 16.3297C106.885 16.3297 107.221 16.2625 107.423 16.2625C107.558 16.2625 107.558 16.2625 107.558 16.3969V16.7329C107.558 16.8001 107.558 16.8673 107.49 16.8673H107.087C106.817 16.8673 106.683 17.1361 106.683 17.6065C106.615 18.5473 106.346 21.7057 106.346 23.5201V25.8721C106.346 26.0737 106.346 26.3425 106.144 26.3425C105.942 26.3425 105.74 26.2753 105.606 26.1409C105.337 25.9393 104.664 25.2001 103.856 24.1921C102.846 22.9825 101.769 21.7056 101.5 21.3696C101.231 21.1009 99.3462 18.6817 99.0097 18.2785H98.9423V21.1009C98.9423 22.2433 99.077 23.9905 99.077 24.4609C99.077 25.2673 99.3462 25.6705 99.952 25.6705H100.289C100.356 25.6705 100.423 25.7377 100.423 25.8049V26.1409C100.423 26.2081 100.423 26.2752 100.289 26.2752C100.154 26.2752 99.3462 26.2081 98.6731 26.2081C98.2693 26.2081 97.2597 26.2752 97.125 26.2752C97.0577 26.2752 97.0577 26.2753 97.0577 26.1409V25.8049C97.0577 25.7377 97.0577 25.7376 97.125 25.7376H97.5962C97.9327 25.7376 98.1347 25.2673 98.202 24.3937C98.202 24.1249 98.3366 21.9073 98.3366 19.8241V18.5473C98.3366 17.7409 97.8654 16.9345 97.125 16.9345H96.7885C96.7212 16.9345 96.7212 16.8673 96.7212 16.8673V16.4641C96.7212 16.3969 96.7212 16.3969 96.7885 16.3969C96.8558 16.3969 96.9904 16.3969 97.2597 16.3969C97.5289 16.3969 98 16.3969 98.7404 16.3969C99.2116 16.3969 99.6154 16.3969 99.8173 16.3969C100.019 16.3969 100.087 16.4641 100.221 16.5985C100.288 16.6657 103.048 20.0257 103.452 20.5633C103.654 20.8321 105.673 23.3185 105.808 23.5201H105.875L105.808 22.0417Z" fill="white"/>
<path d="M109.846 23.0496C109.913 23.0496 109.913 23.0496 109.913 23.184C109.913 23.5872 110.115 24.192 110.452 24.7296C110.856 25.4016 111.529 25.6704 112.202 25.6704C112.875 25.6704 113.952 25.2 113.952 24.1248C113.952 22.9824 113.75 22.6464 111.933 21.9744C111.529 21.84 110.654 21.3696 109.913 20.7648C109.442 20.3616 109.24 19.6224 109.24 18.816C109.24 17.9424 109.442 17.4048 110.25 16.8C110.856 16.3296 111.394 16.128 112.269 16.128C113.279 16.128 113.817 16.2624 114.087 16.3968C114.221 16.464 114.356 16.3968 114.423 16.3296L114.625 16.128C114.692 16.0608 114.76 16.0608 114.827 16.0608C114.894 16.0608 114.962 16.1952 114.962 16.3296L115.163 18.6816C115.163 18.7488 115.163 18.7488 115.096 18.7488L114.76 18.816C114.692 18.816 114.625 18.816 114.558 18.7488C114.423 18.3456 114.154 17.808 113.683 17.3376C113.346 16.9344 112.942 16.7328 112.269 16.7328C111.26 16.7328 110.788 17.6064 110.788 18.0096C110.788 18.5472 110.788 18.9504 111.125 19.2864C111.462 19.6896 112.269 20.0256 112.942 20.16C113.615 20.3616 114.154 20.6976 114.692 21.2352C115.231 21.7056 115.433 22.3104 115.433 23.3184C115.433 24.9984 114.221 26.4096 112.404 26.4096C111.125 26.4096 110.519 26.208 109.913 25.8048C109.779 25.6704 109.644 25.6704 109.577 25.6704C109.51 25.6704 109.442 25.7376 109.375 25.9392C109.308 26.0736 109.24 26.0736 109.106 26.0736C108.971 26.0736 108.904 26.0064 108.904 25.872L109.106 23.2512C109.106 23.184 109.173 23.184 109.24 23.184L109.846 23.0496Z" fill="white"/>
<path d="M119.471 25.4015C118.462 24.7967 117.452 23.3183 117.452 21.3023C117.452 20.4287 117.654 19.1519 118.731 17.8751C119.942 16.3967 121.558 16.1279 122.769 16.1279C123.913 16.1279 124.99 16.3295 126.135 17.2031C127.212 18.0095 128.019 19.4207 128.019 21.3695C128.019 22.3775 127.683 23.4527 127.01 24.3935C126.135 25.5359 124.923 26.3423 122.702 26.3423C121.827 26.2751 120.615 26.0735 119.471 25.4015ZM125.933 21.4367C125.933 18.4127 123.913 16.7327 122.769 16.7327C122.5 16.7327 121.827 16.6655 120.952 17.4719C120.144 18.2783 119.74 19.6895 119.74 20.8319C119.74 24.3935 121.76 25.6703 122.971 25.6703C125.462 25.6703 125.933 22.5791 125.933 21.4367Z" fill="white"/>
<path d="M138.25 22.0417C138.25 20.8321 138.25 20.0929 138.183 19.4209C138.183 18.8833 138.115 17.5393 138.048 17.3377C137.981 17.0017 137.644 16.8001 137.308 16.8001H136.837C136.769 16.8001 136.769 16.7329 136.769 16.6657V16.3297C136.769 16.2625 136.769 16.2625 136.904 16.2625C137.038 16.2625 137.51 16.3297 138.519 16.3297C139.327 16.3297 139.663 16.2625 139.865 16.2625C140 16.2625 140 16.2625 140 16.3969V16.7329C140 16.8001 140 16.8673 139.933 16.8673H139.529C139.26 16.8673 139.125 17.1361 139.125 17.6065C139.058 18.5473 138.788 21.7057 138.788 23.5201V25.8721C138.788 26.0737 138.788 26.3425 138.587 26.3425C138.385 26.3425 138.183 26.2753 138.048 26.1409C137.779 25.9393 137.106 25.2001 136.298 24.1921C135.288 22.9825 134.212 21.7056 133.942 21.3696C133.673 21.1009 131.788 18.6817 131.452 18.2785H131.317V21.1009C131.317 22.2433 131.452 23.9905 131.452 24.4609C131.452 25.2673 131.721 25.6705 132.327 25.6705H132.664C132.731 25.6705 132.798 25.7377 132.798 25.8049V26.1409C132.798 26.2081 132.798 26.2752 132.664 26.2752C132.529 26.2752 131.721 26.2081 131.048 26.2081C130.644 26.2081 129.635 26.2752 129.5 26.2752C129.433 26.2752 129.433 26.2753 129.433 26.1409V25.8049C129.433 25.7377 129.433 25.7376 129.5 25.7376H129.971C130.308 25.7376 130.51 25.2673 130.577 24.3937C130.577 24.1249 130.712 21.9073 130.712 19.8241V18.5473C130.712 17.7409 130.24 16.9345 129.5 16.9345H129.163C129.096 16.9345 129.096 16.8673 129.096 16.8673V16.4641C129.096 16.3969 129.096 16.3969 129.163 16.3969C129.231 16.3969 129.365 16.3969 129.635 16.3969C129.904 16.3969 130.375 16.3969 131.115 16.3969C131.587 16.3969 131.99 16.3969 132.192 16.3969C132.394 16.3969 132.462 16.4641 132.596 16.5985C132.663 16.6657 135.423 20.0257 135.827 20.5633C136.029 20.8321 138.048 23.3185 138.183 23.5201H138.25V22.0417Z" fill="white"/>
<path d="M51.9615 32.928C51.9615 32.592 51.8942 32.4576 51.6923 32.4576H51.2885C51.2212 32.4576 51.2212 32.4576 51.2212 32.3904V32.1888C51.2212 32.1216 51.2212 32.1216 51.2885 32.1216C51.3558 32.1216 51.8269 32.1216 52.7692 32.1216C53.5769 32.1216 53.9808 32.1216 54.1154 32.1216C54.1827 32.1216 54.1827 32.1216 54.1827 32.1888V32.4576C54.1827 32.5248 54.1827 32.5248 54.1154 32.5248H53.7789C53.4423 32.5248 53.3077 32.7264 53.3077 32.8608C53.3077 32.928 53.3077 33.6 53.3077 34.0704V34.6752C53.3077 35.1456 53.375 36.288 53.375 36.624C53.375 37.0272 53.4423 37.4304 53.6442 37.6992C53.9135 38.0352 54.3846 38.2368 54.7885 38.2368C55.125 38.2368 55.5962 38.0352 55.8654 37.8336C56.2019 37.4976 56.4039 37.0272 56.4039 36.3552V34.944C56.4039 34.2048 56.3365 33.1968 56.2692 32.9952C56.2019 32.7264 56.0673 32.592 55.9327 32.592H55.6635C55.5962 32.592 55.5962 32.592 55.5962 32.5248V32.256C55.5962 32.1888 55.5962 32.1888 55.6635 32.1888C55.7308 32.1888 56.2019 32.1888 56.8077 32.1888C57.2789 32.1888 57.6154 32.1888 57.6827 32.1888C57.75 32.1888 57.75 32.256 57.75 32.256V32.4576C57.75 32.5248 57.75 32.5248 57.6827 32.5248H57.4135C57.0769 32.5248 57.0096 32.7936 57.0096 32.8608C57.0096 32.9952 57.0096 34.272 57.0096 34.3392C57.0096 34.4736 57.0096 36.0864 56.9423 36.4224C56.875 37.1616 56.6731 37.7664 56.2019 38.1696C55.7981 38.5056 55.1923 38.7072 54.5865 38.7072C54.1827 38.7072 53.5769 38.64 53.1731 38.5056C52.7692 38.304 52.3654 37.9008 52.0962 37.296C51.9615 36.8928 51.8942 36.288 51.8942 35.0784L51.9615 32.928Z" fill="white"/>
<path d="M67.1731 35.8847C67.1731 35.0783 67.1731 34.6079 67.1731 34.2047C67.1731 33.8687 67.1058 32.9951 67.1058 32.7935C67.0385 32.5919 66.8366 32.4575 66.6346 32.4575H66.3654C66.2981 32.4575 66.2981 32.4575 66.2981 32.3903V32.1887C66.2981 32.1215 66.2981 32.1215 66.3654 32.1215C66.4327 32.1215 66.7692 32.1215 67.4423 32.1215C67.9808 32.1215 68.1827 32.1215 68.3173 32.1215C68.3846 32.1215 68.3846 32.1215 68.3846 32.1887V32.3903C68.3846 32.4575 68.3846 32.4575 68.3173 32.4575H68.0481C67.9135 32.4575 67.7789 32.5919 67.7789 32.9279C67.7116 33.5327 67.5769 35.6159 67.5769 36.7583V38.3039C67.5769 38.4383 67.5769 38.5727 67.4423 38.5727C67.3077 38.5727 67.1731 38.5055 67.1058 38.4383C66.9712 38.3039 66.5 37.8335 65.9616 37.1615C65.2885 36.4223 64.5481 35.5487 64.4135 35.3471C64.2789 35.1455 63 33.5999 62.7981 33.3311H62.7308V35.1455C62.7308 35.8847 62.7981 37.0271 62.7981 37.3631C62.7981 37.9007 63 38.1695 63.3366 38.1695H63.5385C63.6058 38.1695 63.6058 38.1695 63.6058 38.2367V38.4383C63.6058 38.5055 63.6058 38.5055 63.5385 38.5055C63.4712 38.5055 62.9327 38.5055 62.4616 38.5055C62.1923 38.5055 61.5866 38.5055 61.4519 38.5055C61.3846 38.5055 61.3846 38.5055 61.3846 38.4383V38.1695C61.3846 38.1695 61.3846 38.1023 61.4519 38.1023H61.7885C61.9904 38.1023 62.125 37.8335 62.1923 37.2287C62.1923 37.0271 62.2596 35.6159 62.2596 34.2719V33.4655C62.2596 32.9279 61.9231 32.3903 61.4519 32.3903H61.25C61.1827 32.3903 61.1827 32.3231 61.1827 32.3231V32.0543C61.1827 31.9871 61.1827 31.9871 61.25 31.9871C61.3173 31.9871 61.3846 31.9871 61.5192 31.9871C61.7212 31.9871 61.9904 31.9871 62.4616 31.9871C62.7981 31.9871 63.0673 31.9871 63.1346 31.9871C63.2692 31.9871 63.3366 32.0543 63.4039 32.1215C63.4712 32.1887 65.2212 34.3391 65.4904 34.6751C65.625 34.8095 66.9712 36.4895 67.0385 36.6239H67.1058L67.1731 35.8847Z" fill="white"/>
<path d="M72.9616 34.7424C72.9616 34.5408 72.9616 32.8608 72.8943 32.7936C72.8943 32.592 72.7596 32.4576 72.625 32.4576H72.2212C72.1539 32.4576 72.1539 32.4576 72.1539 32.3904V32.1216C72.1539 32.0544 72.1539 32.0544 72.2212 32.0544C72.3558 32.0544 72.8269 32.0544 73.7019 32.0544C74.6443 32.0544 74.9135 32.0544 75.0481 32.0544C75.1154 32.0544 75.1154 32.0544 75.1154 32.1216V32.3232C75.1154 32.3904 75.1154 32.3904 75.0481 32.3904H74.7789C74.5769 32.3904 74.4423 32.4576 74.4423 32.6592C74.4423 32.7264 74.4423 34.7424 74.4423 34.8768V35.5488C74.4423 35.616 74.4423 37.7664 74.4423 37.8336C74.4423 38.1024 74.5769 38.1696 74.7789 38.1696H75.1827C75.25 38.1696 75.25 38.1696 75.25 38.2368V38.5056C75.25 38.5728 75.25 38.5728 75.1827 38.5728C75.0481 38.5728 74.7116 38.5728 73.8366 38.5728C72.8943 38.5728 72.4904 38.5728 72.4231 38.5728C72.3558 38.5728 72.3558 38.5728 72.3558 38.5056V38.2368C72.3558 38.1696 72.3558 38.1696 72.4231 38.1696H72.6923C72.8943 38.1696 73.0962 38.1696 73.0962 37.9008C73.0962 37.7664 73.1635 35.8176 73.1635 35.3472L72.9616 34.7424Z" fill="white"/>
<path d="M83.0577 32.1215C83.1923 32.0543 83.5962 32.0543 84.202 32.0543C85.077 32.0543 85.2789 32.0543 85.3462 32.0543C85.4135 32.0543 85.4135 32.0543 85.4135 32.1215V32.3231C85.4135 32.3903 85.4135 32.3903 85.3462 32.3903H85.1443C85.0096 32.3903 84.7404 32.4575 84.4712 32.8607C84.1346 33.4655 83.7308 34.5407 83.3943 35.2799C83.1923 35.7503 82.1154 38.1695 81.9808 38.4383C81.9135 38.5727 81.8462 38.5727 81.7789 38.5727C81.6443 38.5727 81.6443 38.4383 81.577 38.3711C81.2404 37.6319 80.4327 35.4815 80.1635 34.8095C79.8943 34.2047 79.4231 32.8607 79.3558 32.5919C79.2885 32.3903 79.1539 32.3231 78.952 32.3231H78.6827C78.6154 32.3231 78.6154 32.2559 78.6154 32.2559V32.0543C78.6154 31.9871 78.6154 31.9871 78.6827 31.9871C78.75 31.9871 79.0866 31.9871 80.1635 31.9871C81.1058 31.9871 81.5096 31.9871 81.577 31.9871C81.6443 31.9871 81.6443 31.9871 81.6443 32.0543V32.2559C81.6443 32.3231 81.6443 32.3231 81.577 32.3231H81.1731C80.9712 32.3231 80.7693 32.3903 80.7693 32.5247C80.7693 32.5919 80.7693 32.7263 80.7693 32.8607C80.8366 33.1967 81.1731 34.2719 81.375 34.8095C81.5096 35.1455 81.9808 36.4895 82.0481 36.8255H82.1154C82.3846 36.2207 82.8558 35.0783 82.9231 34.7423C83.125 34.2719 83.3943 33.5327 83.5289 33.1295C83.5962 32.8607 83.5962 32.7263 83.5962 32.6591C83.5962 32.5247 83.4616 32.3903 83.1923 32.3903H82.9231C82.8558 32.3903 82.8558 32.3903 82.8558 32.3231V32.1215H83.0577Z" fill="white"/>
<path d="M91 35.0783C91.4039 35.0783 91.8077 35.0783 91.9423 35.0111C92.0769 34.9439 92.2115 34.8767 92.3462 34.7423C92.4135 34.6079 92.5481 34.3391 92.5481 34.2047C92.5481 34.1375 92.5481 34.1375 92.6154 34.1375H92.8846C92.9519 34.1375 92.9519 34.1375 92.9519 34.2047C92.9519 34.3391 92.9519 34.8095 92.9519 35.1455C92.9519 35.5487 93.0192 36.0191 93.0192 36.1535C93.0192 36.2207 93.0192 36.2207 92.9519 36.2207L92.75 36.2879C92.6827 36.2879 92.6827 36.2879 92.6827 36.2207C92.6154 36.0863 92.5481 35.8847 92.4808 35.7503C92.4135 35.5487 92.1442 35.4815 92.0096 35.4143C91.7404 35.3471 91.4712 35.3471 91.0673 35.3471V35.8847C91.0673 36.3551 91.1346 37.2287 91.1346 37.4303C91.1346 37.9007 91.2019 38.0351 91.3365 38.1023C91.4712 38.1695 91.6731 38.1695 92.0769 38.1695C92.2115 38.1695 92.6154 38.1695 92.8173 38.1695C93.0192 38.1695 93.2885 38.0351 93.4904 37.9007C93.6923 37.6991 94.2308 37.1615 94.4327 36.9599C94.5 36.8927 94.5 36.8927 94.5 36.9599L94.6346 37.0271C94.7019 37.0271 94.7019 37.0943 94.7019 37.0943L94.2981 38.4383C94.2981 38.5055 94.2308 38.5727 94.0962 38.5727C94.0289 38.5727 93.8269 38.5727 93.2885 38.5727C92.6827 38.5727 91.7404 38.5727 90.1923 38.5727C89.8558 38.5727 89.5865 38.5727 89.4519 38.5727C89.25 38.5727 89.1154 38.5727 89.0481 38.5727C88.9808 38.5727 88.9808 38.5727 88.9808 38.5055V38.3039C88.9808 38.2367 88.9808 38.2367 89.0481 38.2367H89.3173C89.7212 38.2367 89.7885 38.1695 89.7885 37.8335V34.8095C89.7885 34.0703 89.7885 32.9279 89.7885 32.8607C89.7212 32.5919 89.6539 32.5247 89.3846 32.5247H89.0481C88.9808 32.5247 88.9808 32.5247 88.9808 32.4575V32.2559C88.9808 32.2559 88.9808 32.1887 89.0481 32.1887C89.25 32.1887 89.5865 32.1887 90.3942 32.1887H93.5577C93.6923 32.1887 93.8942 32.1887 93.8942 32.1887C93.9615 32.1887 93.9615 32.1887 93.9615 32.2559C94.0289 32.3903 94.2981 33.5999 94.3654 33.7343C94.3654 33.8015 94.3654 33.8015 94.3654 33.8015L94.2308 33.8687C94.1635 33.8687 94.1635 33.8687 94.0962 33.8015C94.0289 33.7343 93.2212 32.9279 93.0192 32.7935C92.8173 32.6591 92.5481 32.5247 92.3462 32.5247L91.1346 32.4575L91 35.0783Z" fill="white"/>
<path d="M98.9423 34.4064C98.9423 33.7344 98.9423 33.1296 98.9423 32.928C98.9423 32.6592 98.8077 32.4576 98.6731 32.4576H98.3365C98.2692 32.4576 98.2692 32.4576 98.2692 32.3904V32.1216C98.2692 32.0544 98.2692 32.0544 98.3365 32.0544C98.4038 32.0544 98.6731 32.0544 99.6827 32.0544C100.221 32.0544 100.962 32.0544 101.365 32.0544C102.106 32.0544 102.577 32.3232 102.981 32.6592C103.317 32.928 103.519 33.3312 103.519 33.6672C103.519 34.8096 102.644 35.3472 101.837 35.4144V35.4816C102.106 35.5488 102.24 35.7504 102.442 35.952C102.577 36.0864 103.048 36.8928 103.115 37.0272C103.183 37.0944 103.654 37.7664 103.856 38.0352C103.99 38.1696 104.327 38.2368 104.529 38.2368C104.596 38.2368 104.596 38.304 104.596 38.304V38.5056C104.596 38.5728 104.596 38.5728 104.529 38.5728C104.462 38.5728 104.192 38.5728 103.519 38.5728C103.25 38.5728 102.913 38.5728 102.644 38.5728C102.375 38.3712 101.837 37.296 101.635 37.0272C101.298 36.4224 100.962 35.7504 100.49 35.7504H100.154V36.2208C100.154 36.7584 100.154 37.7664 100.221 37.9008C100.221 38.1024 100.288 38.2368 100.423 38.2368H100.827C100.894 38.2368 100.894 38.2368 100.894 38.304V38.5056C100.894 38.5728 100.894 38.5728 100.76 38.5728C100.76 38.5728 100.49 38.5728 99.5481 38.5728C98.6058 38.5728 98.4038 38.5728 98.2692 38.5728C98.2019 38.5728 98.2019 38.5728 98.2019 38.5056V38.304C98.2019 38.2368 98.2019 38.2368 98.2692 38.2368H98.5384C98.7404 38.2368 98.875 38.1696 98.875 37.968C98.875 37.0944 98.875 36.2208 98.875 35.3472L98.9423 34.4064ZM100.221 35.3472C100.423 35.3472 100.49 35.3472 100.558 35.3472C101.769 35.3472 102.038 34.2048 102.038 33.8016C102.038 33.3984 101.904 32.9952 101.702 32.7936C101.365 32.5248 100.962 32.3904 100.692 32.3904C100.558 32.3904 100.423 32.3904 100.356 32.4576C100.288 32.5248 100.288 32.592 100.288 32.7264L100.221 35.3472Z" fill="white"/>
<path d="M108.702 36.4896C108.769 36.4896 108.769 36.4896 108.769 36.5568C108.769 36.8256 108.904 37.2288 109.106 37.5648C109.375 37.968 109.846 38.1696 110.25 38.1696C110.654 38.1696 111.394 37.9008 111.394 37.1616C111.394 36.4224 111.26 36.2208 110.048 35.7504C109.779 35.6832 109.173 35.3472 108.702 34.944C108.365 34.6752 108.231 34.2048 108.231 33.6672C108.231 33.1296 108.365 32.7264 108.904 32.3232C109.308 31.9872 109.644 31.92 110.183 31.8528C110.856 31.8528 111.192 31.9872 111.394 32.0544C111.462 32.1216 111.529 32.0544 111.596 31.9872L111.731 31.8528C111.798 31.7856 111.798 31.7856 111.865 31.7856C111.933 31.7856 111.933 31.8528 111.933 31.92L112.067 33.4656C112.067 33.5328 112.067 33.5328 112 33.5328L111.798 33.6C111.731 33.6 111.731 33.6 111.663 33.5328C111.596 33.264 111.394 32.928 111.125 32.592C110.923 32.3232 110.654 32.1888 110.183 32.1888C109.51 32.1888 109.24 32.7936 109.24 32.9952C109.24 33.3312 109.24 33.6 109.51 33.8016C109.779 34.0704 110.25 34.272 110.721 34.4064C111.125 34.5408 111.529 34.7424 111.865 35.0784C112.202 35.4144 112.337 35.8176 112.337 36.4224C112.337 37.4976 111.529 38.4384 110.317 38.4384C109.51 38.4384 109.038 38.304 108.702 38.0352C108.567 37.968 108.567 37.968 108.5 37.968C108.433 37.968 108.433 38.0352 108.365 38.1024C108.298 38.1696 108.298 38.2368 108.231 38.2368C108.163 38.2368 108.096 38.1696 108.096 38.1024L108.231 36.3552C108.231 36.288 108.298 36.288 108.298 36.288L108.702 36.4896Z" fill="white"/>
<path d="M117.115 34.6751C117.115 34.4735 117.115 32.7935 117.048 32.7263C117.048 32.5247 116.913 32.3903 116.779 32.3903H116.375C116.308 32.3903 116.308 32.3903 116.308 32.3231V32.0543C116.308 31.9871 116.308 31.9871 116.375 31.9871C116.51 31.9871 116.981 31.9871 117.856 31.9871C118.798 31.9871 119.067 31.9871 119.202 31.9871C119.269 31.9871 119.269 31.9871 119.269 32.0543V32.2559C119.269 32.3231 119.269 32.3231 119.202 32.3231H118.933C118.731 32.3231 118.596 32.3903 118.596 32.5919C118.596 32.6591 118.596 34.6751 118.596 34.8095V35.4815C118.596 35.5487 118.596 37.6991 118.596 37.7663C118.596 38.0351 118.731 38.1023 118.933 38.1023H119.337C119.404 38.1023 119.404 38.1023 119.404 38.1695V38.4383C119.404 38.5055 119.404 38.5055 119.337 38.5055C119.202 38.5055 118.865 38.5055 117.99 38.5055C117.048 38.5055 116.644 38.5055 116.577 38.5055C116.51 38.5055 116.51 38.5055 116.51 38.4383V38.1695C116.51 38.1023 116.51 38.1023 116.577 38.1023H116.846C117.048 38.1023 117.25 38.1023 117.25 37.8335C117.25 37.6991 117.317 35.7503 117.317 35.2799V34.6751H117.115Z" fill="white"/>
<path d="M125.394 32.4575H125.058C124.788 32.4575 124.25 32.4575 123.846 32.5919C123.644 32.7263 123.24 33.2639 123.038 33.5999C123.038 33.6671 122.971 33.6671 122.971 33.6671L122.769 33.5999C122.702 33.5999 122.702 33.5327 122.702 33.5327C122.769 33.1295 123.106 31.9199 123.106 31.7855C123.106 31.6511 123.173 31.6511 123.24 31.6511C123.308 31.6511 123.308 31.7183 123.442 31.7855C123.51 31.9199 123.712 31.9871 124.048 31.9871C124.519 31.9871 124.923 32.0543 125.865 32.0543H126.404C127.413 32.0543 127.817 31.9871 128.154 31.9871C128.356 31.9871 128.692 31.8527 128.827 31.7855C128.894 31.7183 128.962 31.6511 129.029 31.6511C129.096 31.6511 129.096 31.7183 129.163 31.7855C129.163 31.9871 129.365 33.1295 129.433 33.5999C129.433 33.6671 129.433 33.6671 129.365 33.6671L129.163 33.7343C129.096 33.7343 129.096 33.7343 129.096 33.6671C128.894 33.3311 128.558 32.8607 128.288 32.6591C128.087 32.5247 127.279 32.4575 127.077 32.4575H126.808V34.9439C126.808 35.0783 126.808 37.6319 126.808 37.7663C126.808 37.9679 126.875 38.1023 127.144 38.1023H127.548C127.615 38.1023 127.615 38.1023 127.615 38.1695V38.3711C127.615 38.4383 127.615 38.4383 127.548 38.4383C127.481 38.4383 127.144 38.4383 126.135 38.4383C125.192 38.4383 124.788 38.4383 124.654 38.4383C124.587 38.4383 124.587 38.3711 124.587 38.3039V38.1023C124.587 38.0351 124.587 38.0351 124.654 38.0351H125.125C125.327 38.0351 125.394 37.9007 125.462 37.7663C125.462 37.5647 125.462 34.8095 125.462 34.6079L125.394 32.4575Z" fill="white"/>
<path d="M136.433 36.8255C136.433 37.1615 136.433 37.7663 136.5 37.8335C136.5 38.1023 136.635 38.1695 136.837 38.1695H137.106C137.173 38.1695 137.173 38.1695 137.173 38.2367V38.4383C137.173 38.5055 137.173 38.5055 137.106 38.5055C136.971 38.5055 136.635 38.5055 135.76 38.5055C134.817 38.5055 134.548 38.5055 134.413 38.5055C134.346 38.5055 134.346 38.5055 134.346 38.4383V38.2367C134.346 38.1695 134.346 38.1695 134.413 38.1695H134.75C135.019 38.1695 135.087 38.1023 135.087 37.9679C135.087 37.8335 135.087 37.0943 135.087 36.2879V35.8847C134.952 35.6159 133.471 32.9279 133.269 32.6591C133.135 32.5247 132.933 32.4575 132.798 32.4575H132.664C132.596 32.4575 132.596 32.4575 132.596 32.3903V32.1215C132.596 32.0543 132.596 32.0543 132.664 32.0543C132.731 32.0543 133.202 32.0543 134.01 32.0543C134.952 32.0543 135.289 32.0543 135.356 32.0543C135.423 32.0543 135.423 32.0543 135.423 32.1215V32.3231C135.423 32.3903 135.423 32.3903 135.356 32.3903H135.154C135.019 32.3903 134.952 32.4575 134.952 32.6591C134.952 32.7935 136.029 34.8767 136.298 35.4143C136.567 34.9439 137.644 32.9951 137.644 32.7263C137.644 32.5919 137.51 32.3903 137.308 32.3903H137.039C136.971 32.3903 136.971 32.3903 136.971 32.3231V32.0543C136.971 31.9871 136.971 31.9871 137.039 31.9871C137.106 31.9871 137.51 31.9871 138.183 31.9871C138.789 31.9871 138.99 31.9871 139.125 31.9871C139.192 31.9871 139.192 31.9871 139.192 32.0543V32.2559C139.192 32.3231 139.192 32.3231 139.125 32.3231H138.99C138.856 32.3231 138.587 32.3903 138.452 32.5247C138.317 32.6591 136.904 35.0111 136.567 35.6831L136.433 36.8255Z" fill="white"/>
</g>
<defs>
<clipPath id="clip0_1264_3992">
<rect width="140" height="42" fill="white"/>
</clipPath>
</defs>
</svg>
