<svg width="139" height="42" viewBox="0 0 139 42" fill="none" xmlns="http://www.w3.org/2000/svg">
<path fill-rule="evenodd" clip-rule="evenodd" d="M57.6046 0.667655C57.6774 0.667655 57.7201 0.74853 57.7495 0.897787L58.3164 3.11363C58.3304 3.1682 58.3164 3.20897 58.2723 3.22277L57.984 3.37203C57.9119 3.39965 57.8832 3.37203 57.7803 3.23658C57.5927 3.00579 57.2449 2.57051 56.6514 1.9873C56.3903 1.71508 55.9991 1.45734 55.6519 1.3758C55.2901 1.28112 53.7559 1.24167 53.105 1.24233L53.1049 1.33668C53.1049 1.36033 53.1048 1.38774 53.1047 1.41859L53.104 1.6423C53.1017 2.29187 53.0964 3.5707 53.0949 4.40309L53.0945 5.59247C53.6593 5.59181 54.2521 5.55105 54.5272 5.50962C54.7729 5.48201 55.0479 5.30514 55.2789 5.01977C55.4391 4.82975 55.5392 4.54307 55.5966 4.29847C55.6113 4.23075 55.6547 4.18998 55.7121 4.18998L56.046 4.21694C56.1033 4.21694 56.132 4.25771 56.132 4.31228C56.1105 4.48537 56.1059 5.16332 56.105 5.57191L56.1047 5.86205C56.1054 6.35125 56.1495 7.00351 56.1782 7.27638C56.1782 7.3441 56.1495 7.37106 56.0774 7.38487L55.759 7.45259C55.7016 7.4664 55.6575 7.42563 55.6435 7.3441C55.6148 7.23495 55.4545 6.82795 55.3678 6.69184C55.1942 6.4604 54.9184 6.2158 54.6581 6.14873C54.1947 6.0672 53.6887 6.05405 53.0952 6.05471L53.0959 6.57152C53.0959 6.74316 53.0988 7.2475 53.1021 7.78713L53.1047 8.19383C53.1086 8.79987 53.1124 9.35649 53.1127 9.44027C53.1134 9.80717 53.2583 9.87423 53.4606 9.87423L54.3144 9.87358C54.4012 9.87358 54.4453 9.90119 54.4453 9.95511V10.322C54.4453 10.4035 54.4166 10.4312 54.3298 10.4312C54.1856 10.4312 53.6054 10.391 52.1007 10.3924C50.6834 10.3937 50.1333 10.4351 49.9163 10.4351C49.8582 10.4351 49.8288 10.4075 49.8288 10.3128V9.94525C49.8288 9.89133 49.8722 9.87752 49.9303 9.87752L50.4363 9.87686C50.7408 9.87686 50.8563 9.82295 50.8703 9.60531C50.8843 9.3331 50.9263 7.62026 50.9235 5.28147L50.9221 4.33004C50.9221 3.73235 50.892 1.81568 50.892 1.67958C50.8913 1.42117 50.6883 1.28507 50.2978 1.28507L49.7042 1.28572C49.6175 1.28572 49.5741 1.25811 49.5741 1.20419L49.5734 0.810337C49.5734 0.755763 49.6168 0.728805 49.6748 0.728805C49.8272 0.728805 50.3347 0.764751 51.9163 0.766875L52.1497 0.766941C52.2508 0.766941 53.2529 0.756092 54.3164 0.74516L54.7736 0.740502C55.5336 0.732834 56.2638 0.725909 56.6583 0.723651L56.8522 0.722887C57.1707 0.722229 57.4891 0.667655 57.6046 0.667655ZM64.3291 3.95081e-06C64.4142 -0.000663563 64.443 0.0832754 64.4849 0.235709C64.7559 1.11069 65.8647 4.22046 66.1357 5.1082C66.4623 6.19067 67.3872 8.77196 67.5862 9.14667C67.8277 9.60464 68.1962 9.7705 68.4096 9.7705L68.8919 9.76983C68.977 9.76983 68.9914 9.82557 68.9914 9.8954V10.1586C68.9914 10.2419 68.9777 10.3399 68.8638 10.3399C68.5941 10.3406 68.297 10.2983 66.4808 10.3003C65.3034 10.301 64.8074 10.344 64.5233 10.344C64.3813 10.3446 64.3662 10.2607 64.3662 10.1633V9.9001C64.3662 9.83027 64.3806 9.77453 64.4512 9.77386H64.8485C65.2321 9.77319 65.3597 9.63486 65.2739 9.27358C65.1456 8.77465 64.5905 6.99716 64.4197 6.49755L61.3135 6.50091C61.1996 6.79302 60.5066 8.69541 60.5066 9.13995C60.5066 9.44482 60.6356 9.77789 61.061 9.77722L61.5578 9.77655C61.6998 9.77655 61.7136 9.83228 61.7136 9.88802L61.7142 10.1936C61.7142 10.3044 61.6998 10.3467 61.5873 10.3467C61.4021 10.3473 60.8202 10.305 59.6572 10.3064C58.6211 10.307 58.3089 10.3493 58.1107 10.3493C58.0256 10.3493 58.0118 10.2654 58.0118 10.1687L58.0112 9.9048C58.0112 9.82154 58.0249 9.7799 58.11 9.7799H58.4791C58.8194 9.77923 59.1598 9.58517 59.4431 9.16816C59.6414 8.87605 60.6466 6.45995 61.1132 5.23713C61.1673 5.10449 61.4578 4.35224 61.7602 3.56233L61.9249 3.13123C62.197 2.41816 62.4451 1.76141 62.5006 1.59821C62.5424 1.45987 62.6138 1.27924 62.5143 1.12613C62.4717 1.07107 62.4155 1.0019 62.4148 0.946168C62.4148 0.904534 62.4436 0.848799 62.5561 0.821267C63.0104 0.723226 63.9325 0.361281 64.1445 0.125581C64.2159 0.0557434 64.2578 3.95081e-06 64.3291 3.95081e-06ZM63.068 1.95881C62.9836 1.95881 62.9404 2.01454 62.8985 2.14012C62.8272 2.32008 61.61 5.59773 61.4974 5.9449L64.2914 5.94289C64.1638 5.52655 63.3239 2.61152 63.2244 2.26367C63.1675 2.05618 63.1387 1.95881 63.068 1.95881ZM71.3607 4.66286C71.3607 4.33483 71.3144 1.87329 71.2994 1.69605C71.2694 1.36802 71.1218 1.23112 70.8117 1.23178L70.1043 1.23245C70.0309 1.23245 69.986 1.20467 69.986 1.14978V0.75363C69.986 0.698739 70.0309 0.671623 70.0893 0.671623C70.2662 0.670962 71.0184 0.710643 72.4624 0.709982C73.9662 0.708659 74.4382 0.667655 74.6443 0.667655C74.7184 0.667655 74.7477 0.708659 74.7477 0.790666L74.7484 1.13258C74.7484 1.2007 74.7042 1.22848 74.6307 1.22848H74.2029C73.8343 1.22914 73.6132 1.33826 73.6139 1.58428C73.6139 1.72118 73.5726 4.74288 73.5726 4.90689L73.574 5.95976C73.574 6.09666 73.6211 9.25525 73.6211 9.37826C73.6218 9.80219 73.8421 9.87031 74.1231 9.86964H74.7277C74.8012 9.86964 74.8454 9.89676 74.8454 9.96554L74.8461 10.3478C74.8468 10.4027 74.8019 10.4311 74.7135 10.4311C74.5366 10.4311 73.9469 10.3901 72.5458 10.3908C70.9985 10.3928 70.3646 10.4344 70.202 10.4351C70.1278 10.4351 70.0843 10.4073 70.0836 10.3253V9.95562C70.0836 9.90139 70.1278 9.87361 70.202 9.87361L70.6298 9.87295C70.9236 9.87295 71.2338 9.83129 71.2923 9.50326C71.3215 9.29824 71.3628 6.34466 71.3621 5.61983L71.3607 4.66286ZM79.817 5.64596C80.0825 5.65985 80.25 5.65985 80.3756 5.65985C82.219 5.65852 82.65 3.93427 82.65 3.2914C82.6493 2.66242 82.4251 2.06121 82.117 1.76094C81.6145 1.32376 80.9856 1.1604 80.5668 1.1604C80.3297 1.1604 80.1473 1.18817 80.0365 1.28408C79.9521 1.33831 79.9109 1.48911 79.8832 1.65313L79.817 5.64596ZM77.8608 4.17171C77.8601 3.15912 77.8588 2.2841 77.8439 1.91438C77.8297 1.46397 77.648 1.23116 77.4528 1.23116L76.8942 1.23183C76.8239 1.23183 76.8097 1.19082 76.8097 1.13659V0.766868C76.8097 0.698744 76.8232 0.671627 76.8935 0.671627C77.0191 0.671627 77.4521 0.711311 78.9747 0.709988C79.7562 0.709326 80.9849 0.66832 81.5577 0.667655C82.6473 0.666336 83.4579 1.04862 84.0314 1.56715C84.5339 2.01888 84.8278 2.5513 84.8284 3.05727C84.8298 4.79408 83.5038 5.57519 82.2751 5.68564V5.78088C82.7081 5.91713 82.9317 6.17705 83.1978 6.50444C83.3788 6.72336 84.1489 7.93966 84.2604 8.10369C84.3441 8.22671 85.0993 9.26576 85.379 9.57926C85.5472 9.75717 86.0781 9.86564 86.3989 9.86564C86.4969 9.86564 86.5104 9.92053 86.5104 9.97543V10.3035C86.5111 10.3855 86.4976 10.4272 86.3996 10.4272C86.2875 10.4272 85.9248 10.3862 84.8494 10.3868C84.4448 10.3875 83.9273 10.4146 83.5221 10.4291C83.1032 10.1156 82.2359 8.52963 81.9981 8.06467C81.5219 7.13541 80.9484 6.12414 80.2784 6.1248H79.8028L79.8035 6.82191C79.8042 7.62881 79.8481 9.16059 79.8764 9.33851C79.9048 9.62555 80.017 9.87159 80.2257 9.87159L80.7985 9.87093C80.8964 9.87093 80.9099 9.91194 80.9099 9.98072L80.9106 10.3088C80.9113 10.404 80.8971 10.4318 80.687 10.4318C80.6742 10.4318 80.3243 10.3908 78.8578 10.3928C77.3778 10.3941 77.0563 10.4351 76.903 10.4351C76.7915 10.4351 76.7915 10.3941 76.7908 10.2982L76.7901 9.98403C76.7901 9.91524 76.7901 9.87424 76.8597 9.87424H77.2792C77.5865 9.87358 77.8372 9.77767 77.8372 9.43573C77.8635 8.08253 77.8621 6.79678 77.8615 5.49714L77.8608 4.17171ZM91.7989 6.11091C91.7996 6.34372 91.8023 9.29684 91.8452 9.84447L92.6611 9.84381C93.3337 9.84315 93.9766 9.84249 94.7502 9.77304C95.5232 9.70426 96.4933 8.06268 96.7085 7.55606C96.7501 7.47404 96.7937 7.43304 96.8795 7.47404L97.1659 7.58383C97.2081 7.61095 97.2081 7.62418 97.195 7.70619C97.1514 7.80276 96.5812 10.0588 96.4961 10.4285C96.1245 10.4007 92.0037 10.3914 90.6875 10.3921C89.271 10.3934 88.7562 10.4351 88.5693 10.4351C88.469 10.4351 88.4559 10.4073 88.4552 10.3121L88.4545 9.97014C88.4545 9.90135 88.469 9.87357 88.5548 9.87357H88.9984C89.5278 9.87291 89.6143 9.68177 89.6136 9.53164C89.6129 9.27171 89.653 5.86686 89.6516 5.03284L89.6509 4.26695C89.6509 3.39193 89.6212 1.94216 89.606 1.72324C89.5769 1.36807 89.5056 1.23116 89.1762 1.23116L88.6469 1.23182C88.561 1.23182 88.5465 1.1637 88.5465 1.09491V0.766864C88.5465 0.698079 88.5597 0.670962 88.6462 0.670962C88.8032 0.670962 89.3188 0.711307 90.6211 0.709984C92.2943 0.708662 92.8957 0.667655 93.0244 0.667655C93.1393 0.667655 93.1531 0.708 93.1531 0.804564L93.1538 1.11806C93.1538 1.18685 93.1254 1.22785 93.0105 1.22785L92.3379 1.22852C91.8951 1.22918 91.8376 1.36609 91.8376 1.73514C91.8376 1.9124 91.7968 3.97726 91.7982 4.93496L91.7989 6.11091ZM101.414 5.15531C102.044 5.15465 102.645 5.11365 102.809 5.072C103.042 5.01645 103.234 4.89347 103.439 4.6475C103.589 4.44252 103.753 4.05902 103.753 3.79916C103.753 3.70395 103.794 3.67684 103.862 3.67684L104.232 3.71717C104.3 3.73106 104.355 3.74362 104.342 3.82627C104.301 4.05902 104.301 4.76982 104.301 5.24854C104.303 5.86347 104.358 6.51939 104.385 6.80636C104.399 6.88835 104.344 6.90224 104.275 6.91612L103.947 6.98489C103.893 6.99811 103.866 6.971 103.838 6.87579C103.783 6.65692 103.646 6.34219 103.563 6.17887C103.413 5.91901 103.083 5.74181 102.81 5.70081C102.441 5.64593 102.016 5.61948 101.415 5.62014V6.44005C101.416 7.17928 101.486 8.50435 101.486 8.75033C101.486 9.46179 101.637 9.7071 101.815 9.78909C102.02 9.87108 102.281 9.91142 102.965 9.91076C103.197 9.91076 103.772 9.89687 104.06 9.8691C104.333 9.84133 104.743 9.70446 105.099 9.41683C105.454 9.12986 106.221 8.28219 106.494 7.95224C106.548 7.89802 106.589 7.8848 106.631 7.91191L106.863 8.04878C106.918 8.07589 106.932 8.11688 106.918 8.15788L106.304 10.2228C106.263 10.3458 106.168 10.4285 106.004 10.4285C105.935 10.4285 105.634 10.4146 104.758 10.402C103.868 10.4027 102.418 10.3901 100.051 10.3928C99.5442 10.3928 99.161 10.4067 98.8876 10.4067C98.5997 10.4212 98.4216 10.4351 98.2992 10.4351C98.2026 10.4351 98.1754 10.3941 98.1748 10.285V9.99737C98.1748 9.91538 98.2165 9.87439 98.3118 9.87439L98.7221 9.87373C99.3516 9.87373 99.4072 9.77719 99.4059 9.29913L99.4019 4.71957C99.4006 3.58427 99.3721 1.90346 99.3582 1.76725C99.3033 1.32953 99.1663 1.23365 98.7969 1.23365L98.2628 1.23432C98.2085 1.23432 98.1946 1.19332 98.1946 1.09744L98.194 0.769482C98.194 0.728487 98.2072 0.674267 98.2899 0.674267C98.5904 0.674267 99.0696 0.71394 100.315 0.712618L105.119 0.694765C105.338 0.694765 105.597 0.667655 105.666 0.667655C105.734 0.667655 105.762 0.694104 105.775 0.735099C105.831 0.92619 106.284 2.79941 106.339 2.93628C106.366 3.00438 106.366 3.03215 106.298 3.07315L106.079 3.18225C106.024 3.21002 105.955 3.19613 105.915 3.12803C105.846 3.01827 104.613 1.78907 104.299 1.59798C104.011 1.42078 103.628 1.24291 103.258 1.22969L101.451 1.17679L101.414 5.15531ZM110.242 4.66352C110.242 4.33549 110.195 1.87395 110.18 1.69671C110.15 1.36868 110.002 1.23178 109.693 1.23178L108.985 1.23245C108.912 1.23245 108.867 1.20467 108.867 1.15044V0.75363C108.867 0.698739 108.911 0.671623 108.97 0.671623C109.147 0.671623 109.9 0.711304 111.344 0.709982C112.848 0.70932 113.32 0.668317 113.526 0.667655C113.6 0.667655 113.629 0.708659 113.629 0.790666V1.13258C113.629 1.2007 113.586 1.22848 113.513 1.22848L113.085 1.22914C112.716 1.22914 112.494 1.33892 112.495 1.58494C112.495 1.72184 112.454 4.74354 112.454 4.90755L112.456 5.96042C112.456 6.09732 112.503 9.25591 112.503 9.37893C112.503 9.80285 112.724 9.87031 113.004 9.87031L113.609 9.86964C113.682 9.86964 113.727 9.89742 113.727 9.9662V10.3485C113.728 10.4034 113.684 10.4311 113.595 10.4311C113.418 10.4311 112.829 10.3901 111.427 10.3914C109.879 10.3928 109.245 10.4351 109.083 10.4351C109.009 10.4351 108.965 10.4073 108.965 10.3253V9.95562C108.965 9.90139 109.009 9.87361 109.082 9.87361H109.51C109.805 9.87295 110.114 9.83195 110.173 9.50392C110.202 9.2989 110.243 6.34532 110.243 5.62049L110.242 4.66352ZM124.444 8.94876C124.444 9.13439 124.501 9.26625 124.501 9.37251C124.501 9.47813 124.416 9.53126 124.274 9.58439C123.126 10.1285 121.921 10.4332 120.12 10.4351C118.645 10.4364 116.986 10.0011 116.006 8.9302C115.142 8.0174 114.701 6.89273 114.699 5.29117C114.698 4.08648 115.306 2.80242 116.34 1.96836C117.375 1.12085 118.651 0.668936 120.352 0.667655C121.784 0.667016 122.848 1.03636 123.316 1.31353C123.486 1.4057 123.585 1.37946 123.67 1.27384L123.812 1.06196C123.883 0.969148 123.911 0.929461 123.997 0.929461C124.152 0.928821 124.195 1.021 124.195 1.16694L124.41 3.89381C124.425 4.05256 124.41 4.11849 124.354 4.13193L123.957 4.21195C123.872 4.22475 123.829 4.1985 123.787 4.07944C123.559 3.43101 123.104 2.58479 122.495 2.06886C121.941 1.57917 121.217 1.24888 120.253 1.25016C119.487 1.2508 118.779 1.47612 118.113 2.24425C117.461 2.97333 116.98 4.07176 116.982 5.26237C116.983 6.82487 117.453 8.18767 118.219 8.90203C118.886 9.52294 119.425 9.80011 120.389 9.79947C121.126 9.79882 121.524 9.7457 121.991 9.53318C122.288 9.40068 122.316 8.97756 122.316 8.28945L122.315 7.33568C122.315 6.85944 122.172 6.72694 121.819 6.72758H121.223C121.138 6.72822 121.123 6.67573 121.123 6.6098V6.27886C121.123 6.22573 121.138 6.18604 121.223 6.1854C121.349 6.1854 122.045 6.22445 123.321 6.22381C124.626 6.22253 125.149 6.1822 125.263 6.1822C125.376 6.1822 125.391 6.22189 125.391 6.28846L125.392 6.61876C125.392 6.69813 125.377 6.72438 125.291 6.72438H124.881C124.626 6.72502 124.442 6.81847 124.442 7.2019L124.444 8.94876ZM128.519 5.00837C128.518 4.16165 128.49 2.31616 128.49 2.12514C128.489 1.42779 128.397 1.23677 128.039 1.23677L127.495 1.23743C127.35 1.23743 127.336 1.18257 127.336 1.1006V0.840835C127.336 0.758872 127.349 0.676909 127.481 0.676909C127.706 0.676909 128.131 0.71723 129.456 0.715908C130.755 0.714586 131.232 0.673604 131.458 0.672943C131.604 0.672943 131.617 0.713925 131.617 0.823649V1.11052C131.617 1.19248 131.604 1.23346 131.459 1.23346L131.141 1.23412C130.664 1.23478 130.597 1.46745 130.558 1.98633C130.545 2.17802 130.48 3.9812 130.481 4.74662V4.95219C130.481 5.02027 130.521 5.06125 130.693 5.06125L134.656 5.05729C134.855 5.05663 134.921 5.02952 134.921 4.87948V4.74266C134.92 3.96335 134.826 2.06367 134.826 1.9275C134.812 1.48993 134.759 1.23082 134.52 1.23082L133.977 1.23148C133.858 1.23148 133.845 1.1905 133.845 1.09465L133.844 0.793904C133.844 0.711942 133.857 0.67096 133.963 0.67096C134.201 0.67096 134.772 0.711281 135.898 0.709959C136.999 0.708637 137.555 0.667655 137.727 0.667655C137.886 0.667655 137.9 0.707976 137.9 0.8177V1.07747C137.9 1.17265 137.888 1.22751 137.729 1.22751L137.33 1.22817C136.946 1.22817 136.906 1.46084 136.907 1.92552C136.907 2.11654 136.883 4.42604 136.884 4.9317V5.39637C136.884 5.83395 136.912 8.43032 136.926 9.18186C136.927 9.6743 137.06 9.86532 137.457 9.86532L137.908 9.86466C138.014 9.86466 138.027 9.90564 138.027 9.98761L138.028 10.2884C138.028 10.3571 138.015 10.4252 137.882 10.4252C137.67 10.4252 137.219 10.3849 136.026 10.3862C134.675 10.3875 134.25 10.4285 133.946 10.4291C133.799 10.4291 133.773 10.3611 133.773 10.2923L133.772 9.99157C133.772 9.90961 133.786 9.86863 133.918 9.86863L134.502 9.86797C134.82 9.86731 134.859 9.60754 134.872 9.26581C134.898 8.62399 134.922 6.42355 134.922 5.98598V5.82205C134.922 5.67201 134.79 5.65879 134.63 5.65879L130.667 5.66275C130.521 5.66275 130.481 5.70373 130.482 5.82668V6.03159C130.483 6.37266 130.537 8.47791 130.578 9.40726C130.591 9.73511 130.724 9.87061 131.016 9.87061H131.387C131.493 9.86995 131.505 9.89771 131.505 9.97968L131.506 10.3082C131.507 10.3902 131.493 10.4311 131.387 10.4318C131.149 10.4318 130.685 10.3915 129.571 10.3921C128.166 10.3928 127.768 10.4351 127.504 10.4351C127.384 10.4351 127.371 10.3935 127.371 10.2844L127.37 9.99752C127.37 9.90168 127.384 9.87392 127.502 9.87392L128.112 9.87326C128.444 9.87326 128.483 9.54541 128.483 9.24532C128.495 8.60217 128.52 5.95161 128.52 5.59665L128.519 5.00837ZM53.0424 21.0685C53.0424 21.2464 53.0579 23.5704 53.0727 24.4182C53.0727 24.692 53.1294 24.9109 53.3101 25.1702C53.4781 25.4162 53.9529 25.4976 54.4271 25.4969C55.2352 25.4962 56.309 25.0994 57.0328 24.1557C57.5899 23.4302 58.0216 22.3079 58.0209 21.0361C58.0196 19.9151 57.544 18.7677 56.8877 18.0567C56.1478 17.2512 54.9209 16.8141 54.1121 16.8147C53.7209 16.8147 53.5118 16.8299 53.331 16.9252C53.1213 17.0211 53.066 17.24 53.0532 17.5131C53.039 18.0872 53.041 19.8788 53.041 20.0977L53.0424 21.0685ZM50.9487 19.7438C50.9487 19.3887 50.9042 17.4463 50.8765 17.242C50.8347 16.9139 50.6533 16.8597 50.4158 16.8597L49.7184 16.8604C49.6489 16.8604 49.6071 16.8465 49.6071 16.7645L49.6064 16.3683C49.6064 16.3134 49.6489 16.2995 49.7042 16.2995C49.8857 16.2995 50.4988 16.3399 51.8937 16.3386C52.2559 16.3379 53.6508 16.2962 53.9718 16.2956C55.8679 16.2936 57.3747 16.4563 58.7008 17.5356C59.6215 18.2869 60.2643 19.4211 60.2657 21.007C60.267 22.5797 59.8077 23.6193 58.889 24.6047C57.5373 26.0418 55.1522 26.0577 54.274 26.059C54.0501 26.059 52.4049 26.0187 51.638 26.0194C50.4246 26.0207 49.8668 26.063 49.6712 26.063C49.6017 26.063 49.5734 26.0352 49.5734 25.9393V25.5842C49.5734 25.5293 49.6152 25.5015 49.6847 25.5015L50.4104 25.5009C50.6748 25.5009 50.8286 25.3911 50.8563 25.1722C50.8974 24.8851 50.95 21.8086 50.9494 20.7696L50.9487 19.7438ZM63.5857 20.2914C63.585 19.9634 63.5387 17.5019 63.523 17.3246C63.4937 16.9966 63.3462 16.8597 63.036 16.8597L62.3281 16.8604C62.2554 16.8604 62.2112 16.8332 62.2112 16.7783L62.2097 16.3815C62.2097 16.3266 62.2546 16.2995 62.3131 16.2995C62.4899 16.2995 63.2421 16.3392 64.6872 16.3379C66.1901 16.3372 66.6613 16.2962 66.8681 16.2956C66.9415 16.2956 66.9715 16.3366 66.9722 16.4186V16.7605C66.9722 16.8293 66.9273 16.8564 66.8538 16.8564L66.4261 16.857C66.0582 16.857 65.8372 16.9668 65.8372 17.2129C65.8372 17.3498 65.7966 20.3714 65.7966 20.5355L65.7973 21.5883C65.798 21.7252 65.845 24.8838 65.845 25.0068C65.8457 25.4308 66.066 25.4982 66.3469 25.4982L66.9515 25.4976C67.025 25.4976 67.0692 25.5253 67.0699 25.5941V25.9764C67.0699 26.0313 67.025 26.059 66.9373 26.059C66.7605 26.059 66.1701 26.018 64.7699 26.0194C63.2221 26.0207 62.589 26.063 62.4265 26.063C62.353 26.063 62.3088 26.0352 62.3088 25.9532L62.3081 25.5842C62.3074 25.5293 62.3523 25.5015 62.4257 25.5015H62.8535C63.148 25.5009 63.4574 25.4599 63.5158 25.1318C63.5451 24.9268 63.5871 21.9732 63.5857 21.2484V20.2914ZM69.6174 24.8486C68.5492 23.9755 68.0433 22.4545 68.0419 21.3156C68.0405 19.9528 68.515 18.7211 69.5239 17.7276C70.3458 16.9197 71.5424 16.2968 73.3307 16.2956C74.6439 16.2943 75.7268 16.5977 76.2312 16.8487C76.4343 16.9408 76.5054 16.928 76.534 16.8346L76.6492 16.5036C76.6778 16.4242 76.7064 16.4242 76.9234 16.4242C77.1397 16.4242 77.1683 16.4511 77.1683 16.6361C77.1683 16.8871 77.4306 19.1372 77.5039 19.5341C77.5172 19.6269 77.5039 19.6929 77.4313 19.7063L77.1139 19.7863C77.042 19.8126 76.9848 19.7601 76.9408 19.6404C76.7817 19.111 76.3917 18.4369 75.7854 17.8684C75.1637 17.3128 74.3997 16.8762 73.3021 16.8775C71.1971 16.8794 70.304 18.6404 70.3207 20.5993C70.3214 21.4328 70.5824 23.0613 71.6073 24.0523C72.5458 24.9389 73.3684 25.0439 73.8589 25.0432C75.5035 25.042 76.7287 24.3525 77.2625 23.6247C77.3351 23.5184 77.4069 23.4653 77.4788 23.5184L77.7237 23.7162C77.7676 23.7431 77.7816 23.7956 77.7244 23.875C76.8885 24.9882 75.4902 26.0617 73.4563 26.063C71.5376 26.0643 70.5279 25.5886 69.6174 24.8486ZM81.746 20.7708L81.9838 20.7701C82.0952 20.7701 82.2485 20.702 82.3742 20.5923C82.6254 20.3999 84.8841 17.5965 85.0665 17.3645C85.3171 17.0366 85.0658 16.8317 84.7868 16.8317L84.5491 16.8323C84.493 16.8323 84.4795 16.8046 84.4788 16.7358L84.4782 16.3947C84.4782 16.326 84.5065 16.2989 84.5626 16.2989C84.7301 16.2982 85.3029 16.3392 86.4052 16.3379C87.0901 16.3372 87.5791 16.2956 87.7466 16.2956C87.8162 16.2956 87.8439 16.3227 87.8439 16.3914L87.8446 16.7609C87.8446 16.829 87.8027 16.8561 87.7331 16.8561L87.5095 16.8568C87.3143 16.8568 86.9793 16.9255 86.6997 17.0901C85.9317 17.541 84.1195 19.5928 83.6447 20.2221C84.539 21.3287 86.8186 24.456 87.4332 25.1528C87.6993 25.4529 88.0202 25.4939 88.1877 25.4939L88.3552 25.4932C88.4254 25.4932 88.4531 25.5342 88.4538 25.589L88.4545 25.9579C88.4545 26.026 88.4261 26.0538 88.3424 26.0538C88.2025 26.0544 87.7419 26.0134 86.3451 26.0147C85.1867 26.0161 84.6416 26.0577 84.4457 26.0577C84.3897 26.0577 84.362 26.03 84.362 25.948V25.593C84.3613 25.5381 84.3897 25.511 84.4451 25.511H84.6551C84.8922 25.5104 84.9064 25.2777 84.8503 25.1547C84.724 24.8817 82.5565 21.7398 82.3188 21.4807C82.2357 21.3855 82.0959 21.2897 81.9412 21.2897L81.746 21.2903L81.7474 22.3149C81.7474 22.9984 81.7777 25.0073 81.7913 25.1984C81.8054 25.3762 81.9318 25.4985 82.1128 25.4985L82.5464 25.4978C82.6153 25.4978 82.6578 25.5256 82.6578 25.5805L82.6585 25.9625C82.6585 26.0174 82.6443 26.059 82.5748 26.059C82.4073 26.0597 81.9878 26.0181 80.6896 26.0194C79.4042 26.0207 78.9571 26.0623 78.8321 26.063C78.7619 26.063 78.7342 26.0352 78.7342 25.9665V25.5844C78.7335 25.5163 78.7754 25.5018 78.8315 25.5018L79.2644 25.5011C79.515 25.5011 79.6136 25.3921 79.6413 25.2546C79.6548 25.1323 79.6798 22.658 79.6785 20.977L79.6778 20.1844C79.6778 19.9385 79.6339 17.342 79.6339 17.1913C79.6332 17.0405 79.5643 16.8641 79.2144 16.8641L78.8646 16.8647C78.7815 16.8647 78.7538 16.8376 78.7538 16.7689L78.7524 16.3861C78.7524 16.3313 78.7801 16.3042 78.8646 16.3042C79.0321 16.3035 79.4515 16.3445 80.7078 16.3432C81.923 16.3418 82.3836 16.3008 82.5653 16.3002C82.6491 16.3002 82.6774 16.3273 82.6774 16.4093V16.7649C82.6774 16.8336 82.6497 16.8607 82.5795 16.8607L82.2445 16.8614C81.9655 16.8614 81.7845 16.9566 81.7845 17.258C81.7845 17.4623 81.7446 19.5954 81.7446 20.2651L81.746 20.7708ZM90.8025 20.2914C90.8018 19.9634 90.7554 17.5019 90.7398 17.3246C90.7105 16.9966 90.5629 16.8597 90.2528 16.8597L89.5449 16.8604C89.4721 16.8604 89.4279 16.8332 89.4279 16.7783L89.4265 16.3815C89.4265 16.3266 89.4714 16.2995 89.5299 16.2995C89.7067 16.2995 90.4589 16.3392 91.904 16.3379C93.4069 16.3372 93.8781 16.2962 94.0849 16.2956C94.1583 16.2956 94.1883 16.3366 94.189 16.4186V16.7605C94.189 16.8293 94.1441 16.8564 94.0706 16.8564L93.6429 16.857C93.275 16.857 93.054 16.9668 93.054 17.2129C93.054 17.3498 93.0133 20.3714 93.0133 20.5355L93.014 21.5883C93.0148 21.7252 93.0618 24.8838 93.0618 25.0068C93.0625 25.4308 93.2828 25.4982 93.5637 25.4982L94.1683 25.4976C94.2417 25.4976 94.2859 25.5253 94.2867 25.5941V25.9764C94.2867 26.0313 94.2417 26.059 94.154 26.059C93.9772 26.059 93.3869 26.018 91.9867 26.0194C90.4389 26.0207 89.8058 26.063 89.6432 26.063C89.5698 26.063 89.5256 26.0352 89.5256 25.9532L89.5249 25.5842C89.5242 25.5293 89.5691 25.5015 89.6425 25.5015H90.0703C90.3647 25.5009 90.6742 25.4599 90.7326 25.1318C90.7619 24.9268 90.8039 21.9732 90.8025 21.2484V20.2914ZM104.205 21.9701C104.205 20.768 104.191 20.1056 104.163 19.4307C104.148 18.9042 104.079 17.5806 104.037 17.3787C103.955 17.0403 103.627 16.8515 103.312 16.8522H102.875C102.807 16.8522 102.793 16.8117 102.792 16.73V16.3929C102.792 16.325 102.806 16.2982 102.915 16.2982C103.066 16.2982 103.503 16.338 104.515 16.3374C105.335 16.3367 105.663 16.2956 105.814 16.2956C105.937 16.2956 105.95 16.3223 105.95 16.4034L105.951 16.728C105.952 16.7953 105.937 16.8496 105.883 16.8496L105.5 16.8502C105.267 16.8502 105.131 17.0802 105.091 17.5662C104.995 18.471 104.78 21.5239 104.781 23.3074L104.784 25.6168C104.784 25.82 104.77 26.063 104.578 26.063C104.373 26.063 104.196 25.9951 104.045 25.8474C103.812 25.6312 103.142 24.9158 102.321 23.9574C101.335 22.8102 100.24 21.5147 99.9802 21.2175C99.7481 20.9483 97.8582 18.6259 97.5441 18.181H97.435L97.4369 20.9091C97.4383 22.0309 97.5626 23.6922 97.5771 24.205C97.6049 24.9883 97.8509 25.3927 98.4256 25.3927L98.7668 25.3921C98.8633 25.3921 98.8759 25.4332 98.8766 25.5142L98.8772 25.8383C98.8772 25.9193 98.8633 25.9467 98.7674 25.9467C98.6306 25.9467 97.8106 25.9062 97.1678 25.9069C96.7439 25.9075 95.8009 25.9493 95.664 25.9493C95.6098 25.95 95.5953 25.9225 95.5953 25.8278V25.477C95.5953 25.4365 95.6085 25.3953 95.6773 25.3947H96.156C96.4563 25.394 96.6751 24.9622 96.7426 24.0567C96.7558 23.8006 96.8636 21.6395 96.8616 19.6404L96.8603 18.4247C96.8603 17.6283 96.3663 16.8711 95.6832 16.8587L95.3413 16.8456C95.2726 16.8456 95.2593 16.7914 95.2587 16.7509V16.3864C95.2587 16.3321 95.2726 16.3054 95.3407 16.3054C95.4088 16.3054 95.5179 16.3191 95.7778 16.3184C96.0516 16.3315 96.4893 16.3446 97.1995 16.3439C97.6644 16.3439 98.0751 16.3165 98.2397 16.3165C98.417 16.3165 98.5261 16.37 98.6359 16.4909C98.7046 16.5719 101.401 19.8253 101.812 20.3244C102.003 20.5538 104.002 23.0239 104.152 23.1996H104.207L104.205 21.9701ZM108.62 22.9593C108.677 22.9593 108.721 22.9727 108.721 23.0643C108.751 23.473 108.954 24.0376 109.304 24.5513C109.724 25.156 110.436 25.4449 111.132 25.4443C111.828 25.4437 112.945 25.0216 112.944 23.9816C112.944 22.8899 112.711 22.5742 110.824 21.9313C110.389 21.7862 109.459 21.3661 108.719 20.7881C108.211 20.3795 107.992 19.6831 107.991 18.9193C107.991 18.1173 108.208 17.5769 109.078 16.9836C109.73 16.5355 110.282 16.3516 111.167 16.3503C112.226 16.3497 112.791 16.5069 113.096 16.6119C113.242 16.6647 113.343 16.638 113.43 16.5457L113.619 16.3745C113.677 16.3217 113.75 16.2956 113.836 16.2956C113.937 16.2956 113.967 16.4407 113.981 16.5196L114.216 18.7691C114.216 18.8219 114.187 18.8353 114.143 18.848L113.824 18.9416C113.751 18.9677 113.679 18.9416 113.635 18.8487C113.475 18.4667 113.228 17.955 112.734 17.4814C112.372 17.1129 111.937 16.9283 111.283 16.9289C110.195 16.9302 109.746 17.7857 109.746 18.1281C109.746 18.615 109.762 19.0097 110.125 19.3394C110.503 19.6933 111.33 20.009 112.04 20.1924C112.738 20.3757 113.304 20.7048 113.899 21.1917C114.465 21.6513 114.698 22.2305 114.699 23.1522C114.701 24.7575 113.44 26.0611 111.525 26.063C110.219 26.0643 109.537 25.8669 108.926 25.4984C108.752 25.394 108.665 25.3545 108.593 25.3545C108.506 25.3545 108.448 25.4468 108.361 25.578C108.274 25.7231 108.201 25.7358 108.1 25.7358C107.94 25.7365 107.882 25.6709 107.897 25.5264L108.126 23.0255C108.141 22.9332 108.184 22.9332 108.243 22.9332L108.62 22.9593ZM124.17 21.4011C124.166 18.5027 122.153 16.9164 120.978 16.9178C120.699 16.9178 119.999 16.8525 119.147 17.6334C118.324 18.3753 117.906 19.7656 117.907 20.8512C117.91 24.2393 119.966 25.4415 121.127 25.4415C123.712 25.4389 124.17 22.4861 124.17 21.4011ZM117.73 25.2046C116.737 24.6375 115.673 23.2081 115.671 21.2763C115.671 20.4691 115.893 19.2119 116.968 17.9797C118.196 16.5625 119.776 16.2962 121.034 16.2956C122.194 16.2943 123.27 16.4658 124.445 17.3377C125.508 18.132 126.362 19.4673 126.364 21.2935C126.365 22.2595 126.044 23.2657 125.318 24.1926C124.41 25.2654 123.224 26.0611 121.015 26.063C120.051 26.0636 118.834 25.853 117.73 25.2046ZM136.646 21.5321C136.645 20.2965 136.632 19.6156 136.604 18.9219C136.59 18.3807 136.522 17.0196 136.481 16.8121C136.4 16.4649 136.079 16.2708 135.771 16.2708L135.342 16.2715C135.275 16.2715 135.262 16.2299 135.261 16.1459V15.7994C135.261 15.7296 135.275 15.7021 135.382 15.7021C135.529 15.7021 135.958 15.743 136.95 15.7423C137.753 15.7417 138.075 15.6994 138.222 15.6994C138.343 15.6994 138.356 15.7269 138.356 15.8102L138.357 16.1439C138.357 16.2131 138.343 16.2688 138.29 16.2688H137.915C137.687 16.2695 137.553 16.5058 137.514 17.0055C137.42 17.9355 137.209 21.0728 137.21 22.906L137.213 25.2798C137.213 25.4887 137.199 25.7385 137.011 25.7391C136.81 25.7391 136.637 25.6693 136.489 25.5169C136.261 25.2953 135.604 24.56 134.799 23.5749C133.833 22.3957 132.76 21.0641 132.506 20.7585C132.278 20.4819 130.426 18.0946 130.118 17.6373H130.011L130.013 20.4416C130.015 21.5946 130.136 23.3022 130.151 23.8294C130.178 24.6345 130.419 25.0502 130.982 25.0495H131.317C131.411 25.0495 131.423 25.0918 131.424 25.1751L131.425 25.5081C131.425 25.5914 131.411 25.6196 131.317 25.6196C131.183 25.6196 130.379 25.578 129.75 25.5786C129.334 25.5793 128.41 25.6223 128.276 25.6223C128.223 25.6223 128.209 25.5941 128.209 25.4967V25.1361C128.209 25.0945 128.222 25.0522 128.289 25.0522H128.758C129.052 25.0515 129.267 24.6076 129.333 23.6769C129.346 23.4137 129.452 21.1923 129.45 19.1375L129.448 17.8878C129.448 17.0692 128.964 16.291 128.295 16.2782L127.96 16.2648C127.892 16.2648 127.879 16.209 127.879 16.1674V15.7927C127.879 15.737 127.892 15.7094 127.959 15.7094C128.026 15.7094 128.133 15.7235 128.387 15.7229C128.656 15.7363 129.085 15.7497 129.781 15.7491C130.236 15.7484 130.639 15.7209 130.8 15.7209C130.974 15.7202 131.081 15.7759 131.188 15.9001C131.256 15.9834 133.898 19.3275 134.301 19.8406C134.488 20.0763 136.446 22.6146 136.594 22.7959H136.647L136.646 21.5321ZM51.3197 32.7942C51.319 32.4644 51.2526 32.3153 51.0542 32.3153H50.6111C50.5545 32.3153 50.5454 32.2971 50.5454 32.2309V32.005C50.5454 31.9486 50.5545 31.9298 50.63 31.9291C50.7236 31.9291 51.187 31.9576 52.178 31.9562C53.0075 31.9555 53.4604 31.927 53.5645 31.9263C53.64 31.9263 53.6498 31.9451 53.6505 32.0016V32.2462C53.6505 32.2936 53.6407 32.3125 53.575 32.3125L53.2535 32.3132C52.9327 32.3132 52.7727 32.4923 52.7538 32.6805C52.7447 32.7844 52.7357 33.4243 52.7357 33.9046L52.7363 34.5258C52.737 35.0249 52.7762 36.2204 52.786 36.5216C52.7958 36.9545 52.8803 37.3776 53.0886 37.6411C53.401 38.0176 53.8441 38.1674 54.269 38.1674C54.6184 38.1667 55.1272 37.9876 55.3823 37.752C55.7597 37.4132 55.9763 36.8945 55.9749 36.2169L55.9735 34.767C55.9735 33.9765 55.8778 32.9412 55.84 32.7244C55.8016 32.4798 55.6506 32.3111 55.4906 32.3111H55.1887C55.1314 32.3111 55.1216 32.2832 55.1216 32.2358V31.9911C55.1216 31.9437 55.1314 31.9249 55.188 31.9249C55.2823 31.9249 55.717 31.9535 56.3586 31.9528C56.8674 31.9521 57.17 31.9235 57.2552 31.9235C57.3398 31.9228 57.3496 31.9611 57.3496 32.0078V32.2149C57.3496 32.2713 57.3398 32.309 57.293 32.309L57.0002 32.3097C56.6416 32.3097 56.6137 32.5732 56.5948 32.6673C56.5759 32.799 56.5766 34.0977 56.5773 34.2302C56.5773 34.3619 56.5606 36.0092 56.5319 36.3773C56.476 37.149 56.2223 37.7422 55.7317 38.1758C55.3173 38.5425 54.6757 38.76 54.0621 38.7607C53.6183 38.7607 53.0145 38.6958 52.6175 38.5271C52.1647 38.3285 51.7488 37.8872 51.5224 37.2842C51.3617 36.8799 51.3232 36.249 51.3218 35.0165L51.3197 32.7942ZM65.9585 35.8956C65.9585 35.054 65.9488 34.5911 65.9308 34.1178C65.9218 33.7495 65.878 32.8225 65.8515 32.6804C65.7994 32.4444 65.59 32.3128 65.3896 32.3128H65.1119C65.0681 32.3135 65.0591 32.2855 65.0591 32.2287V31.9921C65.0591 31.9445 65.0675 31.9256 65.1377 31.9249C65.233 31.9249 65.512 31.9536 66.1556 31.9529C66.6769 31.9522 66.8856 31.9235 66.9816 31.9235C67.0602 31.9235 67.0692 31.9424 67.0699 31.9998V32.2266C67.0699 32.2736 67.0608 32.3114 67.0254 32.3114H66.7819C66.6343 32.3114 66.5474 32.4717 66.5216 32.8127C66.461 33.447 66.3232 35.584 66.3244 36.8317L66.3257 38.4484C66.3257 38.5905 66.3186 38.7607 66.1962 38.7607C66.0654 38.7607 65.952 38.7131 65.8567 38.6094C65.7085 38.4582 65.282 37.9576 64.7595 37.2868C64.1326 36.4837 63.4355 35.577 63.2699 35.369C63.1224 35.18 61.9195 33.5549 61.7192 33.2426L61.6502 33.2433L61.6509 35.1534C61.6522 35.9383 61.7314 37.1006 61.7404 37.4598C61.7578 38.0087 61.9157 38.2923 62.2803 38.2923L62.4981 38.2916C62.5586 38.2916 62.5677 38.3196 62.5677 38.3763V38.6031C62.5677 38.6599 62.5593 38.6788 62.4981 38.6788C62.4111 38.6788 61.8892 38.6515 61.4801 38.6522C61.2108 38.6522 60.6104 38.6809 60.5234 38.6809C60.4886 38.6809 60.4796 38.662 60.4796 38.5954V38.3504C60.4796 38.3217 60.4886 38.2937 60.5311 38.2937H60.8359C61.0279 38.293 61.167 37.9898 61.2095 37.3568C61.2186 37.1769 61.2862 35.6638 61.2849 34.2649L61.2843 33.4134C61.2836 32.8554 60.9705 32.3261 60.535 32.3177L60.3179 32.3079C60.2747 32.3086 60.2657 32.2708 60.2657 32.2427V31.9872C60.2657 31.9494 60.274 31.9305 60.3172 31.9298C60.361 31.9298 60.4306 31.9396 60.5962 31.9396C60.7701 31.9487 61.0485 31.9578 61.5007 31.9578C61.7965 31.9571 62.0574 31.9382 62.1618 31.9382C62.2752 31.9382 62.3447 31.9746 62.415 32.06C62.4575 32.1174 64.1738 34.3937 64.4354 34.7431C64.5565 34.9041 65.829 36.6335 65.9243 36.7561H65.9598L65.9585 35.8956ZM71.7835 34.7207C71.7835 34.4911 71.7553 32.7678 71.7461 32.643C71.7284 32.4133 71.64 32.3176 71.4539 32.3183H71.0294C70.9848 32.3183 70.958 32.2999 70.958 32.2609V31.9837C70.958 31.9454 70.9848 31.9263 71.0202 31.9263C71.1264 31.9263 71.5778 31.9547 72.4452 31.954C73.3473 31.9532 73.6297 31.9242 73.7542 31.9235C73.7981 31.9235 73.8158 31.9525 73.8164 32.01V32.2488C73.8164 32.2971 73.7902 32.3155 73.745 32.3155L73.4895 32.3162C73.268 32.3162 73.1351 32.3935 73.1351 32.5657C73.1351 32.6614 73.1102 34.7767 73.1102 34.8916L73.1115 35.6288C73.1115 35.7245 73.1396 37.9355 73.1396 38.022C73.1396 38.3183 73.2726 38.3672 73.4404 38.3672L73.804 38.3665C73.8472 38.3665 73.8741 38.385 73.8741 38.4325V38.7011C73.8741 38.7394 73.8479 38.7578 73.7948 38.7578C73.6887 38.7578 73.3349 38.7302 72.495 38.7309C71.566 38.7323 71.1853 38.7607 71.0877 38.7607C71.0438 38.7607 71.0169 38.7422 71.0169 38.6848V38.4268C71.0169 38.3878 71.0431 38.3687 71.0877 38.3687H71.3439C71.5214 38.3687 71.7068 38.3389 71.7428 38.1092C71.7592 37.966 71.7848 35.8982 71.7841 35.3906L71.7835 34.7207ZM82.1765 31.9913C82.1765 31.9449 82.186 31.9255 82.2305 31.9255C82.313 31.9255 82.7324 31.9532 83.3444 31.9525C84.1922 31.9519 84.4205 31.9235 84.5022 31.9235C84.5569 31.9235 84.5657 31.9429 84.5664 32.0079V32.2412C84.5664 32.2793 84.5576 32.307 84.5022 32.307H84.2928C84.1381 32.307 83.8551 32.3734 83.6187 32.7936C83.2546 33.4305 82.8628 34.5332 82.5169 35.3196C82.2893 35.8242 81.2612 38.3294 81.1059 38.6015C81.0417 38.7136 80.9971 38.7607 80.8965 38.7607C80.7782 38.7607 80.7411 38.6485 80.6864 38.5267C80.348 37.7888 79.5164 35.5272 79.2598 34.8828C79.0044 34.2383 78.5471 32.8829 78.437 32.6205C78.3458 32.406 78.2357 32.3132 78.0446 32.3132H77.8068C77.771 32.3132 77.7622 32.2661 77.7622 32.2197V31.9955C77.7615 31.9484 77.7703 31.9297 77.8257 31.9297C77.9162 31.9297 78.2175 31.9581 79.3125 31.9567C80.2608 31.956 80.6708 31.9269 80.7533 31.9269C80.8357 31.9269 80.8444 31.9553 80.8451 32.0114V32.2267C80.8451 32.273 80.8363 32.3104 80.7715 32.3104L80.3797 32.3111C80.1609 32.3111 79.9879 32.4136 79.9879 32.5354C79.9879 32.6109 79.9879 32.723 80.0156 32.8531C80.0886 33.1896 80.4365 34.3027 80.6283 34.844C80.7472 35.1894 81.2045 36.5628 81.3234 36.9276H81.3598C81.624 36.3019 82.0698 35.132 82.1887 34.7956C82.3609 34.338 82.6433 33.5516 82.7885 33.1307C82.8797 32.8878 82.8797 32.7285 82.8797 32.6164C82.8797 32.5049 82.7696 32.3084 82.5048 32.309H82.2224C82.186 32.309 82.1765 32.2814 82.1765 32.2253V31.9913ZM89.6418 35.0654C90.0613 35.0647 90.4626 35.0356 90.5721 35.0073C90.7268 34.969 90.8545 34.8818 90.9917 34.7097C91.0916 34.5665 91.2018 34.2987 91.2011 34.1166C91.2011 34.0492 91.2281 34.0301 91.2741 34.0301L91.52 34.0585C91.5659 34.0684 91.6024 34.0776 91.5936 34.135C91.5659 34.298 91.5666 34.7954 91.5673 35.1306C91.5673 35.5607 91.6038 36.0205 91.6227 36.2211C91.6315 36.2785 91.595 36.2884 91.5497 36.2976L91.3308 36.3465C91.2937 36.3557 91.2754 36.3366 91.2579 36.2693C91.2207 36.1162 91.1295 35.8965 91.0748 35.7818C90.9748 35.5996 90.7552 35.4756 90.5728 35.4473C90.3268 35.409 90.0438 35.3899 89.6418 35.3906L89.6424 35.9653C89.6431 36.4811 89.6891 37.4101 89.6891 37.5823C89.6897 38.0797 89.7904 38.2519 89.9093 38.3093C90.0458 38.366 90.2194 38.3943 90.6755 38.3943C90.8309 38.3936 91.2133 38.3844 91.4045 38.3653C91.5882 38.3454 91.8612 38.2498 92.099 38.0485C92.3348 37.8473 92.8456 37.2535 93.028 37.0239C93.0645 36.9849 93.0922 36.975 93.1192 36.9949L93.2746 37.0898C93.3118 37.1097 93.3199 37.1387 93.3118 37.1671L92.9016 38.6126C92.8746 38.699 92.8104 38.7557 92.701 38.7557C92.6557 38.7557 92.4551 38.7465 91.8706 38.738C91.2781 38.7387 90.3106 38.7295 88.7324 38.7309C88.3945 38.7316 88.1392 38.7408 87.9567 38.7408C87.7655 38.7515 87.6466 38.7607 87.5649 38.7607C87.5007 38.7607 87.4825 38.7323 87.4825 38.6551V38.4546C87.4825 38.3972 87.5095 38.3688 87.573 38.3688H87.8473C88.2669 38.3681 88.3033 38.3008 88.3027 37.9663L88.3 34.76C88.3 33.9663 88.2797 32.7894 88.2709 32.693C88.2344 32.3876 88.1425 32.3203 87.8959 32.3203L87.5412 32.321C87.5041 32.321 87.4946 32.2926 87.4946 32.2253V31.9957C87.4946 31.9674 87.5041 31.9284 87.5581 31.9284C87.7595 31.9284 88.079 31.9568 88.9087 31.9561L92.1112 31.944C92.2571 31.9433 92.4307 31.9235 92.476 31.9235C92.5219 31.9235 92.5395 31.9433 92.5496 31.9717C92.5855 32.1056 92.8881 33.4165 92.9246 33.5121C92.9435 33.5596 92.9435 33.578 92.8969 33.6078L92.7523 33.685C92.7152 33.7035 92.6692 33.6935 92.6422 33.6461C92.5963 33.5702 91.774 32.7093 91.5646 32.5754C91.3734 32.4521 91.1173 32.3274 90.87 32.3174L89.6668 32.2806L89.6418 35.0654ZM99.0183 35.4087C99.1778 35.4179 99.2783 35.4179 99.354 35.4179C100.459 35.4165 100.718 34.2108 100.717 33.7607C100.717 33.3205 100.583 32.8995 100.399 32.6883C100.097 32.3828 99.7195 32.268 99.4682 32.268C99.3261 32.2687 99.2169 32.2885 99.1505 32.3544C99.0996 32.3934 99.0748 32.499 99.0581 32.6139L99.0183 35.4087ZM97.8437 34.376C97.8437 33.6679 97.8425 33.0554 97.835 32.7967C97.8257 32.4806 97.7165 32.3183 97.5992 32.3183L97.2648 32.319C97.222 32.319 97.2139 32.2906 97.2139 32.2516V31.9936C97.2139 31.9454 97.222 31.9263 97.2642 31.9263C97.3399 31.9263 97.5992 31.9547 98.5132 31.954C98.9817 31.9532 99.7189 31.9235 100.063 31.9235C100.716 31.9228 101.203 32.19 101.546 32.5536C101.848 32.869 102.025 33.2419 102.025 33.5963C102.027 34.8119 101.23 35.3584 100.493 35.4356V35.503C100.753 35.5987 100.887 35.7794 101.047 36.0098C101.156 36.1622 101.617 37.0142 101.685 37.129C101.734 37.2148 102.187 37.9413 102.355 38.1617C102.456 38.2865 102.774 38.363 102.967 38.3623C103.026 38.3623 103.035 38.4006 103.035 38.4382V38.6685C103.035 38.7259 103.026 38.7543 102.967 38.7543C102.9 38.7543 102.682 38.7267 102.037 38.7274C101.795 38.7274 101.485 38.7465 101.241 38.7564C100.99 38.536 100.47 37.4267 100.327 37.1013C100.041 36.4514 99.6972 35.7433 99.2945 35.744H99.0097L99.0109 36.2316C99.0109 36.7966 99.037 37.8683 99.0537 37.993C99.0705 38.1943 99.1375 38.3666 99.2634 38.3666L99.6072 38.3659C99.6655 38.3659 99.6742 38.3942 99.6742 38.4417V38.6721C99.6742 38.7387 99.6662 38.7578 99.5408 38.7578C99.5321 38.7578 99.3224 38.7302 98.4425 38.7309C97.5546 38.7309 97.3616 38.7607 97.2698 38.7607C97.2027 38.7607 97.2027 38.7316 97.2027 38.665V38.4445C97.2027 38.3971 97.2021 38.3687 97.2443 38.3687L97.4956 38.368C97.6799 38.368 97.8307 38.3007 97.8307 38.0611C97.8462 37.1134 97.8456 36.2139 97.845 35.3052L97.8437 34.376ZM107.338 36.5878C107.371 36.5878 107.396 36.5974 107.396 36.6615C107.412 36.9467 107.529 37.343 107.728 37.7026C107.968 38.1255 108.375 38.3288 108.773 38.3281C109.171 38.3281 109.809 38.0321 109.808 37.3048C109.807 36.5401 109.675 36.3183 108.597 35.8674C108.348 35.7671 107.817 35.4731 107.394 35.0671C107.104 34.7826 106.979 34.2949 106.979 33.76C106.978 33.1979 107.102 32.8206 107.599 32.4051C107.972 32.0913 108.287 31.9624 108.792 31.9617C109.397 31.961 109.722 32.0715 109.895 32.1445C109.978 32.1814 110.036 32.1629 110.086 32.0988L110.194 31.9787C110.227 31.9419 110.268 31.9235 110.318 31.9235C110.376 31.9235 110.393 32.0251 110.401 32.0804L110.535 33.6549C110.535 33.6918 110.519 33.7013 110.494 33.7109L110.311 33.775C110.269 33.7934 110.229 33.775 110.203 33.7109C110.113 33.4441 109.971 33.0839 109.688 32.753C109.482 32.4952 109.232 32.3669 108.86 32.3669C108.237 32.3676 107.981 32.9666 107.981 33.206C107.982 33.5471 107.99 33.8235 108.197 34.0534C108.413 34.3024 108.885 34.5227 109.292 34.651C109.69 34.7806 110.014 35.0098 110.354 35.3509C110.677 35.6723 110.81 36.0775 110.811 36.7222C110.812 37.8465 110.092 38.7593 108.997 38.7607C108.251 38.7614 107.862 38.6236 107.513 38.3657C107.413 38.292 107.364 38.2647 107.323 38.2647C107.273 38.2647 107.24 38.3302 107.19 38.4216C107.14 38.5233 107.098 38.5328 107.041 38.5328C106.949 38.5328 106.916 38.4864 106.924 38.3848L107.056 36.6342C107.064 36.5701 107.089 36.5701 107.122 36.5701L107.338 36.5878ZM115.525 34.7207C115.524 34.4911 115.497 32.7678 115.487 32.643C115.47 32.4133 115.381 32.3176 115.195 32.3176L114.771 32.3183C114.726 32.3183 114.699 32.2999 114.699 32.2609V31.9837C114.699 31.9454 114.725 31.9263 114.761 31.9263C114.867 31.9263 115.319 31.9547 116.185 31.954C117.088 31.9525 117.371 31.9235 117.495 31.9235C117.539 31.9235 117.557 31.9525 117.557 32.01V32.2488C117.557 32.2971 117.531 32.3155 117.486 32.3155H117.23C117.009 32.3162 116.876 32.3935 116.876 32.5657C116.876 32.6614 116.851 34.7767 116.851 34.8916L116.852 35.6288C116.852 35.7245 116.881 37.9355 116.881 38.022C116.881 38.3183 117.014 38.3672 117.182 38.3665H117.545C117.588 38.3665 117.615 38.385 117.615 38.4325V38.7011C117.615 38.7394 117.588 38.7578 117.536 38.7578C117.43 38.7578 117.075 38.7295 116.236 38.7309C115.307 38.7316 114.926 38.7607 114.829 38.7607C114.784 38.7607 114.758 38.7422 114.758 38.6848V38.4268C114.758 38.3878 114.784 38.3687 114.829 38.3687H115.084C115.263 38.3687 115.448 38.3389 115.483 38.1092C115.5 37.966 115.525 35.8982 115.525 35.3906V34.7207ZM124.237 32.7571L123.913 32.7578C123.618 32.7578 123.065 32.7678 122.677 32.9029C122.474 33.048 122.069 33.5988 121.839 33.9238C121.811 33.9685 121.783 33.996 121.747 33.9873L121.544 33.9151C121.507 33.9064 121.497 33.8609 121.507 33.8335C121.608 33.4551 121.911 32.2624 121.947 32.0819C121.975 31.9642 122.021 31.9288 122.086 31.9288C122.15 31.9288 122.178 31.9643 122.262 32.0639C122.364 32.1902 122.538 32.2704 122.87 32.2892C123.359 32.3152 123.747 32.3426 124.706 32.3413H125.241C126.246 32.34 126.643 32.3032 127.03 32.2851C127.233 32.2758 127.593 32.1675 127.704 32.0585C127.796 31.9683 127.851 31.9235 127.916 31.9235C127.98 31.9235 128.008 31.9596 128.027 32.0679C128.055 32.2664 128.231 33.3856 128.305 33.8643C128.315 33.9004 128.296 33.9365 128.268 33.9451L128.075 34.018C128.037 34.0267 128.019 33.9993 127.982 33.9365C127.779 33.6109 127.418 33.1422 127.188 32.9263C126.957 32.7906 126.136 32.7558 125.924 32.7558H125.62L125.622 35.2388C125.622 35.3645 125.624 37.8929 125.633 38.028C125.652 38.2539 125.727 38.3896 125.948 38.3896L126.363 38.389C126.446 38.389 126.455 38.4157 126.455 38.4792V38.6865C126.455 38.7319 126.446 38.7587 126.363 38.7587C126.271 38.7587 125.976 38.7326 124.952 38.7326C123.974 38.7333 123.587 38.7607 123.457 38.7607C123.384 38.7607 123.374 38.7252 123.374 38.653V38.4819C123.374 38.4184 123.383 38.3916 123.439 38.3916H123.909C124.094 38.391 124.204 38.2827 124.223 38.1195C124.241 37.9297 124.238 35.1586 124.238 34.9867L124.237 32.7571ZM135.256 36.9502C135.256 37.3229 135.285 37.9451 135.295 38.0315C135.324 38.3377 135.466 38.366 135.617 38.366H135.892C135.958 38.366 135.958 38.3943 135.958 38.4326V38.6721C135.958 38.7295 135.958 38.7578 135.892 38.7578C135.779 38.7578 135.409 38.7295 134.518 38.7309C133.532 38.7316 133.239 38.76 133.135 38.7607C133.096 38.7607 133.078 38.7323 133.078 38.665V38.4354C133.078 38.3972 133.086 38.3688 133.143 38.3688L133.475 38.3681C133.721 38.3681 133.798 38.2718 133.807 38.147C133.816 38.0138 133.835 37.2578 133.834 36.3678V35.9568C133.682 35.6599 132.163 32.8666 131.926 32.5414C131.812 32.3982 131.584 32.3224 131.432 32.3224H131.29C131.234 32.3224 131.224 32.2941 131.224 32.2551V31.9872C131.224 31.949 131.234 31.9298 131.29 31.9298C131.375 31.9298 131.82 31.9582 132.665 31.9575C133.64 31.9568 133.982 31.927 134.076 31.927C134.132 31.927 134.142 31.9461 134.143 31.9943V32.2338C134.143 32.2813 134.133 32.3196 134.076 32.3196L133.858 32.3203C133.725 32.3203 133.632 32.4159 133.632 32.569C133.632 32.7419 134.762 34.9307 135.018 35.4863C135.301 34.9598 136.437 32.9396 136.437 32.6427C136.437 32.4797 136.275 32.3174 136.076 32.3182H135.82C135.764 32.3182 135.754 32.2898 135.754 32.2324V31.983C135.754 31.9454 135.763 31.9256 135.82 31.9256C135.914 31.9256 136.304 31.9539 137.004 31.9532C137.658 31.9525 137.867 31.9235 137.953 31.9235C138.019 31.9235 138.028 31.9433 138.028 32.0007V32.2303C138.028 32.2877 138.019 32.316 137.953 32.316H137.782C137.669 32.316 137.384 32.3741 137.243 32.5463C137.119 32.6994 135.643 35.1504 135.255 35.888L135.256 36.9502Z" fill="#70273D"/>
<path fill-rule="evenodd" clip-rule="evenodd" d="M38.3857 0.716064L38.3945 10.6192L38.4046 18.4685L38.4066 23.3457C38.4072 23.3556 38.4187 23.707 38.3703 24.2707C38.8722 23.9597 39.6233 23.7427 40.2555 23.7824C40.2558 23.7824 40.2637 23.7821 40.279 23.7817L40.3965 23.7813C40.8754 23.7857 42.5464 23.8665 44.9779 24.6995L45.0813 24.7358L43.0779 27.9701L45.1331 32.0406L44.9255 31.9698C42.3248 31.0772 40.6035 31.0587 40.3086 31.0627L40.3133 33.8913C40.3133 33.9138 40.3052 33.935 40.2911 33.9522C33.906 41.2721 24.3444 41.674 22.8347 41.6905L22.6545 41.6907C22.6092 41.6902 22.5773 41.6893 22.5585 41.6884C22.535 41.689 22.4778 41.6917 22.3898 41.6911L22.2876 41.6907C20.7785 41.6769 11.216 41.2929 4.81846 33.9833C4.80368 33.9667 4.79629 33.9456 4.79629 33.9231L4.79427 31.0931C4.40527 31.0911 2.72096 31.1414 0.206928 32.0102L0 32.081L2.04307 28.0071L0.0369514 24.7762L0.140415 24.7398C2.75401 23.8386 4.4912 23.8102 4.81533 23.8132L4.86296 23.814C5.49635 23.7599 6.25419 23.9815 6.75672 24.3005C6.72466 23.94 6.71708 23.6662 6.71598 23.5117L6.71621 23.4094C6.71653 23.3855 6.71696 23.3722 6.71709 23.3702L6.69626 0.744516L38.3857 0.716064ZM39.8483 28.4233C32.9847 36.138 24.3344 36.4023 22.7702 36.4125L22.2794 36.4123C20.5549 36.3979 12.0368 36.0583 5.24777 28.4544L5.25045 33.89C11.5928 41.1075 20.7996 41.2435 22.2875 41.2451L22.3898 41.2451C22.4725 41.2451 22.5269 41.2417 22.5524 41.2411C22.5934 41.2417 22.6485 41.2451 22.7311 41.2451C22.7454 41.2451 22.7611 41.2451 22.7781 41.2451L22.9689 41.2442C24.8109 41.2275 33.6972 40.8952 39.8577 33.8589L39.8483 28.4233ZM23.1864 37.6986C23.1757 37.8548 23.1676 38.0003 23.1602 38.1532C23.3174 38.1651 23.5815 38.1651 23.9221 38.1326C23.9201 38.1836 23.9174 38.2372 23.9147 38.2901C23.7219 38.3272 23.6507 38.3272 23.3369 38.3232C23.2899 38.3278 23.2402 38.3312 23.1918 38.3371C23.1434 38.3616 23.1394 38.4105 23.1394 38.6282C23.1354 38.9134 23.1334 39.184 23.1293 39.4719C23.134 40.248 23.4841 40.1024 23.9597 39.8464C23.9631 39.8636 23.9658 39.8828 23.9698 39.9033C23.8663 39.9985 22.9137 40.8144 22.7954 39.7114V39.4322C22.7995 39.0782 22.7995 38.742 22.8048 38.3894L22.5274 38.3795C22.5287 38.3556 22.5301 38.3351 22.5327 38.3133C22.9002 38.0751 22.95 38.0003 23.1864 37.6986ZM20.731 38.7894C20.987 38.1767 21.6561 37.734 22.1869 38.6398C22.2077 38.6994 22.2467 38.7027 22.3031 38.7047C22.3071 38.7371 22.3071 38.7702 22.3091 38.8026C21.8926 38.8919 21.4183 38.9773 21.0017 39.052C21.0696 39.9698 21.5231 40.2993 22.2258 39.846C22.2413 39.8699 22.2567 39.893 22.2756 39.9162C22.154 40.0075 22.0767 40.0637 21.945 40.1332C20.9346 40.5481 20.516 39.6204 20.731 38.7894ZM27.719 36.1962C27.7512 36.3351 27.6874 36.4489 27.6934 36.5938C27.7008 36.701 27.7116 36.8069 27.719 36.9167C27.6928 36.926 27.6672 36.9326 27.6397 36.9392C27.4301 36.1247 26.4928 36.4185 26.1636 36.7711C25.9419 37.0841 25.6913 37.5479 26.8395 37.8377C28.2726 38.207 27.858 38.9255 27.7304 39.222C27.555 39.5845 27.1109 40.1126 25.9063 39.9848C25.8143 39.9796 25.7424 39.9723 25.7652 40.0934C25.7283 40.096 25.6934 40.1013 25.6564 40.102C25.647 39.6871 25.6047 39.5243 25.5052 39.1306C25.5328 39.1201 25.5617 39.1095 25.5865 39.0989C25.7068 39.2908 25.825 39.4774 25.9466 39.6712C26.9437 40.0656 27.6699 39.5799 27.4603 38.7039C27.3313 38.3777 27.1009 38.3347 26.6507 38.2288C24.9422 37.755 25.825 36.8135 26.2255 36.5482C26.5379 36.3814 26.8698 36.31 27.3669 36.3C27.5033 36.2921 27.5826 36.2014 27.719 36.1962ZM17.9782 37.636C17.9849 37.7922 17.9889 37.939 17.993 38.0932C18.1058 38.0515 18.2133 38.0052 18.3282 37.9622C18.4465 37.9086 18.562 37.8616 18.6823 37.806C18.7461 37.8649 18.8166 37.8927 18.8731 37.9615C18.9154 38.0145 18.9228 38.0813 18.9221 38.1058C18.8966 38.2957 18.7501 38.3155 18.646 38.3188C18.6373 38.3188 18.6292 38.3175 18.6198 38.3188C18.5492 37.9351 18.1925 38.1389 18.0769 38.2064C18.0454 38.3036 18.0131 38.3969 17.9795 38.4902C17.9795 38.4955 17.9412 39.1578 17.999 39.6018C18.0245 39.7619 18.0487 39.7719 18.1817 39.7944C18.2053 39.8016 18.2301 39.8016 18.2536 39.8056C18.3672 39.8261 18.4753 39.8407 18.5869 39.8585C18.5855 39.9022 18.5828 39.9432 18.5822 39.9862C18.1435 39.9154 17.7424 39.8466 17.3023 39.7745C17.305 39.7434 17.3077 39.7136 17.309 39.6852C17.485 39.6872 17.5637 39.7037 17.614 39.4179C17.6161 39.4046 17.7014 38.2745 17.5502 38.0522C17.5274 38.0323 17.4837 37.9887 17.262 37.9874C17.2674 37.9596 17.2701 37.9298 17.2741 37.9C17.5126 37.8107 17.7417 37.7273 17.9782 37.636ZM15.4842 37.8678C15.7637 37.2286 16.4302 37.05 16.9327 38.0213C16.9542 38.0855 16.9831 38.098 17.0537 38.1159C17.0557 38.1497 17.057 38.1821 17.0584 38.2171C16.6405 38.2171 16.1628 38.2039 15.7476 38.1913C15.8195 39.1474 16.2555 39.5769 16.9724 39.2692L17.0207 39.3512C16.9744 39.3751 16.9267 39.4002 16.8783 39.4253C15.6744 39.8587 15.2699 38.6823 15.4842 37.8678ZM29.9823 36.9667C29.9063 38.0585 29.9124 38.6626 29.9682 38.8736C30.0992 38.8214 30.1724 38.7678 30.245 38.7082V38.8392C30.0649 38.963 29.7975 39.1562 29.682 39.2435C29.6558 39.1654 29.6275 39.0351 29.6161 38.8531C29.0518 39.3587 28.3463 40.0971 28.2906 38.734C28.2973 38.517 28.304 38.3099 28.3114 38.0929C28.3013 37.7263 28.3107 37.6913 28.0057 37.9017C28.0057 37.8653 28.0057 37.8282 28.005 37.7905C28.1979 37.635 28.3792 37.4802 28.5701 37.326C28.6164 37.2883 28.644 37.2592 28.6594 37.3313C28.6487 37.4881 28.6399 37.6396 28.6292 37.8011C28.5324 39.0186 28.4612 39.6815 29.6201 38.7215L29.6205 38.6318C29.621 38.5601 29.6223 38.4675 29.6255 38.4409C29.6309 38.2431 29.6376 38.0572 29.641 37.8626C29.6423 37.3485 29.6423 37.3551 29.3279 37.4259C29.3272 37.3935 29.3272 37.3604 29.3245 37.33C29.5462 37.2036 29.7585 37.0905 29.9823 36.9667ZM14.474 36.4138C14.4659 36.5667 14.4579 36.7129 14.4485 36.8631C14.5983 36.9293 14.8341 37.0153 15.1794 37.1073C15.1767 37.1589 15.1754 37.2111 15.1747 37.2647C14.9799 37.231 14.8905 37.1946 14.6661 37.1145C14.6083 37.098 14.5539 37.0762 14.4928 37.0576C14.4343 37.0636 14.4296 37.0636 14.4303 37.3336C14.4283 37.6174 14.4222 37.8874 14.4209 38.1686C14.4209 38.9613 14.7877 38.9169 15.2157 38.8448C15.2184 38.8673 15.2217 38.8871 15.2264 38.907C15.0545 39.0096 14.2005 39.3338 14.1085 38.2936V38.0137C14.1112 37.6644 14.1145 37.3296 14.1186 36.9809C14.0312 36.9425 13.9513 36.9108 13.8646 36.8737C13.8646 36.8519 13.8673 36.834 13.8693 36.8122C14.1911 36.6997 14.2489 36.6415 14.474 36.4138ZM21.7757 38.5062C21.5043 38.2263 21.0898 38.0662 21.0071 38.9495C21.1247 38.9276 21.2349 38.9118 21.3518 38.8893C21.462 38.8661 21.5668 38.8443 21.681 38.8231C21.681 38.8231 21.859 38.7867 21.8899 38.7682C21.9215 38.7205 21.8382 38.5823 21.7757 38.5062ZM31.0991 36.5845C31.3409 36.4052 31.351 36.378 31.6312 36.5117C31.6775 36.7995 31.7185 37.0774 31.7642 37.3666C31.7615 37.4387 31.7575 37.5102 31.7548 37.5796C31.7514 37.6352 31.7494 37.6895 31.7467 37.745C31.7262 38.3118 31.8918 38.1831 32.0483 38.0281L32.1142 37.9621V38.0752C32 38.1831 31.8912 38.2856 31.7749 38.3922C31.7091 38.4563 31.568 38.6178 31.4706 38.2691C31.2845 38.4649 30.9519 38.8103 30.7013 38.8487C30.4272 38.8209 30.4232 38.3174 30.6704 38.0349C30.9613 37.7735 31.179 37.6518 31.4652 37.489L31.4746 37.1529C31.4746 36.8736 31.482 36.787 31.2738 36.7195C31.0399 36.6758 30.8109 36.8485 30.8942 37.086C30.7947 37.172 30.7 37.2567 30.6012 37.3394C30.5972 37.3242 30.5912 37.3103 30.5878 37.2964C30.5703 37.2058 30.5092 37.041 31.0991 36.5845ZM13.355 36.4216C13.3684 36.4309 13.3825 36.4402 13.3973 36.4488C13.3294 36.8365 13.3093 37.8548 13.3482 38.2545C13.4604 38.3557 13.5679 38.4497 13.6801 38.5529C13.6916 38.584 13.701 38.6137 13.711 38.6435C13.3953 38.5231 13.0943 38.4106 12.7825 38.2935C12.7846 38.2637 12.7879 38.2366 12.7913 38.2108C12.9868 38.271 13.0043 38.2406 13.013 38.2009C13.0405 37.9792 13.056 37.0568 13.0284 36.8286C12.9787 36.7723 12.9317 36.7154 12.8806 36.6579C12.7973 36.6109 12.7597 36.5943 12.7886 36.5553C12.7993 36.55 12.8094 36.5474 12.8215 36.5467C13.0721 36.5553 13.2636 36.466 13.355 36.4216ZM31.4693 37.6412C30.788 37.9072 30.7813 38.2115 30.7793 38.2836C30.7793 38.3822 30.8102 38.5735 30.9674 38.5662C31.0769 38.5377 31.2469 38.375 31.4565 38.1692C31.4478 38.0091 31.4693 37.6451 31.4693 37.6412ZM16.4416 37.709C16.0976 37.3748 15.8141 37.349 15.7503 38.0868C15.8665 38.0901 15.976 38.0947 16.0916 38.0987C16.2004 38.0994 16.3066 38.0994 16.4181 38.102C16.4658 38.1027 16.6096 38.104 16.6358 38.0861C16.6532 38.0418 16.5793 37.8625 16.4416 37.709ZM11.9747 35.4357C11.9687 35.5872 11.962 35.7301 11.9526 35.8797C11.9989 35.9048 12.2045 36.0299 12.5955 36.1854C12.5942 36.2363 12.5942 36.2859 12.5928 36.3395C12.5787 36.3362 12.5639 36.3283 12.5492 36.3263C12.5102 36.3111 12.4161 36.2813 12.314 36.2304C12.2045 36.1781 12.101 36.1278 11.9949 36.0742C11.9425 36.0749 11.9371 36.0669 11.9371 36.3402C11.9351 36.6141 11.9317 36.8801 11.9304 37.1554C11.925 37.8468 12.1642 37.9143 12.6304 37.8812C12.6365 37.9004 12.6365 37.9209 12.6405 37.9408C12.5431 37.9924 11.7456 38.3259 11.6583 37.2467L11.6576 36.9774C11.659 36.636 11.6616 36.3065 11.665 35.9657C11.5904 35.9233 11.5165 35.8823 11.4413 35.8393L11.4473 35.7791C11.7302 35.6971 11.7759 35.6461 11.9747 35.4357ZM33.755 35.4311V35.5111C33.6132 35.6699 33.5729 35.7526 33.4103 36.2992C33.2753 36.7259 33.155 37.1223 33.02 37.5689C32.9817 37.7065 32.9481 37.8382 32.9085 37.9785C32.885 37.9897 32.8635 37.997 32.8399 38.0102C32.6276 37.1666 32.3058 36.454 32.3018 36.4454C32.2259 36.3984 32.154 36.3567 32.0774 36.3098C32.0774 36.2853 32.0741 36.2641 32.0754 36.2462C32.4583 36.1013 32.7869 35.9267 32.8883 35.8717C32.8863 35.9035 32.8836 35.9319 32.8796 35.9644C32.6169 36.1205 32.633 36.1066 32.6418 36.2237C32.6646 36.4103 32.8702 37.0555 32.9844 37.3228C33.3015 36.4553 33.37 36.0153 33.37 36.0107C33.3942 35.7454 33.3338 35.7645 33.1477 35.838C33.1524 35.8069 33.1544 35.7798 33.1577 35.7487C33.2081 35.7242 33.2585 35.6984 33.3089 35.6713C33.4406 35.6203 33.5595 35.5766 33.755 35.4311ZM10.5266 35.0378L10.534 35.4771C10.6146 35.4606 10.6892 35.4447 10.7691 35.4295C10.8544 35.4116 10.9371 35.3904 11.021 35.3719C11.0815 35.4864 11.1366 35.5962 11.1957 35.7127C11.1749 35.8946 11.054 35.8602 10.9962 35.8457C10.9888 35.8443 10.9834 35.8391 10.9774 35.8377C10.9236 35.4526 10.663 35.5698 10.5931 35.6042C10.5709 35.6849 10.5494 35.7643 10.5272 35.8457C10.5272 35.8485 10.5258 35.9335 10.525 36.0567L10.5247 36.2648C10.5256 36.5283 10.5319 36.8419 10.5555 36.9705C10.5763 37.0446 10.6132 37.0645 10.667 37.0962C10.6845 37.1055 10.7006 37.1161 10.718 37.1253C10.7966 37.1677 10.8746 37.208 10.9525 37.2504C10.9512 37.2907 10.9512 37.3265 10.9492 37.3655C10.6468 37.1994 10.3586 37.042 10.0583 36.8746C10.0583 36.8481 10.0617 36.8216 10.0617 36.7938C10.1745 36.8329 10.239 36.8746 10.2719 36.6185C10.2719 36.6066 10.3203 35.5559 10.2283 35.3329C10.2115 35.3071 10.1826 35.2588 10.0301 35.2025C10.0348 35.1767 10.0361 35.1509 10.0395 35.1251C10.2034 35.0973 10.3613 35.0662 10.5266 35.0378ZM34.4515 34.9711C34.4609 35.3344 34.4058 35.648 34.3978 36.0305C34.3951 36.1972 34.3951 36.4182 34.4125 36.71C34.4199 36.757 34.4233 36.8006 34.4293 36.8509C34.4461 36.9012 34.4495 36.9138 34.5664 36.8542C34.6134 36.8324 34.6604 36.8106 34.7061 36.7887C34.7169 36.8086 34.7216 36.8298 34.7303 36.8523L33.908 37.3538C33.9107 37.324 33.9127 37.2929 33.9147 37.2632C34.1209 37.1216 34.1136 37.0838 34.1236 37.013C34.1243 36.9998 34.1586 35.7526 34.1048 35.6011C34.0343 35.6083 33.9886 35.6732 33.9073 35.658C33.9194 35.6321 33.9308 35.605 33.9422 35.5779C34.1115 35.4164 34.2446 35.255 34.3964 35.0221C34.4145 35.0069 34.4327 34.9883 34.4515 34.9711ZM35.35 34.0209C35.3446 34.1777 35.3372 34.3299 35.3318 34.4861C35.3412 34.4821 35.5381 34.3901 35.8827 34.1341C35.8794 34.1883 35.88 34.2406 35.878 34.2942C35.7376 34.4166 35.6865 34.4457 35.4608 34.5767C35.4259 34.6012 35.3909 34.6277 35.356 34.6541C35.3231 34.6952 35.315 34.7395 35.315 34.9645C35.313 35.2397 35.3123 35.5044 35.3076 35.781C35.3016 35.9689 35.2391 36.5088 35.7074 36.0311C35.7833 35.9437 35.8753 35.822 35.9109 35.7777C35.9123 35.7935 35.9163 35.8094 35.9183 35.8253C35.7678 36.1124 35.2902 36.8542 35.0886 36.4115C35.0631 36.3182 35.0631 36.2547 35.0624 36.1641C35.0631 36.0728 35.0604 35.9867 35.0604 35.8987C35.0624 35.5494 35.0644 35.2199 35.0705 34.8758C34.9979 34.9142 34.9287 34.9506 34.8595 34.9876C34.8588 34.9658 34.8609 34.9433 34.8622 34.9241C35.1336 34.5324 35.1719 34.4325 35.35 34.0209ZM8.87686 34.1089C9.59976 34.361 10.0768 35.7048 9.63134 36.2771C9.16038 36.598 8.52884 35.8153 8.46905 34.7302C8.47846 34.2617 8.60409 34.0764 8.87686 34.1089ZM9.16844 34.3954C8.86275 34.0811 8.68941 34.2055 8.67463 34.7441C8.69412 35.3118 8.90508 36.072 9.2719 36.1984C9.7563 36.1746 9.63537 35.0173 9.16844 34.3954ZM37.9477 20.0076L7.17058 20.036L7.17394 23.3741C7.17385 23.3762 7.17345 23.3887 7.17313 23.411L7.17354 23.5755C7.17752 23.8266 7.19812 24.2976 7.28412 24.9032C7.28815 24.9191 7.30562 25.0071 7.3036 25.0356C7.48635 26.2339 7.9217 27.9072 8.9597 29.4701C9.62415 30.4712 10.8355 31.9195 12.552 33.4513C17.2555 35.7623 21.4299 35.9535 22.3829 35.965L22.6703 35.9654C23.5031 35.9591 27.806 35.8007 32.6469 33.3858C34.3332 31.8686 35.521 30.4381 36.1767 29.4456C37.2013 27.896 37.6346 26.2425 37.818 25.0481C37.8106 25.0058 37.8389 24.8549 37.851 24.8212C37.9298 24.2367 37.948 23.784 37.9512 23.5434L37.9512 23.3863C37.9509 23.3651 37.9505 23.3533 37.9504 23.3516L37.9477 20.0076ZM36.2519 34.1482C36.5677 33.4588 36.8384 33.2814 37.0467 33.695C37.0628 33.7492 37.085 33.7228 37.1193 33.6943C37.1206 33.7254 37.1219 33.7572 37.1233 33.7896C36.8619 34.0999 36.5509 34.442 36.2828 34.7411C36.2902 34.9813 36.2989 35.0719 36.3372 35.1784C36.3621 35.2559 36.518 35.8467 37.0736 34.8383C37.081 34.8496 37.0904 34.8642 37.1025 34.8754C36.9909 35.099 36.7887 35.4921 36.5233 35.6707C36.0013 35.8924 35.9066 35.0507 36.2519 34.1482ZM13.2644 35.1958C13.4411 35.2435 13.5365 35.4618 13.4263 35.569C13.298 35.6418 13.1361 35.5015 13.1233 35.3222C13.1287 35.1932 13.1898 35.1846 13.2644 35.1958ZM38.0112 32.269C38.0508 32.3266 38.0878 32.3756 38.1301 32.4298C38.1254 32.4808 38.11 32.6263 37.9796 32.8096C37.9776 32.7487 37.9816 32.6012 37.8661 32.7454C37.811 32.8275 37.731 32.9876 37.6981 33.069C37.6786 33.1815 37.6645 33.2913 37.6464 33.4018C37.6034 34.5235 37.6783 34.5477 37.7315 34.5006L37.7734 34.4584L37.7908 34.4393L37.9642 34.2659C37.9615 34.3037 37.9615 34.3434 37.9608 34.3837L37.2648 35.0639C37.2681 35.0348 37.2695 35.0063 37.2701 34.9786C37.3696 34.8608 37.4173 34.8131 37.4448 34.5213C37.4448 34.5075 37.4905 33.3489 37.3944 33.2834C37.3555 33.2926 37.2896 33.3641 37.2433 33.4243C37.248 33.3919 37.248 33.3641 37.25 33.331C37.375 33.0915 37.5207 32.8189 37.6457 32.5787C37.6477 32.7262 37.6504 32.8672 37.6511 33.0161C37.7095 32.8956 37.7693 32.7805 37.8298 32.6594C37.8896 32.5264 37.9501 32.4014 38.0112 32.269ZM7.03487 31.2641C7.08996 31.325 7.13967 31.3799 7.19275 31.4414C7.46619 31.7465 7.81219 32.1249 8.33959 32.5008C8.32212 32.7509 8.33152 33.0711 8.33152 33.0711C8.31137 33.0572 8.28987 33.04 8.27039 33.0235C8.18909 32.3869 7.74299 32.0581 7.43327 31.8563C7.42642 32.0218 7.42392 32.2979 7.42301 32.4936L7.42319 33.1002C7.6449 33.3517 8.07622 33.8519 8.13131 33.531C8.13199 33.5038 8.13132 33.478 8.13266 33.4509C8.15349 33.4628 8.17028 33.4754 8.18909 33.4873C8.18976 33.752 8.19044 34.0047 8.19044 34.27C8.17095 34.2535 8.15013 34.2389 8.12997 34.2211C8.1246 33.9346 8.15416 33.838 7.42588 33.2504C7.47627 33.6203 7.38557 34.0246 7.47963 34.6115C7.55689 34.7312 7.63146 34.8424 7.71074 34.9588V35.0548C7.61332 34.9602 7.51859 34.8728 7.42051 34.7762C7.37549 34.7359 7.33652 34.6988 7.29285 34.6591C7.21626 34.5863 7.14236 34.5195 7.06577 34.4513C7.06712 34.4262 7.06712 34.3997 7.06846 34.3726C7.22164 34.4672 7.21425 34.4302 7.23037 34.0669L7.23017 33.8273C7.22906 33.2502 7.22218 31.8147 7.18133 31.5824C7.15244 31.5043 7.12489 31.4646 7.03487 31.3435V31.2641ZM36.7672 33.7678C36.657 33.7095 36.3581 33.6149 36.2862 34.6339C36.3614 34.5532 36.4373 34.4725 36.5146 34.3897C36.5865 34.3103 36.657 34.2276 36.7269 34.1449C36.7612 34.1092 36.8451 34.0133 36.8646 33.9689C36.8781 33.9186 36.8371 33.8207 36.7672 33.7678ZM17.1627 21.511C18.1906 21.3998 19.2064 21.7386 19.672 22.6755C20.1746 23.6726 19.7486 24.8888 19.5632 25.9375C19.2642 26.9088 18.8866 27.8471 18.5998 28.819C18.5366 29.1486 18.5863 29.4774 18.802 29.7196C19.3388 29.5257 19.7419 28.9415 20.104 28.5153C20.6045 27.8232 21.269 27.2125 22.1592 27.1622C23.9651 27.3204 26.0707 26.6481 27.5514 27.6823C28.932 28.3618 30.4612 29.613 32.1421 28.7721L32.5056 29.0156C31.8687 29.5508 31.266 30.2449 30.4894 30.5242C30.1387 30.9893 29.8115 31.4995 29.4379 31.9739C29.3869 32.0255 29.2989 32.0923 29.19 32.1624L29.6415 32.1022C30.0668 32.0989 30.6795 31.7939 31.0201 32.1459C30.6318 32.6819 29.8283 32.1221 29.3009 32.4516L29.2263 32.5244C29.4903 32.707 29.9432 32.6091 30.267 32.6091C30.6802 32.4986 31.2217 32.5224 31.6476 32.5833C31.8102 32.6441 31.823 32.8036 31.7088 32.9134C31.1209 33.1669 30.4565 32.7791 29.8182 32.9988C29.4037 33.0967 28.8749 33.1946 28.3999 33.0835C28.2367 32.7447 27.849 33.0246 27.5212 32.9392C26.5295 33.0828 25.4573 33.3634 24.4213 33.3336C23.9611 33.3362 23.5062 33.284 23.0662 33.1358C22.9842 33.1272 22.9029 33.1225 22.8216 33.1185C22.088 33.1252 21.3711 33.3038 20.6617 33.2727C20.3627 33.276 20.0657 33.2496 19.7694 33.1642C19.5894 33.1086 19.414 33.0484 19.2427 32.9856C17.9454 32.7209 16.421 32.7163 15.2587 33.1953C14.957 33.231 14.6198 33.231 14.3551 33.0961C14.1797 32.9287 14.4673 32.8539 14.5553 32.7679C15.0585 32.7077 15.6846 32.8519 16.0736 32.5482L16.0233 32.5118C15.1572 32.5237 14.1676 32.8797 13.3648 32.4648C13.3265 32.394 13.3379 32.3451 13.3648 32.2716C13.4615 32.118 13.6047 32.1351 13.7525 32.1703L13.9004 32.2058C13.9491 32.2159 13.9968 32.2223 14.042 32.2193C15.0007 32.1982 16.9443 31.9725 17.2252 31.9567C17.1325 31.8925 17.074 31.8462 17.0599 31.8276C17.014 31.7167 16.9615 31.6087 16.9067 31.5018L16.7393 31.1829C16.5456 30.8106 16.3746 30.4306 16.4062 29.967C16.8053 28.7006 17.4442 27.5063 18.1711 26.3755C18.5097 25.5246 19.1084 24.2463 18.2296 23.4556C17.981 23.2359 17.629 23.4318 17.3548 23.4569C16.5009 23.4086 15.6349 23.4589 14.8455 23.5919C14.6319 23.5919 14.4317 23.5449 14.2818 23.3729C14.2926 23.2882 14.2308 23.181 14.3423 23.1307C15.5483 23.0698 16.0233 21.7042 17.1627 21.511ZM7.80278 28.2572V30.3858C8.94828 31.3307 10.1139 32.1187 11.2634 32.7711C10.1233 31.6582 9.18812 30.5598 8.53308 29.5733C8.24486 29.1392 8.00702 28.6966 7.80278 28.2572ZM19.3328 22.7866C18.9572 22.0555 18.1295 21.7531 17.2641 21.8636C17.0754 21.9 16.8637 21.9728 16.8133 22.1667C17.0377 22.3731 17.5141 22.1931 17.6021 22.5683C17.2769 22.9944 16.7132 22.4472 16.3619 22.7893C16.374 23.0308 16.6266 23.1029 16.8248 23.1525C17.2655 23.1777 17.8796 23.2849 18.1429 22.7986C18.2289 22.7873 18.2941 22.8244 18.368 22.8469C20.2391 25.1938 17.6941 27.3978 17.0572 29.5786C17.0827 29.6984 17.1069 29.8559 17.2211 29.9062L17.3972 29.7474C17.5087 29.7579 17.6343 29.7096 17.6961 29.8321C17.7223 29.9875 17.6605 30.098 17.5839 30.2072C17.4079 30.499 17.51 30.9033 17.6975 31.1686C17.8451 31.512 18.1391 31.6201 18.4593 31.6887L18.7026 31.7357C18.9062 31.7739 19.1084 31.8157 19.2797 31.909C19.2683 32.0083 19.1043 32.0427 19.1661 32.177C19.6431 32.6018 20.2337 32.7712 20.8975 32.7593C22.7155 32.2233 24.647 33.1946 26.4261 32.5224C26.893 32.4609 27.3942 32.4754 27.7818 32.2551C28.7863 32.1459 29.4863 31.2917 29.925 30.501C30.1004 30.0736 30.7151 30.1245 30.8125 29.6488C30.7756 29.5753 30.7023 29.613 30.6499 29.5998C30.3631 29.8823 29.8619 29.977 29.7732 30.368C29.6368 30.7557 29.1457 30.7339 29.1343 31.1594C28.7856 31.8032 28.0331 31.8766 27.4432 32.1466C25.3242 32.6091 22.8411 32.7209 20.7456 32.126C20.0321 31.8832 19.4174 31.2646 19.3166 30.5109C19.1393 30.3534 19.0029 30.7167 18.7516 30.6214C18.5507 30.5844 18.4399 30.4507 18.3008 30.2926C17.9098 29.3557 18.3236 28.3579 18.636 27.505C18.9861 26.1816 19.6257 24.9761 19.5605 23.4781L19.3328 22.7866ZM6.3901 31.9065C6.46535 31.9522 6.56612 32.2373 6.57351 32.4987C6.57015 32.6654 6.52917 32.7601 6.4546 32.6846C6.32292 32.4901 6.24968 31.9131 6.3901 31.9065ZM37.32 28.2563L37.1627 28.5796C36.9987 28.9038 36.8143 29.2286 36.6027 29.5481C35.9611 30.5188 35.05 31.5973 33.9395 32.693C35.0635 32.0453 36.2016 31.2698 37.3202 30.3402L37.32 28.2563ZM39.06 31.851C39.1232 31.8371 39.144 31.9456 39.1453 32.0521C39.1353 32.3823 39.0251 32.7012 38.9075 32.6655C38.8013 32.5431 38.9062 31.9575 39.06 31.851ZM24.8674 27.3912C24.0276 27.5751 23.0111 27.4057 22.1847 27.552C21.4692 27.8696 20.6798 28.3321 20.2928 29.0625C20.4299 29.052 20.5448 29.0129 20.6563 28.9282C20.8061 28.8793 21.0433 28.7456 21.1434 28.8905C20.5306 29.5343 19.9925 30.278 20.1316 31.2156C20.3822 31.6186 20.8336 31.6907 21.2341 31.7979C22.2365 31.8303 23.2268 31.9348 24.2251 31.9686C23.9577 31.9481 23.6849 31.8501 23.4552 31.7734L23.431 31.7602L23.48 31.7105L24.4448 31.6497C24.5583 31.6238 24.6336 31.6728 24.7216 31.7092C24.7344 31.7595 24.7834 31.8065 24.7599 31.8667C24.6208 31.9467 24.4683 31.9739 24.3124 31.9725C24.7599 31.9851 25.2087 31.9864 25.6615 31.952C25.8597 31.9891 26.0552 31.9891 26.248 31.9732C25.9423 31.9322 25.6252 31.8495 25.3236 31.8786C25.2584 31.8667 25.1993 31.8316 25.1489 31.7946C25.1234 31.7588 25.1724 31.7343 25.1858 31.7092C25.7381 31.6609 26.3515 31.9262 26.766 31.5497C26.6666 31.3307 26.4032 31.2937 26.1896 31.2242C26.0243 31.1733 25.7488 31.2586 25.685 31.0773C25.9135 30.9417 26.2124 31.0264 26.4523 31.0502C26.8379 31.1911 27.2222 31.3122 27.5615 31.5458C27.8557 31.3221 28.2474 31.299 28.5706 31.1342C28.5954 31.0879 28.5336 31.0628 28.5074 31.0244C27.9565 30.8934 27.4305 30.6975 26.8762 30.5268C26.4879 30.2621 25.9128 30.407 25.4358 30.3091C25.3585 30.3091 25.3108 30.2357 25.2826 30.1755C25.3101 30.1298 25.3498 30.0947 25.3928 30.0656C25.2886 30.0345 25.1912 29.9902 25.1213 29.9088V29.8724C25.4579 29.8354 25.8469 29.883 26.0861 29.6276C26.023 29.2524 25.5722 29.1909 25.2819 29.0811C25.0696 28.9719 24.5933 29.1552 24.643 28.7787C25.0065 28.4479 25.5077 28.9719 25.8214 28.5815C25.6716 28.1561 25.1832 28.1561 24.8304 28.0475C24.7807 28.0131 24.8304 27.939 24.8936 27.9258C25.5332 27.8775 26.0841 28.0462 26.5618 28.3374C27.1517 28.4002 27.677 28.6788 28.1037 29.1016C28.1171 29.177 28.0681 29.2379 28.0056 29.2511C27.841 29.2882 27.7173 29.2121 27.5783 29.1393C27.4009 29.1525 27.2645 29.2392 27.1013 29.2974C27.7671 29.3239 28.2192 29.8446 28.7567 30.1497C28.7466 30.4778 28.3435 30.1384 28.2817 30.4785C28.0728 30.5486 27.8195 30.5572 27.5843 30.5209C28.0748 30.683 28.5713 30.7485 29.1215 30.4421C29.7369 30.1245 28.8313 30.2105 28.8447 29.9068C28.881 29.885 28.9247 29.8784 28.9656 29.8658C28.7386 29.7057 28.4893 29.5614 28.4167 29.2961C28.7829 29.2961 29.008 29.625 29.36 29.6719C29.3996 29.7017 29.4117 29.758 29.3956 29.8056C29.5313 29.7963 29.6644 29.7811 29.7725 29.7096C29.8612 29.5767 30.1105 29.5667 30.0869 29.3815L29.4729 29.2134C27.9787 28.471 26.6867 27.3892 24.8674 27.3912ZM40.2098 24.1556C39.3364 24.1152 38.5362 24.4004 38.3139 24.7815C38.2997 24.894 38.2823 25.0111 38.2635 25.1322C38.3004 25.2711 38.4402 25.3783 38.854 25.4425C39.4721 25.5371 39.9115 25.7872 40.1581 26.1869C40.5256 26.7777 40.3455 27.4884 40.2992 27.6439L40.3079 30.6253C40.3244 30.6246 40.3471 30.6238 40.376 30.6234L40.4816 30.6235C40.9585 30.6304 42.264 30.7272 44.4256 31.4425L42.6089 27.9615L44.5512 24.9926C42.3105 24.2377 40.888 24.1554 40.3994 24.1523L40.2967 24.1528C40.2414 24.1538 40.2122 24.1557 40.2098 24.1556ZM4.87489 24.2548C4.846 24.2548 3.58092 24.0868 0.786056 25.0362L2.51404 27.9972L0.827039 31.3499C3.21208 30.5559 4.48254 30.6154 4.79427 30.6485L4.79226 27.6816C4.79226 27.6677 4.6122 26.7797 4.96022 26.218C5.20678 25.8183 5.64482 25.5676 6.26158 25.4716C6.70499 25.4021 6.83533 25.2857 6.86086 25.1328C6.84675 25.0442 6.83331 24.9582 6.82189 24.8741C6.64654 24.4738 5.7765 24.2317 4.87489 24.2548ZM27.6663 29.6514C27.4405 29.6018 27.1261 29.3484 26.9273 29.6269C26.7371 29.6527 26.5625 29.4814 26.3878 29.6025C26.3884 29.797 26.207 29.9042 26.0586 30.0186C26.4435 30.0722 26.8057 30.2231 27.1638 30.3647C27.0952 30.2992 27.0233 30.2324 27.0623 30.1258C27.329 30.0888 27.7805 30.4163 27.9673 30.0173C27.98 29.8327 27.7919 29.7718 27.6663 29.6514ZM26.197 28.5345C26.0982 28.6292 26.0351 28.7661 25.9961 28.9123C26.1876 28.9467 26.3354 29.0804 26.5369 29.0797C26.725 28.8621 27.1631 29.1532 27.2639 28.8369C27.1517 28.6662 26.8997 28.5431 26.6753 28.5934C26.5121 28.6794 26.3616 28.5577 26.197 28.5345ZM37.9457 18.4692L7.16924 18.495L7.16991 19.3585L37.947 19.3307L37.9457 18.4692ZM37.9302 1.16534L7.15244 1.19379L7.16185 10.6801L12.2981 10.6761L12.3001 12.7041L15.666 12.7015L15.664 10.6404L20.9548 10.6351L20.9568 12.716L24.4988 12.681L24.4974 10.6324L29.5248 10.6272L29.5268 12.6889L33.1286 12.6856L33.1272 10.6238L37.939 10.6199L37.9302 1.16534ZM10.3127 8.08702C10.838 7.88521 11.0906 8.25508 11.8162 8.21141C12.396 8.17436 13.2291 8.42711 13.3863 9.07422C12.9839 9.17215 12.4921 9.15031 12.1327 9.07488C11.4252 8.92799 11.0658 8.14392 10.3127 8.08702ZM19.6798 8.07861C20.2051 7.87614 20.4584 8.24668 21.184 8.20235C21.7625 8.16595 22.5976 8.41805 22.7534 9.06516C22.3503 9.16374 21.8585 9.14125 21.4998 9.06648C20.793 8.91893 20.4329 8.13552 19.6798 8.07861ZM29.0468 8.07021C29.5715 7.86774 29.8255 8.23894 30.5517 8.19394C31.1302 8.15755 31.9639 8.40965 32.1211 9.05742C31.7174 9.15534 31.2262 9.13351 30.8661 9.05742C30.16 8.91053 29.7999 8.12778 29.0468 8.07021ZM13.9715 9.03783C14.1536 7.49152 14.9114 5.88698 16.9807 6.19267C15.5483 6.71936 15.9172 9.01467 13.9715 9.03783ZM23.3386 9.02877C23.52 7.48245 24.2792 5.87858 26.3478 6.18427C24.9161 6.71095 25.2836 9.00561 23.3386 9.02877ZM32.7057 9.02102C32.8871 7.47405 33.6463 5.87017 35.7149 6.17652C34.2825 6.70255 34.6514 8.99787 32.7057 9.02102ZM9.37066 7.95554C10.3811 6.81616 12.7635 7.00208 13.131 8.09979C12.7641 7.80535 12.4779 7.70808 11.8477 7.81527C11.2767 7.90989 10.6351 7.44077 9.37066 7.95554ZM18.7377 7.94714C19.7482 6.80775 22.1305 6.99368 22.4973 8.09138C22.1312 7.79694 21.8456 7.70034 21.2155 7.80753C20.6444 7.90149 20.0021 7.43303 18.7377 7.94714ZM28.1055 7.93874C29.1153 6.79869 31.499 6.98462 31.8651 8.08298C31.499 7.78788 31.2127 7.69194 30.5832 7.79913C30.0108 7.89308 29.3692 7.42396 28.1055 7.93874ZM11.6181 4.64139C12.4532 5.09464 14.1926 5.05163 14.1926 6.49207C14.1919 6.97178 13.6874 7.0353 13.588 7.56199C13.2386 7.19542 13.2111 7.24108 12.9195 7.06706C13.0894 5.55118 11.901 5.52736 11.6181 5.01259C11.5583 4.90341 11.6181 4.76513 11.6181 4.64139ZM20.9845 4.63359C21.8203 5.0855 23.559 5.04316 23.5604 6.48427C23.5584 6.96331 23.0545 7.02683 22.9557 7.55418C22.6044 7.18629 22.5775 7.23195 22.2872 7.05859C22.4566 5.54205 21.2681 5.51956 20.9852 5.00412C20.9254 4.89494 20.9852 4.75732 20.9845 4.63359ZM30.3516 4.62518C31.1867 5.0771 32.9255 5.03542 32.9268 6.4752C32.9255 6.95557 32.4216 7.01777 32.3222 7.54511C31.9715 7.17789 31.9453 7.22354 31.6543 7.05019C31.8243 5.53431 30.6352 5.51049 30.3523 4.99505C30.2932 4.8872 30.3516 4.74892 30.3516 4.62518ZM10.1945 6.17772C10.7924 4.63736 12.3209 5.52994 12.3162 6.76594C11.8143 6.58596 10.9765 6.70639 10.4451 6.99024C10.1105 6.88702 9.76248 6.74542 9.75442 6.42584C9.74972 6.23197 10.1024 6.41194 10.1945 6.17772ZM19.5608 6.16951C20.1601 4.62982 21.6878 5.52108 21.6825 6.75773C21.1819 6.5771 20.3441 6.69818 19.812 6.98204C19.4781 6.87815 19.1294 6.73656 19.1214 6.41764C19.116 6.22377 19.4687 6.40374 19.5608 6.16951ZM28.9285 6.16111C29.5272 4.62075 31.0543 5.51334 31.0502 6.74933C30.549 6.56803 29.7119 6.68912 29.1791 6.9743C28.8459 6.86909 28.4959 6.72749 28.4878 6.40923C28.4838 6.21536 28.8365 6.39534 28.9285 6.16111ZM15.5808 3.09475C16.4079 4.18915 14.8109 4.84419 14.868 6.11062C14.7303 5.4569 13.912 5.27163 13.7635 4.76413C13.4303 3.63136 14.6779 3.34155 15.5808 3.09475ZM24.9473 3.08569C25.7757 4.1814 24.1773 4.83579 24.2338 6.10288C24.0974 5.44849 23.2784 5.26323 23.1299 4.75573C22.7974 3.62296 24.0457 3.33381 24.9473 3.08569ZM34.3151 3.07795C35.1422 4.17234 33.5452 4.82739 33.6016 6.09382C33.4659 5.44009 32.6469 5.25549 32.4964 4.74733C32.1645 3.61456 33.4122 3.32541 34.3151 3.07795ZM16.2826 3.54191C16.7919 4.0097 16.3619 5.76245 15.596 5.95434C15.3521 4.7243 16.4983 4.53506 16.2826 3.54191ZM25.6498 3.5335C26.1583 4.0013 25.7304 5.75405 24.9631 5.9466C24.7192 4.71656 25.8647 4.52666 25.6498 3.5335ZM35.0169 3.5251C35.5261 3.9929 35.0975 5.74631 34.3296 5.93819C34.0857 4.70816 35.2325 4.51826 35.0169 3.5251ZM11.3767 2.42978C11.9572 2.77649 13.7436 2.31994 14.265 3.04248C13.8148 3.28333 13.6523 3.41897 13.5824 3.72664C13.3775 3.18871 12.5733 3.45271 12.0566 3.21517C11.6293 3.39449 12.064 3.64923 11.4412 3.92117C11.2249 4.01579 11.2773 4.40022 11.2336 4.62982C10.7103 4.71252 10.1083 5.07512 10.029 5.59254C9.10455 5.57798 9.84559 3.65187 10.6263 3.66577C10.8003 3.56784 10.5369 3.38919 10.6256 3.1715C10.9871 3.03388 11.0489 2.23591 11.3767 2.42978ZM19.9927 3.1631C20.3535 3.02614 20.4166 2.22685 20.7438 2.42137C21.3243 2.76809 23.1114 2.31154 23.6314 3.03342C23.1826 3.27492 23.02 3.4099 22.9488 3.7189C22.7446 3.17964 21.941 3.44431 21.4237 3.20677C20.9964 3.38608 21.4298 3.64149 20.809 3.91277C20.592 4.00673 20.6444 4.39181 20.6 4.62075C20.0774 4.70346 19.4767 5.06671 19.3954 5.58347C18.4716 5.56958 19.212 3.64281 19.9934 3.65803C20.1681 3.55944 19.9033 3.38145 19.9927 3.1631ZM29.3605 3.1547C29.7213 3.01773 29.7831 2.21844 30.1109 2.41363C30.6907 2.75902 32.4792 2.30314 32.9992 3.02567C32.5497 3.26586 32.3878 3.4015 32.3166 3.70984C32.1117 3.1719 31.3075 3.43524 30.7908 3.19837C30.3642 3.37768 30.7969 3.63242 30.1754 3.90437C29.9591 3.99898 30.0122 4.38341 29.9678 4.61301C29.4445 4.69506 28.8438 5.05765 28.7632 5.57573C27.8381 5.56118 28.5791 3.63507 29.3605 3.64962C29.5352 3.55104 29.2711 3.37239 29.3605 3.1547ZM12.6042 3.80128C12.613 3.66431 12.8716 3.70071 12.9805 3.73908C13.2653 3.84098 13.5771 4.41464 13.1061 4.60388C13.1505 4.12814 12.9119 3.93096 12.6042 3.80128ZM12.4321 3.91786C12.637 4.06409 12.854 4.20039 12.8097 4.59541C12.7673 4.58838 12.7239 4.58278 12.68 4.57791L12.415 4.55206C12.1964 4.52872 11.9921 4.48938 11.8678 4.34795C11.7522 4.21826 11.9921 4.22554 11.9934 4.10181C12.2595 4.08791 12.3139 4.28244 12.4966 4.34795C12.5457 4.13489 12.4012 4.11173 12.4321 3.91786ZM21.9727 3.79288C21.9808 3.65525 22.2387 3.69164 22.3476 3.73134C22.6331 3.83257 22.9428 4.40624 22.4739 4.59481C22.5169 4.1204 22.2797 3.9219 21.9727 3.79288ZM21.7992 3.90953C22.0048 4.05509 22.2205 4.19206 22.1775 4.58707C21.8375 4.53017 21.4344 4.56656 21.2355 4.34027C21.12 4.20992 21.3605 4.21654 21.3598 4.09281C21.6252 4.07891 21.6803 4.2741 21.863 4.33895C21.9134 4.12655 21.7703 4.10339 21.7992 3.90953ZM31.3391 3.78447C31.3465 3.64751 31.6058 3.68324 31.7147 3.72228C32.0002 3.82483 32.3113 4.3985 31.8403 4.58707C31.8833 4.112 31.6468 3.9135 31.3391 3.78447ZM31.1669 3.90112C31.3718 4.04735 31.5868 4.18365 31.5445 4.57867C31.5021 4.57164 31.4587 4.56604 31.4148 4.56117L31.1499 4.53536C30.9314 4.51207 30.727 4.47288 30.6019 4.33187C30.4863 4.20152 30.7275 4.20814 30.7275 4.0844C30.9929 4.07051 31.0473 4.26504 31.2301 4.33121C31.2798 4.11749 31.1367 4.09499 31.1669 3.90112Z" fill="#28334A"/>
</svg>
